<?xml version="1.0" encoding="UTF-8"?>
<svg width="85px" height="85px" viewBox="0 0 85 85" version="1.1" xmlns="http://www.w3.org/2000/svg" xmlns:xlink="http://www.w3.org/1999/xlink">
    <title>摄像头</title>
    <g id="页面-1" stroke="none" stroke-width="1" fill="none" fill-rule="evenodd">
        <g id="三体官网-首页" transform="translate(-904.000000, -1445.000000)" fill-rule="nonzero">
            <g id="编组-9" transform="translate(0.000000, 1369.000000)">
                <g id="编组-8" transform="translate(510.000000, 75.000000)">
                    <g id="编组-7备份" transform="translate(373.000000, 1.000000)">
                        <g id="摄像头" transform="translate(21.000000, 0.000000)">
                            <rect id="矩形" fill="#000000" opacity="0" x="0" y="0" width="85" height="85"></rect>
                            <path d="M42.5,0 C19.0278571,0 0,19.0278571 0,42.5 C0,65.9721429 19.0278571,85 42.5,85 C65.9721429,85 85,65.9721429 85,42.5 C85,19.0278571 65.9721429,0 42.5,0 Z M47.5775357,53.3678571 L49.623,65.28425 C49.8658571,66.6806786 48.9994643,68.0018214 47.8416429,68.0018214 L37.1571429,68.0018214 C35.9993214,68.0018214 35.1359643,66.6837143 35.3757857,65.28425 L37.4224643,53.3678571 C29.6510358,51.1602857 23.9633214,44.0123928 23.9633214,35.5348571 C23.9633214,25.2978214 32.2623571,17 42.5,17 C52.7376429,17 61.0366786,25.2996429 61.0366786,35.5366786 C61.0366786,44.0123929 55.3465357,51.1602857 47.5775357,53.3678571 Z" id="形状" fill="#3D3D3D"></path>
                            <path d="M37.4224643,53.3678571 L35.377,65.28425 C35.1371786,66.6837143 36.0035714,68 37.1571429,68 L47.8428571,68 C49.0006786,68 49.8646428,66.6818929 49.6242143,65.2824286 L47.5775357,53.3678571 C44.2575254,54.306094 40.7424746,54.306094 37.4224643,53.3678571 L37.4224643,53.3678571 Z" id="路径" fill="#645E9E"></path>
                            <path d="M42.5,17 C32.2623571,17 23.9633214,25.2996429 23.9633214,35.5366786 C23.9633214,44.0142142 29.6534643,51.1621071 37.4224643,53.3696786 C40.7424746,54.3079155 44.2575254,54.3079155 47.5775357,53.3696786 C55.3489642,51.1621071 61.0366786,44.0142142 61.0366786,35.5366786 C61.0366786,25.2978214 52.7376429,17 42.5,17 Z M42.5,22.0392857 C43.5059472,22.0392857 44.3214286,22.854767 44.3214286,23.8607142 C44.3214286,24.8666614 43.5059473,25.6821428 42.5000001,25.6821428 C41.4940528,25.6821428 40.6785714,24.8666615 40.6785714,23.8607143 C40.6785714,23.3776414 40.8704714,22.9143539 41.2120555,22.5727698 C41.5536396,22.2311856 42.0169271,22.0392857 42.5,22.0392857 Z M42.5,48.5368214 C37.4702639,48.5368214 33.3928571,44.4594147 33.3928571,39.4296786 C33.3928571,34.3999424 37.4702639,30.3225357 42.5,30.3225357 C47.5297361,30.3225357 51.6071429,34.3999424 51.6071429,39.4296786 C51.6058019,44.4584662 47.5287879,48.5343931 42.5,48.5343929 L42.5,48.5368214 Z" id="形状" fill="#8A78CE"></path>
                            <path d="M42.5,30.3201071 C37.4702639,30.3201071 33.3928571,34.3975139 33.3928571,39.42725 C33.3928571,44.4569861 37.4702639,48.5343929 42.5,48.5343929 C47.5297361,48.5343929 51.6071429,44.4569861 51.6071429,39.42725 C51.6071429,34.3975139 47.5297361,30.3201071 42.5,30.3201071 L42.5,30.3201071 Z M42.5,46.7949286 C38.4649286,46.7949286 35.1936429,43.4963214 35.1936429,39.42725 C35.1936429,35.3581786 38.4649286,32.0571429 42.5,32.0571429 C46.5350714,32.0571429 49.8063571,35.35575 49.8063571,39.4254286 C49.8063571,43.4951071 46.5350714,46.7949286 42.5,46.7949286 Z" id="形状" fill="#9D8FD1"></path>
                            <path d="M35.1936429,39.42725 C35.1936429,43.4963065 38.4648104,46.7949286 42.5,46.7949286 C46.5351896,46.7949286 49.8063571,43.4963065 49.8063571,39.42725 C49.8063571,35.3581935 46.5351896,32.0595714 42.5,32.0595714 C38.4648104,32.0595714 35.1936429,35.3581935 35.1936429,39.42725 L35.1936429,39.42725 Z" id="路径" fill="#FFFFFF"></path>
                            <path d="M40.6785714,23.8582857 C40.6785714,24.8642329 41.4940528,25.6797142 42.5,25.6797142 C43.5059472,25.6797142 44.3214286,24.8642329 44.3214286,23.8582857 C44.3214286,22.8523385 43.5059472,22.0368571 42.5,22.0368571 C41.4940528,22.0368571 40.6785714,22.8523385 40.6785714,23.8582857 Z" id="路径" fill="#FFFFFF"></path>
                        </g>
                    </g>
                </g>
            </g>
        </g>
    </g>
</svg>