<?xml version="1.0" encoding="UTF-8"?>
<svg width="51px" height="51px" viewBox="0 0 51 51" version="1.1" xmlns="http://www.w3.org/2000/svg" xmlns:xlink="http://www.w3.org/1999/xlink">
    <title>AI算法仓</title>
    <defs>
        <linearGradient x1="25.6077881%" y1="11.6933594%" x2="73.7611084%" y2="82.6867676%" id="linearGradient-1">
            <stop stop-color="#C6CFFF" offset="0%"></stop>
            <stop stop-color="#EED8FF" offset="99.993427%"></stop>
        </linearGradient>
    </defs>
    <g id="页面-1" stroke="none" stroke-width="1" fill="none" fill-rule="evenodd">
        <g id="三体官网-首页" transform="translate(-1242.000000, -1155.000000)" fill-rule="nonzero">
            <g id="编组-15" transform="translate(360.000000, 709.000000)">
                <g id="编组-16" transform="translate(21.750061, 58.120059)">
                    <g id="AI算法仓" transform="translate(861.000000, 388.000000)">
                        <rect id="矩形" fill="url(#linearGradient-1)" x="0" y="0" width="50" height="50" rx="25"></rect>
                        <path d="M17.3763601,24.8213076 C17.2660446,25.6011767 17.2660446,26.3926912 17.3763601,27.1725603 L10.5088522,28.1250614 C10.2801102,27.6136759 10.1240147,27.0728113 10.0451017,26.5181846 C9.91385152,25.161933 10.0713517,23.7950565 10.5088522,22.500055 L17.5001102,23.4525561 C17.5001102,23.4525561 17.4382352,24.0181817 17.3763601,24.8213076 L17.3763601,24.8213076 Z M20.2888634,30.9975647 C20.5938638,31.267565 20.9144892,31.5181903 21.2501146,31.7488156 L18.5757365,35.6250701 C17.427393,35.1746027 16.4569988,34.362394 15.8113583,33.3113174 C15.4957133,32.8257381 15.2242108,32.3128537 15.0001074,31.7788156 L18.9663619,29.3750628 C19.2745547,30.0200787 19.7270687,30.5855073 20.2888634,31.0275648 L20.2888634,30.9975647 L20.2888634,30.9975647 Z M15.2301076,17.5206742 C15.974902,16.3803635 17.0555271,15.4995711 18.3226112,15.0000463 L21.2501146,19.1906761 L20.1644883,20.0419271 C19.5494865,20.53556 19.0545525,21.1623481 18.7169866,21.8750542 L14.3751066,19.1906761 C14.5819819,18.5975505 14.8701072,18.0362998 15.2301076,17.5206742 L15.2301076,17.5206742 Z M26.3063704,10.0456656 C26.9282461,10.0881657 27.5407468,10.2131658 28.1251225,10.416291 L27.0338712,17.5000492 C26.1776599,17.3890686 25.3107046,17.3890686 24.4544932,17.5000492 L22.9332415,17.5000492 L21.8751153,10.5094162 C23.3084782,10.0705428 24.8132004,9.91306695 26.3063704,10.0456656 L26.3063704,10.0456656 Z M24.4544932,32.6225666 C25.3107442,32.7175667 26.1769952,32.7175667 27.0338712,32.6225666 L28.1251225,39.5631996 C27.5357468,39.7488248 26.9251211,39.8725749 26.3063704,39.93195 C24.8192884,40.0929915 23.3151251,39.9678214 21.8751153,39.5631996 L22.9332415,32.5000664 L24.4544932,32.6225666 Z M30.31075,31.0275648 C30.8916772,30.595477 31.3584919,30.0282628 31.6707516,29.3750628 L35.6251311,31.7788156 C35.4349071,32.3231999 35.1707689,32.8388584 34.8401302,33.3113174 C34.1817185,34.3563995 33.2094692,35.1663156 32.062627,35.6250701 L29.3751239,31.7788156 L30.311375,31.0275648 L30.31075,31.0275648 Z M29.7369993,19.6275517 C29.4291574,19.3415176 29.0991693,19.0802857 28.7501232,18.8463007 L31.6776265,15.0000463 C32.946378,15.4600468 34.0270042,16.2687978 34.7701301,17.313799 C35.1272702,17.7809072 35.4152302,18.297046 35.6251311,18.8463007 L31.3157511,21.2500535 C30.9192408,20.5965795 30.3793935,20.041772 29.7369993,19.6275517 L29.7369993,19.6275517 Z M39.5782606,22.500055 C39.979363,23.7991319 40.096384,25.1692793 39.921386,26.5175596 C39.8717871,27.0652558 39.7563717,27.60498 39.5776356,28.1250614 L32.5001275,27.1125603 C32.6111354,26.3329494 32.6111354,25.5415434 32.5001275,24.7619325 L32.5001275,23.393181 L39.5782606,22.500055 Z" id="形状" fill="#1C4194"></path>
                    </g>
                </g>
            </g>
        </g>
    </g>
</svg>