<?xml version="1.0" encoding="UTF-8"?>
<svg width="50px" height="50px" viewBox="0 0 50 50" version="1.1" xmlns="http://www.w3.org/2000/svg" xmlns:xlink="http://www.w3.org/1999/xlink">
    <title>身份识别</title>
    <defs>
        <filter id="filter-1">
            <feColorMatrix in="SourceGraphic" type="matrix" values="0 0 0 0 0.862745 0 0 0 0 0.862745 0 0 0 0 0.862745 0 0 0 1.000000 0"></feColorMatrix>
        </filter>
    </defs>
    <g id="页面-1" stroke="none" stroke-width="1" fill="none" fill-rule="evenodd">
        <g id="三体官网-算法商场" transform="translate(-996.000000, -930.000000)">
            <g id="编组-8" transform="translate(360.000000, 805.000000)">
                <g id="身份识别" transform="translate(609.000000, 92.000000)" filter="url(#filter-1)">
                    <g transform="translate(27.000000, 33.000000)">
                        <rect id="矩形" fill="#000000" fill-rule="nonzero" opacity="0" x="0" y="0" width="50" height="50"></rect>
                        <path d="M42.197,46.25 L32.372,46.25 C31.6218311,46.2398711 31.0190165,45.6288623 31.0190165,44.878625 C31.0190165,44.1283877 31.6218311,43.5173789 32.372,43.50725 L42.197,43.50725 C42.9200527,43.5062857 43.5059237,42.9203029 43.50675,42.19725 L43.50675,32.22325 C43.5000751,31.7288923 43.7599881,31.2692037 44.1870366,31.0200779 C44.6140851,30.7709521 45.1421649,30.7709521 45.5692134,31.0200779 C45.9962619,31.2692037 46.2561749,31.7288923 46.2496255,32.22325 L46.2496255,42.19675 C46.2472958,44.4340917 44.4343413,46.2473817 42.197,46.25 L42.197,46.25 Z M44.878,19.6175 C44.1206795,19.6175 43.50675,19.0035705 43.50675,18.24625 L43.50675,8.05325 C43.5059234,7.33023772 42.9200123,6.74432662 42.197,6.7435 L32.582,6.7435 C31.8246795,6.7435 31.21075,6.12957046 31.21075,5.37225 C31.21075,4.61492954 31.8246795,4.001 32.582,4.001 L42.197,4.001 C44.4342037,4.00320424 46.2473817,5.81604677 46.25,8.05325 L46.25,18.24575 C46.25,18.6095581 46.1054265,18.9584546 45.848105,19.2156354 C45.5907836,19.4728163 45.241808,19.617199 44.878,19.617 L44.878,19.6175 Z M5.37225,19.8275004 C5.00839866,19.8277653 4.6593589,19.6834119 4.40198332,19.4262239 C4.14460773,19.1690359 4,18.8201014 4,18.45625 L4,8.05325 C4.00206741,5.81555875 5.81555875,4.00206741 8.05325,4 L17.55325,4 C18.3105705,4 18.9245,4.61392954 18.9245,5.37125 C18.9245,6.12857046 18.3105705,6.7425 17.55325,6.7425 L8.05325,6.7425 C7.33023772,6.74332662 6.74432662,7.32923772 6.7435,8.05225 L6.7435,18.45625 C6.7435,18.8199281 6.59902943,19.1687109 6.34187017,19.4258702 C6.08471091,19.6830294 5.73592811,19.8275004 5.37225,19.8275004 L5.37225,19.8275004 Z M17.45,46.25 L8.05325,46.25 C5.81555875,46.2479326 4.00206741,44.4344413 4,42.19675 L4,31.80275 C4,31.0454295 4.61392954,30.4315 5.37125,30.4315 C6.12857046,30.4315 6.7425,31.0454295 6.7425,31.80275 L6.7425,42.19675 C6.74332633,42.9198029 7.32919728,43.5057857 8.05225,43.50675 L17.45,43.50675 C18.2075275,43.50675 18.8216249,44.1208475 18.8216249,44.878375 C18.8216249,45.6359025 18.2075275,46.25 17.45,46.25 L17.45,46.25 Z" id="形状" fill="#2966C1" fill-rule="nonzero"></path>
                        <path d="M30.05,26.15525 C32.8491999,24.0392415 33.9835115,20.3714424 32.8675709,17.0446288 C31.7516302,13.7178153 28.6349902,11.4759482 25.126,11.4759482 C21.6170098,11.4759482 18.5003698,13.7178153 17.3844291,17.0446288 C16.2684885,20.3714424 17.4028001,24.0392415 20.202,26.15525 C16.0836796,28.0424528 13.4381715,32.151637 13.425,36.68175 C13.4351373,37.4331556 14.047151,38.0369684 14.798625,38.0369684 C15.550099,38.0369684 16.1621127,37.4331556 16.17225,36.68175 C16.2172163,31.7686331 20.2128023,27.8094484 25.126125,27.8094484 C30.0394477,27.8094484 34.0350337,31.7686331 34.08,36.68175 C34.0901373,37.4331556 34.702151,38.0369684 35.453625,38.0369684 C36.205099,38.0369684 36.8171127,37.4331556 36.82725,36.68175 C36.8139713,32.1515974 34.1683754,28.0424285 30.05,26.15525 L30.05,26.15525 Z M19.70675,19.69875 C19.6897331,17.5035305 20.9990034,15.5149863 23.0222579,14.6630947 C25.0455124,13.8112031 27.3828534,14.2643411 28.9411826,15.8105908 C30.4995118,17.3568405 30.9708244,19.6905846 30.1347028,21.7204069 C29.2985812,23.7502292 27.3202854,25.0750222 25.125,25.0750222 C22.1454733,25.0834462 19.7214896,22.6782523 19.70675,19.69875 L19.70675,19.69875 Z" id="形状" fill="#FD9A16" fill-rule="nonzero"></path>
                    </g>
                </g>
            </g>
        </g>
    </g>
</svg>