<?xml version="1.0" encoding="UTF-8"?>
<svg width="50px" height="50px" viewBox="0 0 50 50" version="1.1" xmlns="http://www.w3.org/2000/svg" xmlns:xlink="http://www.w3.org/1999/xlink">
    <title>人体入侵</title>
    <defs>
        <filter id="filter-1">
            <feColorMatrix in="SourceGraphic" type="matrix" values="0 0 0 0 0.862745 0 0 0 0 0.862745 0 0 0 0 0.862745 0 0 0 1.000000 0"></feColorMatrix>
        </filter>
    </defs>
    <g id="页面-1" stroke="none" stroke-width="1" fill="none" fill-rule="evenodd">
        <g id="三体官网-算法商场" transform="translate(-692.000000, -1135.000000)">
            <g id="编组-8" transform="translate(360.000000, 805.000000)">
                <g id="人体入侵" transform="translate(305.000000, 297.000000)" filter="url(#filter-1)">
                    <g transform="translate(27.000000, 33.000000)">
                        <rect id="矩形" fill="#000000" fill-rule="nonzero" opacity="0" x="0" y="0" width="50" height="50"></rect>
                        <path d="M18.5,16 C22.0285714,16 25,13.0285714 25,9.5 C25,5.97142854 22.0285714,3 18.5,3 C14.9714285,3 12,5.97142858 12,9.5 C12,13.0285714 14.9714286,16 18.5,16 Z M19,6 C20.6,6 22,7.40000002 22,9 C22,10.6 20.6,12 19,12 C17.4,12 16,10.6 16,9 C16,7.40000002 17.4,6 19,6 Z M25.500687,19.9090909 C24.7733587,18.8181818 23.8641984,18.2727273 22.7732061,17.9090909 C21.5003816,17.5454545 19.3183969,17 16.590916,17 C13.8634351,17 11.6814504,17.5454545 10.408626,17.9090909 C9.13580157,18.2727272 8.22664129,19 7.49931308,19.9090909 L3.31717569,26.2727273 C2.77167951,27.1818182 2.95351158,28.2727273 3.68083983,28.8181818 C4.04450394,29 4.40816808,29.1818182 4.77183219,29.1818182 C5.31732837,29.1818182 5.86282454,28.8181818 6.22648865,28.4545455 L10.408626,22.0909091 C10.5904581,21.7272728 10.9541222,21.5454546 11.3177863,21.3636364 C12.2269466,21.1818182 13.317939,20.8181818 14.9544275,20.6363636 L11.3177863,35 C11.3177863,35.1818182 11.1359542,35.5454545 10.9541222,35.7272727 L5.13549629,44.0909091 C4.59000011,45 4.77183219,46.0909091 5.4991604,46.6363637 C5.8628245,46.8181818 6.22648865,47 6.59015275,47 C7.13564893,47 7.68114511,46.8181818 8.04480926,46.2727273 L13.6816031,38.0909091 C14.2270992,37.5454545 14.5907633,36.8181818 14.7725954,36.0909091 L15.6817557,32.6363636 L20.2275572,36.4545454 C20.4093893,36.6363636 20.5912213,36.8181818 20.5912213,37 L26.0461831,46.0909091 C26.4098472,46.6363637 26.9553434,47 27.6826717,47 C28.0463358,47 28.4099999,47 28.5918319,46.8181818 C29.5009922,46.2727273 29.6828243,45.1818182 29.1373281,44.2727273 L23.6823663,35.1818182 C23.3187022,34.6363637 22.9550381,34.2727273 22.4095419,33.7272727 L16.590916,28.8181818 L18.5910687,20.8181818 C19.8638931,21 20.9548855,21.1818182 21.6822137,21.3636364 C22.0458778,21.5454546 22.2277099,21.7272727 22.4095419,21.9090909 L26.7735113,27.9090909 C27.3190075,28.6363637 28.4099999,28.8181818 29.3191602,28.2727273 C30.0464884,27.7272727 30.2283205,26.4545454 29.6828243,25.7272727 L25.500687,19.9090909 Z M36.1795497,33.2395655 C38.0598499,30.8471889 39,27.9027255 39,24.958262 C39,21.8297696 38.0598499,19.0693351 36.1795497,16.4929296 C35.6154597,15.7568137 34.8633396,15.0206979 34.1112195,14.468611 C33.3590994,13.7324951 32.2309193,13.9165241 31.4787992,14.6526399 C30.7266791,15.3887558 30.9147092,16.4929296 31.6668293,17.2290455 C32.2309193,17.5971034 32.6069793,18.1491903 33.1710694,18.7012772 C34.4872795,20.5415668 35.2393996,22.5658855 35.2393996,24.958262 C35.2393996,27.1666096 34.4872795,29.3749572 33.1710694,31.2152469 C32.7950094,31.7673338 32.2309193,32.3194207 31.6668293,32.8715076 C30.9147092,33.6076235 30.9147092,34.7117973 31.4787992,35.4479131 C31.8548593,35.815971 32.4189493,36 32.7950094,36 C33.1710694,36 33.7351595,35.815971 34.1112195,35.4479131 C34.8633396,34.8958262 35.6154596,34.1597103 36.1795497,33.2395655 L36.1795497,33.2395655 Z" id="形状" fill="#000000" fill-rule="nonzero"></path>
                        <path d="M36.1971154,6.26082366 C35.2471578,5.71911299 34.1072087,6.08025342 33.5372342,6.80253432 C32.9672596,7.70538542 33.3472426,8.78880675 34.1072087,9.33051741 C39.8069543,12.7613516 43.2268016,18.5395987 43.2268016,24.8595565 C43.2268016,31.1795142 39.6169627,37.3189018 33.9172172,40.5691658 C32.9672596,41.1108764 32.7772681,42.1942978 33.3472426,43.0971489 C33.7272257,43.6388596 34.2972002,44 35.0571663,44 C35.4371493,44 35.8171324,44 36.0071239,43.8194298 C42.6568271,39.8468849 47.026632,32.624076 47.026632,25.0401267 C47.026632,17.2756072 43.0368101,10.4139387 36.1971154,6.26082366 Z" id="路径" fill="#000000" fill-rule="nonzero"></path>
                    </g>
                </g>
            </g>
        </g>
    </g>
</svg>