<?xml version="1.0" encoding="UTF-8"?>
<svg width="50px" height="50px" viewBox="0 0 50 50" version="1.1" xmlns="http://www.w3.org/2000/svg" xmlns:xlink="http://www.w3.org/1999/xlink">
    <title>工装裤</title>
    <defs>
        <filter id="filter-1">
            <feColorMatrix in="SourceGraphic" type="matrix" values="0 0 0 0 0.862745 0 0 0 0 0.862745 0 0 0 0 0.862745 0 0 0 1.000000 0"></feColorMatrix>
        </filter>
    </defs>
    <g id="页面-1" stroke="none" stroke-width="1" fill="none" fill-rule="evenodd">
        <g id="三体官网-算法商场" transform="translate(-1301.000000, -2396.000000)">
            <g id="编组-8备份-3" transform="translate(360.000000, 2271.000000)">
                <g id="工装裤" transform="translate(914.000000, 92.000000)" filter="url(#filter-1)">
                    <g transform="translate(27.000000, 33.000000)">
                        <rect id="矩形" fill="#000000" fill-rule="nonzero" opacity="0" x="0" y="0" width="50" height="50"></rect>
                        <path d="M19.3017578,10.4541016 L14.0380859,10.4541016 C13.7158203,10.4541016 13.4521484,10.1904297 13.4521484,9.86816406 C13.4521484,9.54589844 13.7158203,9.28222656 14.0380859,9.28222656 L19.3017578,9.28222656 C19.6240234,9.28222656 19.8876953,9.54589844 19.8876953,9.86816406 C19.8876953,10.1904297 19.6240234,10.4541016 19.3017578,10.4541016 Z M36.0595703,10.4541016 L30.7958984,10.4541016 C30.4736328,10.4541016 30.2099609,10.1904297 30.2099609,9.86816406 C30.2099609,9.54589844 30.4736328,9.28222656 30.7958984,9.28222656 L36.0595703,9.28222656 C36.3818359,9.28222656 36.6455078,9.54589844 36.6455078,9.86816406 C36.6455078,10.1904297 36.3818359,10.4541016 36.0595703,10.4541016 Z M19.3017578,25.6201172 L14.0380859,25.6201172 C13.7158203,25.6201172 13.4521484,25.3564453 13.4521484,25.0341797 C13.4521484,24.7119141 13.7158203,24.4482422 14.0380859,24.4482422 L19.3017578,24.4482422 C19.6240234,24.4482422 19.8876953,24.7119141 19.8876953,25.0341797 C19.8876953,25.3564453 19.6240234,25.6201172 19.3017578,25.6201172 Z M36.0595703,25.6201172 L30.7958984,25.6201172 C30.4736328,25.6201172 30.2099609,25.3564453 30.2099609,25.0341797 C30.2099609,24.7119141 30.4736328,24.4482422 30.7958984,24.4482422 L36.0595703,24.4482422 C36.3818359,24.4482422 36.6455078,24.7119141 36.6455078,25.0341797 C36.6455078,25.3564453 36.3818359,25.6201172 36.0595703,25.6201172 Z" id="形状" stroke="#979797" stroke-width="1.8" fill="#255BF2" fill-rule="nonzero"></path>
                        <path d="M36.7285156,6.66015625 L13.3691406,6.66015625 C13.046875,6.66015625 12.7832031,6.39648438 12.7832031,6.07421875 C12.7832031,5.75195312 13.046875,5.48828125 13.3691406,5.48828125 L36.7285156,5.48828125 C37.0507812,5.48828125 37.3144531,5.75195312 37.3144531,6.07421875 C37.3144531,6.39648438 37.0507812,6.66015625 36.7285156,6.66015625 Z" id="路径" stroke="#979797" stroke-width="1.8" fill="#231815" fill-rule="nonzero"></path>
                        <path d="M36.7285156,47.2998047 L13.3691406,47.2998047 C13.046875,47.2998047 12.7832031,47.0361328 12.7832031,46.7138672 L12.7832031,3.38867188 C12.7832031,3.06640625 13.046875,2.80273438 13.3691406,2.80273438 C13.6914063,2.80273438 13.9550781,3.06640625 13.9550781,3.38867188 L13.9550781,46.1279297 L36.1425781,46.1279297 L36.1425781,3.35449219 C36.1425781,3.03222656 36.40625,2.76855469 36.7285156,2.76855469 C37.0507812,2.76855469 37.3144531,3.03222656 37.3144531,3.35449219 L37.3144531,46.7089844 C37.3144531,47.0361328 37.0507812,47.2998047 36.7285156,47.2998047 Z" id="路径" stroke="#979797" stroke-width="1.8" fill="#231815" fill-rule="nonzero"></path>
                        <path d="M25.0488281,47.2998047 C24.7265625,47.2998047 24.4628906,47.0361328 24.4628906,46.7138672 L24.4628906,15.7226562 C24.4628906,15.4003906 24.7265625,15.1367188 25.0488281,15.1367188 C25.3710938,15.1367188 25.6347656,15.4003906 25.6347656,15.7226562 L25.6347656,46.7089844 C25.6347656,47.0361328 25.3710938,47.2998047 25.0488281,47.2998047 Z M36.7285156,3.94042969 L13.3691406,3.94042969 C13.046875,3.94042969 12.7832031,3.67675781 12.7832031,3.35449219 C12.7832031,3.03222656 13.046875,2.76855469 13.3691406,2.76855469 L36.7285156,2.76855469 C37.0507812,2.76855469 37.3144531,3.03222656 37.3144531,3.35449219 C37.3144531,3.67675781 37.0507812,3.94042969 36.7285156,3.94042969 Z" id="形状" stroke="#979797" stroke-width="1.8" fill="#231815" fill-rule="nonzero"></path>
                    </g>
                </g>
            </g>
        </g>
    </g>
</svg>