<?xml version="1.0" encoding="UTF-8"?>
<svg width="50px" height="50px" viewBox="0 0 50 50" version="1.1" xmlns="http://www.w3.org/2000/svg" xmlns:xlink="http://www.w3.org/1999/xlink">
    <title>高空抛物</title>
    <defs>
        <filter id="filter-1">
            <feColorMatrix in="SourceGraphic" type="matrix" values="0 0 0 0 0.862745 0 0 0 0 0.862745 0 0 0 0 0.862745 0 0 0 1.000000 0"></feColorMatrix>
        </filter>
    </defs>
    <g id="页面-1" stroke="none" stroke-width="1" fill="none" fill-rule="evenodd">
        <g id="三体官网-算法商场" transform="translate(-1301.000000, -1839.000000)">
            <g id="编组-8备份-2" transform="translate(360.000000, 1714.000000)">
                <g id="高空抛物" transform="translate(914.000000, 92.000000)" filter="url(#filter-1)">
                    <g transform="translate(27.000000, 33.000000)">
                        <rect id="矩形" fill="#000000" fill-rule="nonzero" opacity="0" x="0" y="0" width="50" height="50"></rect>
                        <path d="M31.27293,12 L31.27293,25.3328848 C31.27293,27.7836228 33.3828143,29.7771019 35.9771091,29.7771019 L37,29.7771019 L24.9999035,43 L13,29.7771019 L14.0228426,29.7771019 C16.616848,29.7771019 18.7273111,27.7835761 18.7273111,25.3328848 L18.7273111,12 L31.27293,12 M32.797893,9 L17.2021938,9 C16.3431028,9 15.6423121,9.66816552 15.6423121,10.4871074 L15.6423121,25.3571512 C15.6423121,26.1760463 14.9420491,26.8440713 14.083006,26.8440713 L7.84448651,26.8440713 C6.98577924,26.8440713 6.74161302,27.3522799 7.2993098,27.9710766 L23.9856502,46.5353521 C24.2628197,46.8431814 24.6315155,47 25.0000195,47 C25.3687153,47 25.7370753,46.8431814 26.0143887,46.5353521 L42.7006811,27.9710766 C43.2581861,27.3522799 43.0145475,26.8440713 42.1556963,26.8440713 L35.9171768,26.8440713 C35.0581818,26.8440713 34.3573431,26.1760463 34.3573431,25.3571512 L34.357343,10.4871074 C34.357343,9.66816552 33.65708,9 32.797893,9 L32.797893,9 Z" id="形状" fill="#231815" fill-rule="nonzero"></path>
                        <path d="M31.0191177,4.00759792 C31.0191177,3.454956 31.9133389,3.00764517 33.0189024,3.00764517 C34.1245274,3.00764517 35.0191177,3.45492448 35.0191177,4.00759792 C35.0191177,4.56039734 34.1245274,5.00764517 33.0189024,5.00764517 C31.9133389,5.00761368 31.0191177,4.56039737 31.0191177,4.00759792 Z" id="路径" fill="#231815" fill-rule="nonzero"></path>
                        <path d="M15.0191177,4.00759792 C15.0191177,3.454956 15.9135357,3.00764517 17.0193022,3.00764517 C18.1246382,3.00764517 19.0191177,3.45492448 19.0191177,4.00759792 C19.0191177,4.56039734 18.1246382,5.00764517 17.0193022,5.00764517 C15.9135357,5.00761368 15.0191177,4.56039737 15.0191177,4.00759792 Z" id="路径" fill="#231815" fill-rule="nonzero"></path>
                        <polygon id="路径" fill="#231815" fill-rule="nonzero" points="17.0191177 3.00764517 33.0191177 3.00764517 33.0191177 5.00764517 17.0191177 5.00764517"></polygon>
                    </g>
                </g>
            </g>
        </g>
    </g>
</svg>