<?xml version="1.0" encoding="UTF-8"?>
<svg width="50px" height="50px" viewBox="0 0 50 50" version="1.1" xmlns="http://www.w3.org/2000/svg" xmlns:xlink="http://www.w3.org/1999/xlink">
    <title>攀爬</title>
    <defs>
        <filter id="filter-1">
            <feColorMatrix in="SourceGraphic" type="matrix" values="0 0 0 0 0.890196 0 0 0 0 0.894118 0 0 0 0 0.901961 0 0 0 1.000000 0"></feColorMatrix>
        </filter>
    </defs>
    <g id="页面-1" stroke="none" stroke-width="1" fill="none" fill-rule="evenodd">
        <g id="三体官网-算法商场" transform="translate(-387.000000, -2044.000000)">
            <g id="编组-8备份-2" transform="translate(360.000000, 1714.000000)">
                <g id="攀爬" transform="translate(0.000000, 297.000000)" filter="url(#filter-1)">
                    <g transform="translate(27.000000, 33.000000)">
                        <rect id="矩形" fill="#000000" fill-rule="nonzero" opacity="0" x="0" y="0" width="50" height="50"></rect>
                        <path d="M37.7083333,12.1410578 C37.7083333,13.797912 39.0514791,15.1410578 40.7083333,15.1410578 C42.3651876,15.1410578 43.7083333,13.797912 43.7083333,12.1410578 C43.7083333,10.4842035 42.3651876,9.14105779 40.7083333,9.14105779 C39.0514791,9.14105779 37.7083333,10.4842035 37.7083333,12.1410578 Z" id="路径" fill="#000000" fill-rule="nonzero"></path>
                        <path d="M35.9326324,21.1410578 L29.3905763,21.0357946 C28.4559969,21.0357946 27.7083333,20.0884262 27.7083333,19.0357946 C27.7083333,17.983163 28.5494548,17.1410578 29.4840343,17.1410578 L36.0260903,17.2463209 C36.9606698,17.2463209 37.7083333,18.1936893 37.7083333,19.2463209 C37.6148754,20.2989525 36.8672118,21.1410578 35.9326324,21.1410578 L35.9326324,21.1410578 Z" id="路径" fill="#000000" fill-rule="nonzero"></path>
                        <path d="M27.5112429,20.6024429 L20.8859722,15.8162595 C19.939505,15.132519 19.7028881,13.765038 20.4127385,12.8533841 C21.122589,11.9417301 22.5422898,11.7138166 23.4887571,12.3975571 L30.1140278,17.1837405 C31.060495,17.8674809 31.2971119,19.2349619 30.5872615,20.1466159 C29.7591026,21.0582699 28.4577102,21.2861834 27.5112429,20.6024429 L27.5112429,20.6024429 Z M26.9622642,30 L19.0377358,29.8648649 C17.9056604,29.8648649 17,28.7837839 17,27.4324325 C17,26.0810811 17.9056604,25 19.0377358,25 L26.9622642,25.1351351 C28.0943396,25.1351351 29,26.2162161 29,27.5675675 C29,28.9189189 28.0943396,30 26.9622642,30 Z" id="形状" fill="#000000" fill-rule="nonzero"></path>
                        <path d="M21,26.9830509 L20.8648648,36.0169491 C20.8648648,37.1186441 19.7837838,38 18.4324324,38 C17.081081,38 16,37.1186441 16,36.0169491 L16.1351352,26.9830509 C16.1351352,25.8813559 17.2162162,25 18.5675676,25 C19.918919,25 21,25.8813559 21,26.9830509 L21,26.9830509 Z M31.3631202,35.4528589 L33.9524807,44.5702751 C34.1990864,45.6556818 33.4592691,46.7410885 32.3495433,46.9581698 C31.1165144,47.1752512 29.8834857,46.5240071 29.6368798,45.5471411 L27.0475193,36.4297249 C26.8009136,35.3443182 27.5407309,34.2589115 28.6504568,34.0418302 C29.7601827,33.8247488 30.9932116,34.4759929 31.3631202,35.4528589 L31.3631202,35.4528589 Z" id="形状" fill="#000000" fill-rule="nonzero"></path>
                        <path d="M30.6996965,30.1051148 L30.3933329,36.3828275 C30.3933329,37.4119607 29.4742422,38.2352673 28.4530304,38.132354 C27.4318185,38.132354 26.614849,37.2061341 26.7169701,36.1770008 L27.0233337,29.8992881 C27.0233337,28.8701549 27.9424244,28.0468483 28.9636363,28.1497616 C29.9848482,28.2526749 30.8018177,29.0759815 30.6996965,30.1051148 Z" id="路径" fill="#000000" fill-rule="nonzero"></path>
                        <path d="M35.682337,14.1410578 L24.7083333,26.7910578 L27.1863342,36.1410578 L31.6703356,30.9710578 L40.0483385,20.8510578 C41.1103388,19.6410578 40.8743388,17.7710577 39.4583382,16.7810578 L35.682337,14.1410578 Z" id="路径" fill="#000000" fill-rule="nonzero"></path>
                        <path d="M9,3 L11,3 L11,45 L9,45 L9,3 Z M23,3 L25,3 L25,45 L23,45 L23,3 Z" id="形状" fill="#000000" fill-rule="nonzero"></path>
                        <path d="M10,7 L24,7 L24,8 L10,8 L10,7 Z M10,15 L24,15 L24,16 L10,16 L10,15 Z M10,22 L24,22 L24,23 L10,23 L10,22 Z M10,28 L24,28 L24,29 L10,29 L10,28 Z M10,36 L24,36 L24,37 L10,37 L10,36 Z" id="形状" fill="#000000" fill-rule="nonzero"></path>
                    </g>
                </g>
            </g>
        </g>
    </g>
</svg>