<?xml version="1.0" encoding="UTF-8"?>
<svg width="51px" height="51px" viewBox="0 0 51 51" version="1.1" xmlns="http://www.w3.org/2000/svg" xmlns:xlink="http://www.w3.org/1999/xlink">
    <title>AI视觉计算中枢</title>
    <defs>
        <linearGradient x1="25.6077881%" y1="11.6933594%" x2="73.7611084%" y2="82.6867676%" id="linearGradient-1">
            <stop stop-color="#C6CFFF" offset="0%"></stop>
            <stop stop-color="#EED8FF" offset="99.993427%"></stop>
        </linearGradient>
    </defs>
    <g id="页面-1" stroke="none" stroke-width="1" fill="none" fill-rule="evenodd">
        <g id="三体官网-首页" transform="translate(-600.000000, -913.000000)" fill-rule="nonzero">
            <g id="编组-15" transform="translate(360.000000, 709.000000)">
                <g id="编组-16" transform="translate(21.750061, 58.120059)">
                    <g id="编组-14备份-2" transform="translate(25.000000, 146.000000)">
                        <g id="AI视觉计算中枢" transform="translate(194.000000, 0.000000)">
                            <rect id="矩形" fill="url(#linearGradient-1)" x="0" y="0" width="50" height="50" rx="25"></rect>
                            <path d="M36.1036584,11.9237457 C37.1774061,11.9237457 38.0517791,12.7862438 38.0517791,13.8462415 C38.0517791,14.9068641 37.176781,15.7687373 36.1036584,15.7687373 C35.0299108,15.7687373 34.1555377,14.9062392 34.1555377,13.8462415 C34.1555377,12.7862438 35.0299108,11.9237457 36.1036584,11.9237457 M18.1824481,22.8849715 L10.976214,22.8849715 C10.7137146,22.8874715 10.4649651,22.9905963 10.2824655,23.1705959 C10.1007873,23.3479614 9.99922889,23.5917015 10.0012162,23.8455944 C10.0012162,24.3768432 10.4380902,24.8080923 10.976214,24.8080923 L18.1824481,24.8080923 C20.5874428,24.8080923 22.5493134,22.9268464 22.6536882,20.5768516 L26.817429,20.5768516 C27.2552224,21.7010202 28.3397731,22.4397865 29.5461729,22.4355975 C31.1586694,22.4355975 32.4674165,21.1449753 32.4674165,19.5518539 C32.4674165,17.9581074 31.1592944,16.6668602 29.5461729,16.6668603 C28.2894115,16.6622227 27.1709777,17.4630827 26.7705541,18.6543559 L22.6636882,18.6543559 L22.6636882,17.3074838 C22.6636882,15.9299869 23.7986856,14.8081144 25.1949326,14.8081144 L32.3361668,14.8081144 C32.7692908,16.4662357 34.2899125,17.691858 36.1036584,17.691858 C38.2549037,17.691858 39.9998998,15.9706118 39.9998998,13.8468665 C39.9998998,11.7218712 38.2549037,10 36.1036584,10 C34.2886624,10 32.7680408,11.2268723 32.3349168,12.8849936 L25.1955576,12.8849936 C22.725563,12.8849936 20.7149425,14.8693642 20.7149425,17.3074838 L20.7149425,18.6543559 L10.975589,18.6543559 C10.7143396,18.6568559 10.4649652,18.7599806 10.2818406,18.9399802 C10.1001623,19.1173458 9.9986039,19.3610859 10.0005626,19.6149787 C10.0005626,20.1468526 10.4380902,20.5768516 10.975589,20.5768516 L20.7061925,20.5768516 C20.6061927,21.8655987 19.5143201,22.8849715 18.1830731,22.8849715 M10.974964,29.423082 L23.3105617,29.423082 C23.7489356,30.5467886 24.8331233,31.2853076 26.0393057,31.2818402 C27.6530521,31.2818402 28.9611742,29.9905808 28.9611742,28.3974593 C28.9611742,26.8037128 27.6530521,25.5124456 26.0393057,25.5124456 C24.7825443,25.5078281 23.6641105,26.3086881 23.2636868,27.4999613 L10.976214,27.4999613 C10.7137146,27.5024613 10.4643401,27.605586 10.2818406,27.7862107 C10.0997754,27.9636214 9.99797231,28.2076328 9.99993742,28.4618342 C9.99993742,28.993083 10.4374652,29.423082 10.974964,29.423082 M36.1030334,38.0774379 C35.0292858,38.0774379 34.1549127,37.2149398 34.1549127,36.1536922 C34.1549127,35.0930695 35.0292858,34.2311964 36.1030334,34.2311964 C37.1767811,34.2311964 38.0511541,35.0936945 38.0511541,36.1536922 C38.0511541,37.2149398 37.1761561,38.0761879 36.1030334,38.0761879 M36.1030334,32.3074507 C34.2880375,32.3074507 32.7674158,33.5349479 32.3342918,35.1924443 L30.2124215,35.1924443 C28.895767,35.1906949 27.5958599,34.8972019 26.4061799,34.3330712 L23.1436871,32.7805746 C21.6892011,32.0913764 20.1000818,31.7329974 18.4905724,31.7312019 L10.974964,31.7312019 C10.7130896,31.7337019 10.4637151,31.8368267 10.2812155,32.0168263 C10.0993801,32.1943426 9.99780831,32.4383406 9.99993247,32.6924498 C9.99993247,33.2236986 10.4368402,33.6536977 10.974964,33.6536977 L18.4886974,33.6536977 C19.7993195,33.6536977 21.1149416,33.951197 22.294939,34.5136958 L25.5593068,36.0661923 C27.013706,36.7549273 28.6025639,37.113082 30.2117965,37.11494 L32.3355418,37.11494 C32.7680408,38.7730614 34.2886624,39.9999336 36.1024085,39.9999336 C38.2542787,39.9999336 39.9986498,38.2780625 39.9986498,36.1536922 C39.9986498,34.0293219 38.2542787,32.3080757 36.1024085,32.3080757" id="形状" fill="#1C4194"></path>
                        </g>
                    </g>
                </g>
            </g>
        </g>
    </g>
</svg>