<?xml version="1.0" encoding="UTF-8"?>
<svg width="85px" height="85px" viewBox="0 0 85 85" version="1.1" xmlns="http://www.w3.org/2000/svg" xmlns:xlink="http://www.w3.org/1999/xlink">
    <title>AI边缘智能终端</title>
    <g id="页面-1" stroke="none" stroke-width="1" fill="none" fill-rule="evenodd">
        <g id="三体官网-首页" transform="translate(-1277.000000, -1444.000000)" fill-rule="nonzero">
            <g id="编组-9" transform="translate(0.000000, 1369.000000)">
                <g id="编组-8" transform="translate(510.000000, 75.000000)">
                    <g id="编组-7备份-2" transform="translate(720.000000, 0.000000)">
                        <g id="AI边缘智能终端" transform="translate(47.000000, 0.000000)">
                            <rect id="矩形" fill="#000000" opacity="0" x="0" y="0" width="85" height="85"></rect>
                            <path d="M59.88675,45.8556786 C59.8831586,42.945354 57.5694642,40.5636573 54.6604643,40.4757857 L54.8031429,49.8695 L59.9505,49.8695 C59.9095417,49.7449091 59.889038,49.6145056 59.8897857,49.4833571 L59.88675,45.8556786 Z" id="路径" fill="#3D3D3D"></path>
                            <path d="M42.5,0 C19.0278571,0 0,19.0278571 0,42.5 C0,65.9721429 19.0278571,85 42.5,85 C65.9721429,85 85,65.9721429 85,42.5 C85,19.0278571 65.9721429,0 42.5,0 Z M65.6321429,64.7153571 C65.6321429,65.7213043 64.8166615,66.5367857 63.8107143,66.5367857 L21.1892857,66.5367857 C20.1833385,66.5367857 19.3678571,65.7213043 19.3678571,64.7153571 L19.3678571,20.2834286 C19.3678571,19.2774813 20.1833385,18.462 21.1892857,18.462 L52.8098929,18.462 C53.8158401,18.462 54.6313214,19.2774813 54.6313214,20.2834286 L54.6313214,38.046 C58.8813214,38.1146071 62.3153214,41.5911071 62.3153214,45.8556786 L62.3153214,49.4821429 C62.3160691,49.6132913 62.2955654,49.7436948 62.2546071,49.8682857 L63.8107143,49.8682857 C64.2937872,49.8682857 64.7570747,50.0601856 65.0986588,50.4017698 C65.440243,50.7433539 65.6321429,51.2066414 65.6321429,51.6897143 L65.6321429,64.7153571 Z" id="形状" fill="#3D3D3D"></path>
                            <path d="M54.5038214,40.4733571 C51.5326344,40.4767031 49.1248459,42.8844915 49.1215,45.8556786 L49.1215,49.4821429 C49.1222476,49.6132913 49.1017439,49.7436948 49.0607857,49.8682857 L54.8061786,49.8682857 L54.6635,40.4745714 C54.6088571,40.4739643 54.5566429,40.4733571 54.5038214,40.4733571 L54.5038214,40.4733571 Z" id="路径" fill="#6A89D8"></path>
                            <path d="M43.2243214,64.7153571 L43.2243214,51.6909286 C43.2243214,50.6849813 44.0398028,49.8695 45.04575,49.8695 L46.7566786,49.8695 C46.7146893,49.7450794 46.6931597,49.6146717 46.6929286,49.4833571 L46.6929286,45.8556786 C46.6976132,41.5437835 50.1919264,38.0494703 54.5038214,38.0447857 L54.6313214,38.0447857 L54.6313214,20.2834286 C54.6313214,19.2774813 53.8158401,18.462 52.8098929,18.462 L21.1892857,18.462 C20.1833385,18.462 19.3678571,19.2774813 19.3678571,20.2834286 L19.3678571,64.7165714 C19.3678571,65.7225187 20.1833385,66.538 21.1892857,66.538 L55.0563214,66.538 L45.04575,66.538 C44.5624666,66.538 44.098995,66.3459335 43.757376,66.0040867 C43.415757,65.6622399 43.2239992,65.1986404 43.2243214,64.7153571 Z M25.0470714,41.9402143 C25.0470714,42.6108458 24.5034172,43.1545 23.8327857,43.1545 C23.1621542,43.1545 22.6185,42.6108458 22.6185,41.9402143 L22.6185,40.1187857 C22.6185,39.4481542 23.1621542,38.9045 23.8327857,38.9045 C24.5034172,38.9045 25.0470714,39.4481542 25.0470714,40.1187857 L25.0470714,41.9402143 Z" id="形状" fill="#6A89D8"></path>
                            <path d="M46.6929286,45.8556786 L46.6929286,49.4821429 C46.6931597,49.6134574 46.7146893,49.7438651 46.7566786,49.8682857 L49.0571429,49.8682857 C49.0981011,49.7436948 49.1186048,49.6132913 49.1178571,49.4821429 L49.1178571,45.8556786 C49.1212031,42.8844915 51.5289915,40.4767031 54.5001786,40.4733571 L54.6568214,40.4733571 C57.5658213,40.5612287 59.8795157,42.9429255 59.8831071,45.85325 L59.8831071,49.4821429 C59.8823595,49.6132913 59.9028632,49.7436948 59.9438214,49.8682857 L62.2448929,49.8682857 C62.2858511,49.7436948 62.3063548,49.6132913 62.3056269,49.4821429 L62.3056269,45.8556786 C62.3056269,41.5911071 58.8703928,38.1146071 54.6216071,38.046 L54.4941071,38.046 C50.1864795,38.0560308 46.6982684,41.5480426 46.6929286,45.8556786 Z" id="路径" fill="#FFFFFF"></path>
                            <path d="M63.8107143,49.8695 L45.04575,49.8695 C44.0398028,49.8695 43.2243214,50.6849813 43.2243214,51.6909286 L43.2243214,64.7153571 C43.2243214,65.7213043 44.0398028,66.5367857 45.04575,66.5367857 L63.8107143,66.5367857 C64.8166615,66.5367857 65.6321429,65.7213043 65.6321429,64.7153571 L65.6321429,51.6909286 C65.6321429,50.6849813 64.8166615,49.8695 63.8107143,49.8695 Z M55.5645,56.9815714 C55.5645,56.9943214 55.5681429,57.0064643 55.5693571,57.0192143 L55.7108214,58.8351786 C55.7445511,59.2676996 55.5449714,59.6853601 55.1872621,59.9308314 C54.8295527,60.1763027 54.3680583,60.2122919 53.9766192,60.0252421 C53.5851801,59.8381924 53.3232654,59.456521 53.2895357,59.024 L53.1480714,57.2080357 C53.1401252,57.1030856 53.1460452,56.997546 53.1656786,56.8941429 C52.5437266,56.3608919 52.3269186,55.4926944 52.6251573,54.7296515 C52.923396,53.9666086 53.6714782,53.4755428 54.4901909,53.505382 C55.3089036,53.5352211 56.0192532,54.0794416 56.261154,54.8621707 C56.5030548,55.6448998 56.2236205,56.495011 55.5645,56.9815714 L55.5645,56.9815714 Z" id="形状" fill="#9FB5ED"></path>
                            <path d="M23.8327857,38.9045 C23.1621542,38.9045 22.6185,39.4481542 22.6185,40.1187857 L22.6185,41.9402143 C22.6185,42.6108458 23.1621542,43.1545 23.8327857,43.1545 C24.5034172,43.1545 25.0470714,42.6108458 25.0470714,41.9402143 L25.0470714,40.1187857 C25.0470714,39.7967371 24.9191381,39.4878788 24.6914154,39.260156 C24.4636926,39.0324333 24.1548343,38.9045 23.8327857,38.9045 Z M54.4194286,53.50325 C53.6127265,53.5030733 52.8912871,54.0053842 52.6115271,54.7620233 C52.3317671,55.5186623 52.5529001,56.3694803 53.1656786,56.8941429 C53.1460452,56.997546 53.1401252,57.1030856 53.1480714,57.2080357 L53.2895357,59.024 C53.3416773,59.6926196 53.9259697,60.1923737 54.5945893,60.1402321 C55.2632088,60.0880905 55.762963,59.5037981 55.7108214,58.8351786 L55.5693571,57.0192143 C55.5693571,57.0064643 55.5657142,56.9943214 55.5645,56.9815714 C56.2340351,56.487104 56.5105919,55.6187479 56.2503268,54.8281549 C55.9900618,54.0375618 55.2517598,53.50325 54.4194286,53.50325 L54.4194286,53.50325 Z" id="形状" fill="#FFFFFF"></path>
                        </g>
                    </g>
                </g>
            </g>
        </g>
    </g>
</svg>