<?xml version="1.0" encoding="UTF-8"?>
<svg width="51px" height="51px" viewBox="0 0 51 51" version="1.1" xmlns="http://www.w3.org/2000/svg" xmlns:xlink="http://www.w3.org/1999/xlink">
    <title>AI智能推理应用平台</title>
    <defs>
        <linearGradient x1="26.9941406%" y1="0%" x2="82.0891113%" y2="89.3653564%" id="linearGradient-1">
            <stop stop-color="#C6CFFF" offset="0%"></stop>
            <stop stop-color="#EED8FF" offset="100%"></stop>
        </linearGradient>
    </defs>
    <g id="页面-1" stroke="none" stroke-width="1" fill="none" fill-rule="evenodd">
        <g id="三体官网-首页" transform="translate(-626.000000, -1155.000000)" fill-rule="nonzero">
            <g id="编组-15" transform="translate(360.000000, 709.000000)">
                <g id="编组-16" transform="translate(21.750061, 58.120059)">
                    <g id="编组-14备份-3" transform="translate(0.000000, 388.000000)">
                        <g id="AI智能推理应用平台" transform="translate(245.000000, 0.000000)">
                            <rect id="矩形" fill="url(#linearGradient-1)" x="0" y="0" width="50" height="50" rx="25"></rect>
                            <path d="M36.3925712,33.5340465 L39.4063201,36.5472214 C40.1978933,37.3386621 40.1978933,38.6154181 39.4063201,39.4068588 C39.0291194,39.7863546 38.5143395,40 37.9771429,40 C37.4399462,40 36.9251664,39.7863546 36.5479656,39.4068588 L33.5342168,36.3924043 C32.7434964,35.601114 32.7434964,34.3253368 33.5342168,33.5340465 C33.911504,33.1547107 34.4262515,32.9411765 34.963394,32.9411765 C35.5005365,32.9411765 36.015284,33.1547107 36.3925712,33.5340465 L36.3925712,33.5340465 Z M23.2334454,10 C30.5317453,10 36.4705882,16.1360718 36.4705882,23.6780503 C36.4705882,29.1538198 33.3252262,34.0880784 28.4537357,36.2509631 C28.350205,36.2939301 28.2429768,36.3204686 28.134516,36.3267873 L28.0556354,36.3590126 C27.5568876,36.554084 26.9981837,36.299009 26.8058717,35.7884356 C26.6142166,35.2747268 26.8613346,34.6953036 27.3580356,34.4968971 C28.6391143,33.987558 29.6673925,32.9726047 30.2125256,31.6793969 C30.7703233,30.3861936 30.8027011,28.9184275 30.3024987,27.6006879 C29.273354,24.85838 26.2795905,23.4948085 23.6284644,24.5550833 C23.5890688,24.5707997 23.5487225,24.5838857 23.5076785,24.5942591 L23.6956361,24.5102207 C22.795204,24.9278232 21.8183134,25.1438762 20.8300535,25.1439844 C19.9666812,25.1439844 19.1033089,24.978435 18.2750631,24.6479679 C16.5076457,23.9453305 15.1124459,22.5697535 14.3452092,20.779671 C13.8759626,19.6908851 13.6716723,18.5015237 13.7499076,17.3138741 C12.5609462,19.2112785 11.9300298,21.4196067 11.9325736,23.6748909 C11.9325736,30.1174188 17.0043466,35.3556059 23.2365266,35.3556059 C23.7714354,35.3556059 24.2015809,35.8036004 24.2015809,36.3526939 C24.2015809,36.9024192 23.7714354,37.3529412 23.2365266,37.3529412 C15.9382267,37.3535731 10,31.2181331 10,23.6748909 C10,18.4228027 12.885919,13.6787365 17.4141558,11.3888463 C17.5885557,11.2902748 17.768502,11.1986539 17.9521458,11.1146155 C18.0137712,11.0861814 18.0778617,11.0646979 18.1413359,11.0507968 L18.0797104,11.0754396 C18.3160023,10.9718914 18.5828517,10.9694466 18.8209104,11.0686491 C19.058969,11.1678515 19.2484981,11.3604758 19.3473456,11.6036814 C19.5568721,12.1117035 19.3270092,12.6968134 18.8358545,12.9135441 C18.6428499,12.997863 18.4521494,13.0876224 18.2639705,13.18272 C17.2300655,13.7922447 16.4339427,14.7500951 16.0109447,15.8934344 C15.51417,17.2120088 15.5485287,18.6789091 16.1064641,19.9715116 C16.6558034,21.2630288 17.6853818,22.2761574 18.9665004,22.7858524 C20.241523,23.2992832 21.6646519,23.2635154 22.9136094,22.6866491 C22.9801648,22.6563195 23.0485691,22.6342041 23.1169733,22.620303 C26.7152823,21.2946435 30.7153891,23.1744513 32.1044263,26.8765669 C32.520398,27.9842318 32.6670666,29.1519242 32.5481295,30.2993968 C33.8471478,28.347229 34.54054,26.0381492 34.5373984,23.6748909 C34.5373984,17.2355224 29.4656254,11.9941759 23.2334454,11.9941759 C22.9764651,11.9933399 22.7303524,11.8877791 22.5493339,11.7007519 C22.3683154,11.5137247 22.2672448,11.260578 22.2683911,10.997088 C22.2683911,10.4473627 22.7016179,10 23.2334454,10 Z" id="形状" fill="#1C4194"></path>
                        </g>
                    </g>
                </g>
            </g>
        </g>
    </g>
</svg>