<svg id="图层_1" data-name="图层 1" xmlns="http://www.w3.org/2000/svg" viewBox="0 0 917 200"><defs><style>.cls-1{font-size:149.98px;font-family:DFHuaZong-W5-WINP-BF, DFHuaZong W5-WINP-BF;letter-spacing:0.2em;}.cls-1,.cls-2{fill:#fff;}.cls-3{fill:#c0a4ff;}</style></defs><title>logo</title><text class="cls-1" transform="translate(232.41 145.11) scale(0.95 1)">三体科技</text><path class="cls-2" d="M148.93,124c0,41.9-32.42,76-72.26,76S4.41,165.92,4.41,124c0-12.22,9.44-22.14,21.06-22.14S46.52,111.8,46.52,124c0,17.48,13.53,31.7,30.15,31.7s30.15-14.22,30.15-31.7c0-14.64-9.49-27-22.35-30.61l27.75-35.49C134.12,71,148.93,95.71,148.93,124Z"/><path class="cls-3" d="M144.4,0V0L134,13.3,72.35,92.14V44.31H56.1V14.81H42.05V0H56.1V14.77h14V0h2.25V0ZM28.05,0H0V29.58H14V14.86H28V29.58H14V44.31H42.05V14.81h-14Zm114,44.18H135.6V37.43h-6.45v6.79h-6.46V51h6.46v6.78h6.45V51h6.46Z"/></svg>