<?xml version="1.0" encoding="UTF-8"?>
<svg width="17px" height="20px" viewBox="0 0 17 20" version="1.1" xmlns="http://www.w3.org/2000/svg" xmlns:xlink="http://www.w3.org/1999/xlink">
    <title>电话</title>
    <g id="页面-1" stroke="none" stroke-width="1" fill="none" fill-rule="evenodd">
        <g id="三体官网-首页" transform="translate(-361.000000, -3151.000000)" fill="#666666" fill-rule="nonzero">
            <g id="底部" transform="translate(0.000000, 3000.000000)">
                <g id="编组-11备份-3" transform="translate(361.000000, 70.000000)">
                    <g id="电话" transform="translate(0.500000, 81.000000)">
                        <path d="M3.11196667,1.76173333 C0.1757,3.95256665 -0.188033326,8.75956665 2.42373333,13.6050667 C4.9761,18.3394667 9.0208,20.8548 13.203,19.5634 C14.2901667,19.2279 15.3333333,18.2987667 15.3333333,17.2523 C15.3337,15.4332667 13.2521333,11.8109667 11.6930667,11.5297333 C11.2556333,11.4512667 10.7269,11.6089333 9.9404,11.9484667 C9.859,11.9836667 9.7754,12.0207 9.6896,12.0595667 L9.4938,12.1497667 C9.3024,12.2388667 9.14143333,12.3169667 8.8679,12.4522667 L8.7502,12.5102 L8.7447,12.5050667 C8.69520774,12.4570941 8.64762634,12.4071887 8.60206667,12.3554667 C8.37656667,12.101 8.11073335,11.7262667 7.8427,11.2855333 L7.76496667,11.1557333 C7.4049,10.5470667 7.08516667,9.8922 6.87726667,9.3466 L6.85783333,9.29416667 L7.35466667,9.0815 C7.45733335,9.0375 7.55523335,8.99386667 7.6579,8.94803333 L7.94756667,8.81713333 L8.1705,8.71336667 C8.73516667,8.44606667 9.0703,8.25246667 9.25876667,8.0475 C10.3356667,6.87526667 8.20093333,1.21466667 6.44936667,0.888333326 C5.4073,0.694 4.14816667,1.03243333 3.21426667,1.68766667 L3.1116,1.76173333 L3.11196667,1.76173333 Z M6.1806,2.33006667 C6.40426667,2.37186667 7.0562,3.37873335 7.5457,4.67673333 C7.79026667,5.32463333 7.97543333,5.9784 8.06196667,6.4943 L8.07663333,6.58376667 C8.10011376,6.72930019 8.11285925,6.8763635 8.11476667,7.02376667 L8.11256667,7.09123333 L8.02016667,7.1444 L7.96956667,7.17263333 C7.8075,7.26063333 7.593,7.36586665 7.3345,7.48466667 L6.90916667,7.6757 C6.75883335,7.7417 6.60703335,7.8077 6.42113333,7.88653333 L5.74646667,8.17363333 L5.646,8.22056667 L5.61226667,8.23853333 L5.5932,8.21946667 C5.55286667,8.19196667 5.51803333,8.29023335 5.24963333,9.05253333 C5.69513333,10.9606667 7.57723333,14.0571667 8.73296667,14.059 L8.8756,14.0432333 C8.90603333,14.0395667 8.92326667,14.0362667 8.93903333,14.0318667 L9.03656667,13.9970333 L9.12053333,13.9607333 L9.42303333,13.8140667 L9.93746667,13.5621667 C10.0166667,13.5244 10.0914667,13.4888333 10.1750667,13.4503333 L10.4097333,13.344 L10.5219333,13.2948667 C10.7456763,13.1954057 10.9748385,13.108613 11.2083333,13.0349 L11.2901,13.0121667 C11.3891,12.9857667 11.4477667,12.9758667 11.4331,12.9733 C12.1664333,13.1053 13.8670333,16.0643 13.8666667,17.2523 C13.8666667,17.5016333 13.3137333,17.9944333 12.7703333,18.1623667 C9.375,19.2106667 5.97086665,17.0939 3.71476667,12.9087667 C1.4143,8.64186667 1.71826667,4.63163335 3.98903333,2.93726667 C4.62116665,2.46536667 5.5294,2.2087 6.1806,2.33006667 L6.1806,2.33006667 Z" id="形状"></path>
                        <path d="M11.3968,0.631666674 C13.3944,2.25966667 13.9781333,4.74236667 13.1135333,7.19243333 L13.0658667,7.3237 L11.6923333,6.80963333 C12.3978,4.92386665 12.0113333,3.0887 10.5637333,1.8468 L10.4698667,1.76833333 L11.3968,0.631666674 Z" id="路径"></path>
                    </g>
                </g>
            </g>
        </g>
    </g>
</svg>