<?xml version="1.0" encoding="UTF-8"?>
<svg width="45px" height="45px" viewBox="0 0 45 45" version="1.1" xmlns="http://www.w3.org/2000/svg" xmlns:xlink="http://www.w3.org/1999/xlink">
    <title>兼容性强</title>
    <defs>
        <linearGradient x1="25.6077881%" y1="11.6933594%" x2="73.7611084%" y2="82.6867676%" id="linearGradient-1">
            <stop stop-color="#C6CFFF" offset="0%"></stop>
            <stop stop-color="#EED8FF" offset="99.993427%"></stop>
        </linearGradient>
        <rect id="path-2" x="0" y="0" width="45" height="45" rx="22.5"></rect>
    </defs>
    <g id="页面-1" stroke="none" stroke-width="1" fill="none" fill-rule="evenodd">
        <g id="三体官网-核心产品-AI边缘计算服务器" transform="translate(-1031.000000, -1914.000000)">
            <g id="编组-8备份-3" transform="translate(361.000000, 1575.000000)">
                <g id="编组-6备份-3" transform="translate(610.000000, 292.000000)">
                    <g id="兼容性强" transform="translate(60.000000, 47.000000)">
                        <mask id="mask-3" fill="white">
                            <use xlink:href="#path-2"></use>
                        </mask>
                        <use id="蒙版" fill="url(#linearGradient-1)" xlink:href="#path-2"></use>
                        <g id="兼容性" mask="url(#mask-3)" fill-rule="nonzero">
                            <g transform="translate(10.000000, 10.000000)">
                                <rect id="矩形" fill="#000000" opacity="0" x="0" y="0" width="25" height="25"></rect>
                                <path d="M7.03125,10.15625 L7.03125,15.7234375 C8.1320027,16.0086574 8.99153409,16.8683383 9.2765625,17.9691406 L14.453125,17.96875 L14.453125,19.53125 L9.2765625,19.53125 C8.89518049,21.0061791 7.50582998,21.9911617 5.98780608,21.8628199 C4.46978217,21.7344781 3.26552191,20.5302178 3.13718008,19.0121939 C3.00883826,17.49417 3.99382087,16.1048195 5.46875,15.7234375 L5.46875,10.15625 L7.03125,10.15625 Z M6.25,17.1875 C5.38705508,17.1875 4.6875,17.8870551 4.6875,18.75 C4.6875,19.6129449 5.38705508,20.3125 6.25,20.3125 C7.11294492,20.3125 7.8125,19.6129449 7.8125,18.75 C7.8125,17.8870551 7.11294492,17.1875 6.25,17.1875 Z M18.75,3.12499845 C20.3248419,3.12344351 21.654776,4.29399119 21.8531877,5.85628509 C22.0515995,7.41857899 21.0564859,8.88440832 19.53125,9.2765625 L19.53125,14.84375 L17.96875,14.84375 L17.96875,9.2765625 C16.8682487,8.99128748 16.0089117,8.13180094 15.7238281,7.03125 L10.546875,7.03125 L10.546875,5.46875 L15.7234375,5.46875 C16.0703125,4.12109375 17.29375,3.12499845 18.75,3.12499845 Z M18.75,4.6875 C17.8870551,4.6875 17.1875,5.38705508 17.1875,6.25 C17.1875,7.11294492 17.8870551,7.8125 18.75,7.8125 C19.6129449,7.8125 20.3125,7.11294492 20.3125,6.25 C20.3125,5.38705508 19.6129449,4.6875 18.75,4.6875 Z" id="形状" fill="#FFFFFF"></path>
                                <path d="M21.875,14.0625 C22.7379449,14.0625 23.4375,14.7620551 23.4375,15.625 L23.4375,21.875 C23.4375,22.7379449 22.7379449,23.4375 21.875,23.4375 L15.625,23.4375 C14.7620551,23.4375 14.0625,22.7379449 14.0625,21.875 L14.0625,15.625 C14.0625,14.7620551 14.7620551,14.0625 15.625,14.0625 L21.875,14.0625 Z M21.875,15.625 L15.625,15.625 L15.625,21.875 L21.875,21.875 L21.875,15.625 Z M9.375,1.5625 C10.2379449,1.5625 10.9375,2.26205508 10.9375,3.125 L10.9375,9.375 C10.9375,10.2379449 10.2379449,10.9375 9.375,10.9375 L3.125,10.9375 C2.26205508,10.9375 1.5625,10.2379449 1.5625,9.375 L1.5625,3.125 C1.5625,2.26205508 2.26205508,1.5625 3.125,1.5625 L9.375,1.5625 Z M9.375,3.125 L3.125,3.125 L3.125,9.375 L9.375,9.375 L9.375,3.125 Z" id="形状" fill="#FFFFFF"></path>
                            </g>
                        </g>
                    </g>
                </g>
            </g>
        </g>
    </g>
</svg>