<?xml version="1.0" encoding="UTF-8"?>
<svg width="65px" height="65px" viewBox="0 0 65 65" version="1.1" xmlns="http://www.w3.org/2000/svg" xmlns:xlink="http://www.w3.org/1999/xlink">
    <title>推广支持</title>
    <defs>
        <linearGradient x1="25.6077881%" y1="11.6933594%" x2="73.7611084%" y2="82.6867676%" id="linearGradient-1">
            <stop stop-color="#C6CFFF" offset="0%"></stop>
            <stop stop-color="#EED8FF" offset="99.993427%"></stop>
        </linearGradient>
        <rect id="path-2" x="0" y="0" width="65" height="65" rx="32.5"></rect>
    </defs>
    <g id="页面-1" stroke="none" stroke-width="1" fill="none" fill-rule="evenodd">
        <g id="三体官网-关于我们" transform="translate(-1335.000000, -1730.000000)">
            <g id="编组-8备份-2" transform="translate(359.000000, 1317.000000)">
                <g id="编组-3备份-5" transform="translate(816.000000, 381.000000)">
                    <g id="推广支持" transform="translate(160.000000, 32.000000)">
                        <mask id="mask-3" fill="white">
                            <use xlink:href="#path-2"></use>
                        </mask>
                        <use id="蒙版" fill="url(#linearGradient-1)" xlink:href="#path-2"></use>
                        <g id="9_4应用推广" mask="url(#mask-3)" fill-rule="nonzero">
                            <g transform="translate(12.000000, 12.000000)">
                                <rect id="矩形" fill="#000000" opacity="0" x="0" y="0" width="40" height="40"></rect>
                                <path d="M20,4.53333332 L33.4,12.2666667 L33.4,27.7333333 L20,35.4666667 L6.6,27.7333333 L6.6,12.2666667 L20,4.53333332 M20,2.22222223 C19.7127583,2.22222223 19.4305536,2.29766439 19.1814815,2.44074074 L5.1851852,10.5111111 C4.67843567,10.803683 4.36666648,11.3444858 4.36666648,11.9296296 L4.36666648,28.0703704 C4.36666648,28.6555142 4.67843567,29.196317 5.1851852,29.4888889 L19.1666667,37.5592593 C19.6745175,37.8515875 20.2995566,37.8515875 20.8074074,37.5592593 L34.8148148,29.4888889 C35.3215643,29.196317 35.6333335,28.6555142 35.6333335,28.0703704 L35.6333335,11.9333333 C35.6319066,11.347679 35.3204835,10.8065637 34.8148148,10.5111111 L20.8185185,2.44074074 C20.5694464,2.29766439 20.2872417,2.22222223 20,2.22222223 Z" id="形状" fill="#FFFFFF"></path>
                                <path d="M30.1333333,14.4777778 L21.2703704,21.1111111 L21.2703704,30.6407407 C21.2703703,31.3423469 20.7016062,31.911111 20,31.911111 C19.2983938,31.911111 18.7296297,31.3423469 18.7296296,30.6407407 L18.7296296,21.1703704 L9.92222223,15.2962963 C9.36594202,14.8966889 9.22660824,14.1280242 9.60723228,13.5585866 C9.98785631,12.9891491 10.751386,12.8239774 11.3333333,13.1851852 L19.9555555,18.937037 L28.6111111,12.4481482 C28.973512,12.1629421 29.4620142,12.0965335 29.8874001,12.2746451 C30.312786,12.4527567 30.608238,12.8474117 30.6593153,13.3057435 C30.7103925,13.7640753 30.5090718,14.2140913 30.1333333,14.4814815 L30.1333333,14.4777778 Z" id="路径" fill="#FFFFFF"></path>
                            </g>
                        </g>
                    </g>
                </g>
            </g>
        </g>
    </g>
</svg>