<?xml version="1.0" encoding="UTF-8"?>
<svg width="20px" height="20px" viewBox="0 0 20 20" version="1.1" xmlns="http://www.w3.org/2000/svg" xmlns:xlink="http://www.w3.org/1999/xlink">
    <title>留言内容</title>
    <defs>
        <filter id="filter-1">
            <feColorMatrix in="SourceGraphic" type="matrix" values="0 0 0 0 0.400000 0 0 0 0 0.400000 0 0 0 0 0.400000 0 0 0 1.000000 0"></feColorMatrix>
        </filter>
    </defs>
    <g id="页面-1" stroke="none" stroke-width="1" fill="none" fill-rule="evenodd">
        <g id="三体官网-关于我们" transform="translate(-378.000000, -2871.000000)">
            <g id="编组-8备份-4" transform="translate(359.000000, 2460.000000)">
                <g id="编组-8" transform="translate(0.000000, 92.000000)">
                    <g id="留言内容" transform="translate(0.000000, 258.000000)" filter="url(#filter-1)">
                        <g transform="translate(19.000000, 61.000000)">
                            <rect id="矩形" fill="#000000" fill-rule="nonzero" opacity="0" x="0" y="0" width="20" height="20"></rect>
                            <path d="M9.98769531,18.7674414 C9.81332031,18.7674414 9.6428125,18.6995898 9.50853516,18.5600195 L7.4828125,16.4564453 C7.35978516,16.327832 7.28404297,16.1530859 7.28404297,15.9606445 C7.28404297,15.7682031 7.35976562,15.593457 7.48306641,15.4645898 C7.74789063,15.1895898 8.17257812,15.1895898 8.43748047,15.4648633 L9.98751953,17.074668 L11.5373828,15.4648633 C11.6582422,15.3373047 11.8287305,15.2578516 12.0177734,15.2574414 L16.7425977,15.2574414 C17.1164844,15.2574414 17.4177734,14.9445508 17.4177734,14.5560742 L17.4177734,3.33613281 C17.4177734,2.95152344 17.1164844,2.63476562 16.7427734,2.63476562 L3.23941406,2.63476562 C2.86923828,2.63476562 2.56441406,2.95152344 2.56441406,3.33613281 L2.56441406,14.55625 C2.56441406,14.9445508 2.86921875,15.2576172 3.23941406,15.2576172 L5.26494141,15.2576172 C5.63882813,15.2576172 5.94011719,15.5705078 5.94011719,15.9586328 C5.94011719,16.3471094 5.63882813,16.66 5.26511719,16.66 L3.23939453,16.66 C2.12160156,16.66 1.21439453,15.7174609 1.21439453,14.55625 L1.21439453,3.33613281 C1.21439453,2.17494141 2.12140625,1.23238281 3.23939453,1.23238281 L16.7429102,1.23238281 C17.8608984,1.23238281 18.7684375,2.17492187 18.7684375,3.33613281 L18.7684375,14.55625 C18.7684375,15.7174414 17.8608789,16.66 16.7429102,16.66 L12.2924805,16.66 L10.4666406,18.5601953 C10.3453906,18.6875586 10.1748047,18.7669531 9.98564453,18.7676367 L9.98769531,18.7674414 Z" id="路径" stroke="#123D82" stroke-width="0.4" fill="#000000" fill-rule="nonzero"></path>
                            <path d="M6.27431641,9.64740234 C5.71533203,9.64740234 5.26146484,9.17628906 5.26146484,8.59552734 C5.26146484,8.01492188 5.71533203,7.54365234 6.27431641,7.54365234 C6.83330078,7.54365234 7.28699219,8.01490234 7.28699219,8.59552734 C7.28699219,9.17615234 6.83332031,9.64740234 6.27431641,9.64740234 Z M10.3251953,9.64740234 C9.76621094,9.64740234 9.31251953,9.17628906 9.31251953,8.59552734 C9.31251953,8.01492188 9.76619141,7.54365234 10.3251953,7.54365234 C10.8841992,7.54365234 11.3378711,8.01490234 11.3378711,8.59552734 C11.3378711,9.17615234 10.8843555,9.64740234 10.3253711,9.64740234 L10.3251953,9.64740234 Z M14.3797656,9.64740234 C13.8207812,9.64740234 13.3670898,9.17628906 13.3670898,8.59552734 C13.3670898,8.01492188 13.8207617,7.54365234 14.3797656,7.54365234 C14.9387695,7.54365234 15.3924414,8.01490234 15.3924414,8.59552734 C15.3924414,9.17615234 14.9352539,9.64740234 14.3799414,9.64740234 L14.3797656,9.64740234 Z" id="形状" fill="#000000" fill-rule="nonzero"></path>
                        </g>
                    </g>
                </g>
            </g>
        </g>
    </g>
</svg>