<?xml version="1.0" encoding="UTF-8"?>
<svg width="20px" height="20px" viewBox="0 0 20 20" version="1.1" xmlns="http://www.w3.org/2000/svg" xmlns:xlink="http://www.w3.org/1999/xlink">
    <title>联系电话</title>
    <defs>
        <filter id="filter-1">
            <feColorMatrix in="SourceGraphic" type="matrix" values="0 0 0 0 0.400000 0 0 0 0 0.400000 0 0 0 0 0.400000 0 0 0 1.000000 0"></feColorMatrix>
        </filter>
    </defs>
    <g id="页面-1" stroke="none" stroke-width="1" fill="none" fill-rule="evenodd">
        <g id="三体官网-关于我们" transform="translate(-1005.000000, -2613.000000)">
            <g id="编组-8备份-4" transform="translate(359.000000, 2460.000000)">
                <g id="编组-8" transform="translate(0.000000, 92.000000)">
                    <g id="联系电话" transform="translate(625.000000, 0.000000)" filter="url(#filter-1)">
                        <g transform="translate(21.000000, 61.000000)">
                            <rect id="矩形" fill="#000000" fill-rule="nonzero" opacity="0" x="0" y="0" width="20" height="20"></rect>
                            <path d="M4.58332496,17.2722222 C4.58229998,17.512583 4.67686893,17.7434936 4.84620482,17.9140799 C5.01554072,18.0846663 5.24574927,18.1809316 5.48611111,18.1816667 L14.5138889,18.1816667 C14.7541541,18.1809313 14.9842781,18.0847423 15.153598,17.9142762 C15.3229179,17.7438102 15.4175522,17.5130425 15.4166728,17.2727778 L15.4166728,2.72722223 C15.4175522,2.48695753 15.3229179,2.25618981 15.153598,2.08572375 C14.9842781,1.91525769 14.7541541,1.81906872 14.5138889,1.81833334 L5.48611111,1.81833334 C5.24584591,1.81906872 5.01572188,1.91525769 4.84640198,2.08572375 C4.67708208,2.25618981 4.5824478,2.48695753 4.58332496,2.72722223 L4.58332496,12.7272222 L12.7083333,12.7272222 C13.0305556,12.7272222 13.3288889,12.9005556 13.49,13.1816667 C13.6511111,13.4633333 13.6511111,13.8094444 13.49,14.0911111 C13.3288889,14.3722222 13.0311111,14.5455556 12.7083333,14.5455555 L4.58332496,14.5455555 L4.58332496,17.2727778 L4.58332496,17.2722222 Z M5.48611111,20 C3.99055555,20 2.77777777,18.7788889 2.77777777,17.2722222 L2.77777777,2.72777777 C2.77777777,1.22055555 3.99055555,0 5.48611111,0 L14.5138889,0 C16.0094445,0 17.2222222,1.22111111 17.2222222,2.72777777 L17.2222222,17.2722222 C17.2222222,18.7788889 16.0094445,20 14.5138889,20 L5.48611111,20 Z M8.19443607,16.3638889 C8.1934111,16.1235281 8.28798004,15.8926176 8.45731594,15.7220312 C8.62665183,15.5514448 8.85686038,15.4551795 9.09722223,15.4544445 L10.9027778,15.4544445 C11.225,15.4544445 11.5233333,15.6277778 11.6844445,15.9088889 C11.8455556,16.1905555 11.8455556,16.5366667 11.6844445,16.8183333 C11.5233333,17.0994445 11.2255556,17.2727778 10.9027778,17.2727778 L9.09722223,17.2727778 C8.85695703,17.2720424 8.62683299,17.1758534 8.45751309,17.0053874 C8.2881932,16.8349213 8.19355891,16.6041536 8.19443607,16.3638889 L8.19443607,16.3638889 Z" id="形状" fill="#000000" fill-rule="nonzero"></path>
                        </g>
                    </g>
                </g>
            </g>
        </g>
    </g>
</svg>