<svg id="图层_1" data-name="图层 1" xmlns="http://www.w3.org/2000/svg" viewBox="0 0 342.76 74.75" width="184px" height="40px"><title>logo</title><path d="M127.39,31.43l1-1.36h8.19L136,31.43h27.69v6.83H133l-4.48,8.58H138.9V40.79h7.41v6.05h17v6.82h-17V70.24c.25,3.25-1,4.74-3.71,4.48h-8.78V69.46h4.29c.4.13.59-.06.59-.58V53.66H119.59v-6l5.07-9.36h-5.07V31.43Zm-3.32,37.25L129,56.59h7.41l-6.44,15.6a3.07,3.07,0,0,1-3.51,2.34h-6.82V69.27h3.31C123.55,69.4,123.94,69.2,124.07,68.68Zm30,3.51L149,56.39h7l4.09,11.9c.26.78.72,1.11,1.37,1h2.34v5.26h-6.24Q154.49,74.72,154.11,72.19Z" transform="translate(-0.24)"/><path d="M223,37.48H179.3V31.24H223ZM179.3,69.85l6.63-17.16H179.3V46.45H223v6.24H193l-5.85,15.4h28.08c.52.14.79-.12.79-.78V60.1h6.82v9.36q0,4.68-4.49,4.68h-39Z" transform="translate(-0.24)"/><path d="M239.21,32.41h13.85q1.17.2,1.17-1.17v-.78h6.82V32.8q.58,5.27-5.46,4.68H254V40.4h7.22v5.66h-7.61V74.33H247.4V46.06H239V40.4h8.38V37.67h-8.19Zm2.34,41.15H239V68.29h.38q.39.19.78-1.56l.59-19.11h5.85l-.39,21.45C246.36,72.32,244.8,73.81,241.55,73.56Zm12.87-25.94h5.27l.39,18.72c0,.78.19,1.17.58,1.17h.39v-3.9l12.68-1.17V30.26H280V62.05l2.73-.39v6.63l-2.73.2v6h-6.44V68.88L261.05,70v3.32h-2.73c-2.6.26-3.84-1.3-3.7-4.68Zm7.22-15.21h6.63l.78,5.65c.13,1.44.71,2.08,1.75,1.95h1.95v5.46h-6.24q-3.31.59-3.9-4.48Zm1,23-1-7.8h6.63l.78,4.87c.26,1.31.91,1.89,1.95,1.76h1.56v5.26h-5.07C264.11,59.78,262.48,58.41,262.61,55.42Z" transform="translate(-0.24)"/><path d="M298.93,38.45V32.6h9.75V29.29h6.43V32.6h2.54v5.85h-2.54V41h1.76v6.24h-1.76V68.29c.26,3.51-1.36,5.13-4.87,4.88H299.71V67.9h7.6q1.17.19,1.17-1.17V56l-3.9,6.83a3.25,3.25,0,0,1-3.7,2h-2.54V59.12h.59c.51.13,1.17-.45,1.95-1.75l7.8-13.65V38.45Zm19.89-5.65h7.6V28.9h6.83v3.9H343v5.26h-9.75v5.85H343v4.88l-9,13.26,3.7,4.68a2.07,2.07,0,0,0,2.54,1.17H343v5.27h-6.63a3.24,3.24,0,0,1-2.93-1.57l-3.12-4.29-3.9,5.08a3.12,3.12,0,0,1-2.53.78h-6.83V67.9h4.1c.65.13,1.29-.26,1.95-1.17l3.7-4.68-8-10.53h7.6l3.9,5.26,4.88-7.6H318.43V43.91h8V38.06h-7.6Z" transform="translate(-0.24)"/><rect x="14.64" y="55.54" width="9.09" height="9.09"/><polygon points="8.04 58.94 2.35 58.94 2.35 64.63 8.02 64.63 8.02 71.23 14.63 71.23 14.63 64.63 8.04 64.63 8.04 58.94"/><path d="M71.71,21.93a26.59,26.59,0,0,0-52.58,1.51,23.47,23.47,0,0,1,4.92-.52,23.88,23.88,0,0,1,5.31.61A16.46,16.46,0,0,1,62,26.59v5.06h5.06a16.46,16.46,0,1,1,0,32.92H43.43A23.72,23.72,0,1,0,.24,51H10.36A13.61,13.61,0,1,1,24.05,64.62v-.05H24v.06h0V74.75c.52,0,1,0,1.54,0H67.05a26.59,26.59,0,0,0,4.66-52.77Z" transform="translate(-0.24)"/></svg>
