<?xml version="1.0" encoding="UTF-8"?>
<svg width="20px" height="21px" viewBox="0 0 20 21" version="1.1" xmlns="http://www.w3.org/2000/svg" xmlns:xlink="http://www.w3.org/1999/xlink">
    <title>搜索</title>
    <defs>
        <filter id="filter-1">
            <feColorMatrix in="SourceGraphic" type="matrix" values="0 0 0 0 1.000000 0 0 0 0 1.000000 0 0 0 0 1.000000 0 0 0 1.000000 0"></feColorMatrix>
        </filter>
    </defs>
    <g id="页面-1" stroke="none" stroke-width="1" fill="none" fill-rule="evenodd">
        <g id="东云—首页" transform="translate(-1544.000000, -46.000000)">
            <g id="导航" transform="translate(363.000000, 30.500000)">
                <g id="搜索" transform="translate(1172.000000, 7.000000)" filter="url(#filter-1)">
                    <g transform="translate(9.000000, 9.000000)">
                        <rect id="矩形" fill="#000000" fill-rule="nonzero" opacity="0" x="0" y="0" width="20" height="20"></rect>
                        <path d="M18.9021705,18.188939 L14.3724442,13.6949126 C15.5677886,12.3656935 16.2598301,10.5934014 16.2598301,8.63122082 C16.2598301,4.32708284 12.7996225,0.909090909 8.58446052,0.909090909 C4.30638566,0.909090909 0.909090909,4.39037899 0.909090909,8.63122082 C0.909090909,12.9353588 4.36929852,16.3533507 8.58446052,16.3533507 C10.5347594,16.3533507 12.2963196,15.6570931 13.6174898,14.4544663 L18.1472161,18.9484928 C18.3359547,19.1383812 18.7134319,19.1383812 18.9021705,18.9484928 C19.153822,18.6953082 19.153822,18.3788274 18.9021705,18.188939 Z M1.91569676,8.63122082 C1.91569676,4.96004431 4.87260145,1.92182926 8.58446052,1.92182926 C12.2963196,1.92182926 15.2532243,4.89674816 15.2532243,8.63122082 C15.2532243,10.4035129 14.5611828,12.0492128 13.4287512,13.2518395 C13.3658383,13.2518395 13.3658383,13.3151357 13.3029254,13.3151357 C13.2400126,13.3784318 13.2400126,13.3784318 13.2400126,13.441728 C12.0446681,14.5810586 10.4089336,15.2773162 8.64737339,15.2773162 C4.93551431,15.3406124 1.91569676,12.3023973 1.91569676,8.63122082 Z" id="形状" fill="#000000" fill-rule="nonzero"></path>
                    </g>
                </g>
            </g>
        </g>
    </g>
</svg>