<?xml version="1.0" encoding="UTF-8"?>
<svg width="65px" height="65px" viewBox="0 0 65 65" version="1.1" xmlns="http://www.w3.org/2000/svg" xmlns:xlink="http://www.w3.org/1999/xlink">
    <title>方案融洽</title>
    <defs>
        <linearGradient x1="25.6077881%" y1="11.6933594%" x2="73.7611084%" y2="82.6867676%" id="linearGradient-1">
            <stop stop-color="#C6CFFF" offset="0%"></stop>
            <stop stop-color="#EED8FF" offset="99.993427%"></stop>
        </linearGradient>
        <rect id="path-2" x="0" y="0" width="65" height="65" rx="32.5"></rect>
    </defs>
    <g id="页面-1" stroke="none" stroke-width="1" fill="none" fill-rule="evenodd">
        <g id="三体官网-关于我们" transform="translate(-927.000000, -1440.000000)">
            <g id="编组-8备份-2" transform="translate(359.000000, 1317.000000)">
                <g id="编组-3备份" transform="translate(408.000000, 91.000000)">
                    <g id="方案融洽" transform="translate(160.000000, 32.000000)">
                        <mask id="mask-3" fill="white">
                            <use xlink:href="#path-2"></use>
                        </mask>
                        <use id="蒙版" fill="url(#linearGradient-1)" xlink:href="#path-2"></use>
                        <g id="方案" mask="url(#mask-3)" fill-rule="nonzero">
                            <g transform="translate(12.000000, 12.000000)">
                                <rect id="矩形" fill="#000000" opacity="0" x="0" y="0" width="40" height="40"></rect>
                                <path d="M26.4176,32.7509333 L13.5824,32.7509333 L13.5824,29.4432 C8.95306667,27.0501333 6,22.2490667 6,17 C6,9.27946667 12.2794667,3 20,3 C27.7205333,3 34,9.27946667 34,17 C34,22.2490667 31.0469333,27.0501333 26.4176,29.4432 L26.4176,32.7509333 Z M15.9157333,30.4176 L24.0842667,30.4176 L24.0842667,27.9573333 L24.7712,27.6474667 C28.96,25.7658667 31.6666667,21.5845333 31.6666667,17 C31.6666667,10.5674667 26.4325333,5.33333333 20,5.33333333 C13.5674667,5.33333333 8.33333333,10.5674667 8.33333333,17 C8.33333333,21.5845333 11.04,25.7658667 15.2288,27.6437333 L15.9157333,27.9536 L15.9157333,30.4176 L15.9157333,30.4176 Z M13.5824,33.9157333 L26.4176,33.9157333 L26.4176,36.2490667 L13.5824,36.2490667 L13.5824,33.9157333 Z M30.4981333,17.5824 L28.1648,17.5824 C28.1648,13.08 24.5024,9.41386667 19.9962667,9.41386667 L19.9962667,7.08053333 C25.7904,7.08426667 30.4981333,11.792 30.4981333,17.5824 Z" id="形状" fill="#FFFFFF"></path>
                            </g>
                        </g>
                    </g>
                </g>
            </g>
        </g>
    </g>
</svg>