<?xml version="1.0" encoding="UTF-8"?>
<svg width="65px" height="65px" viewBox="0 0 65 65" version="1.1" xmlns="http://www.w3.org/2000/svg" xmlns:xlink="http://www.w3.org/1999/xlink">
    <title>培训支持</title>
    <defs>
        <linearGradient x1="25.6077881%" y1="11.6933594%" x2="73.7611084%" y2="82.6867676%" id="linearGradient-1">
            <stop stop-color="#C6CFFF" offset="0%"></stop>
            <stop stop-color="#EED8FF" offset="99.993427%"></stop>
        </linearGradient>
        <rect id="path-2" x="0" y="0" width="65" height="65" rx="32.5"></rect>
    </defs>
    <g id="页面-1" stroke="none" stroke-width="1" fill="none" fill-rule="evenodd">
        <g id="三体官网-关于我们" transform="translate(-1335.000000, -1440.000000)">
            <g id="编组-8备份-2" transform="translate(359.000000, 1317.000000)">
                <g id="编组-3备份-2" transform="translate(816.000000, 91.000000)">
                    <g id="培训支持" transform="translate(160.000000, 32.000000)">
                        <mask id="mask-3" fill="white">
                            <use xlink:href="#path-2"></use>
                        </mask>
                        <use id="蒙版" fill="url(#linearGradient-1)" xlink:href="#path-2"></use>
                        <g id="数译_上课-培训" mask="url(#mask-3)" fill-rule="nonzero">
                            <g transform="translate(12.000000, 13.000000)">
                                <rect id="矩形" fill="#000000" opacity="0" x="0" y="0" width="40" height="40"></rect>
                                <path d="M25.125,35 L25,35 C24.375,34.875 23.875,34.375 23.875,33.75 C23.875,29.625 20.5,26.25 16.375,26.25 L15,26.25 C10.875,26.25 7.5,29.625 7.5,33.75 C7.5,34.5 7,35 6.25000001,35 C5.5,35 5,34.5 5,33.75 C5,28.25 9.5,23.75 15,23.75 L16.375,23.75 C20.25,23.75 23.5,25.875 25.25,29 L28.625,17.625 C28.75,17 29.375,16.625 30,16.875 C30.625,17.125 31,17.75 30.875,18.375 L26.25,34.125 C26.125,34.625 25.625,35 25.125,35 L25.125,35 Z M15.25,21.75 C11.625,21.75 8.75,18.75 8.75,15.25 C8.75,11.75 11.75,8.75 15.25,8.75 C18.75,8.75 21.75,11.75 21.75,15.25 C21.75,18.75 18.875,21.75 15.25,21.75 Z M15.25,11.125 C13,11.125 11.25,13 11.25,15.25 C11.25,17.5 13.125,19.25 15.25,19.25 C17.375,19.25 19.25,17.375 19.25,15.25 C19.25,13.125 17.5,11.125 15.25,11.125 Z M33.75,11.75 L25.5,11.75 C24.75,11.75 24.25,11.25 24.25,10.5 C24.25,9.75000001 24.75,9.25000001 25.5,9.25000001 L33.75,9.25000001 C34.5,9.25000001 35,9.75000001 35,10.5 C35,11.25 34.5,11.75 33.75,11.75 Z M33.75,7.5 L21.25,7.5 C20.5,7.5 20,7 20,6.25000001 C20,5.5 20.5,5 21.25,5 L33.75,5 C34.5,5 35,5.5 35,6.25000001 C35,7 34.375,7.5 33.75,7.5 Z" id="形状" fill="#FFFFFF"></path>
                            </g>
                        </g>
                    </g>
                </g>
            </g>
        </g>
    </g>
</svg>