<?xml version="1.0" encoding="UTF-8"?>
<svg width="65px" height="65px" viewBox="0 0 65 65" version="1.1" xmlns="http://www.w3.org/2000/svg" xmlns:xlink="http://www.w3.org/1999/xlink">
    <title>优先体验</title>
    <defs>
        <linearGradient x1="25.6077881%" y1="11.6933594%" x2="73.7611084%" y2="82.6867676%" id="linearGradient-1">
            <stop stop-color="#C6CFFF" offset="0%"></stop>
            <stop stop-color="#EED8FF" offset="99.993427%"></stop>
        </linearGradient>
        <rect id="path-2" x="0" y="0" width="65" height="65" rx="32.5"></rect>
        <filter id="filter-4">
            <feColorMatrix in="SourceGraphic" type="matrix" values="0 0 0 0 1.000000 0 0 0 0 1.000000 0 0 0 0 1.000000 0 0 0 1.000000 0"></feColorMatrix>
        </filter>
    </defs>
    <g id="页面-1" stroke="none" stroke-width="1" fill="none" fill-rule="evenodd">
        <g id="三体官网-关于我们" transform="translate(-927.000000, -1730.000000)">
            <g id="编组-8备份-2" transform="translate(359.000000, 1317.000000)">
                <g id="编组-3备份-4" transform="translate(408.000000, 381.000000)">
                    <g id="优先体验" transform="translate(160.000000, 32.000000)">
                        <mask id="mask-3" fill="white">
                            <use xlink:href="#path-2"></use>
                        </mask>
                        <use id="蒙版" fill="url(#linearGradient-1)" xlink:href="#path-2"></use>
                        <g filter="url(#filter-4)" id="数据中心技术">
                            <g mask="url(#mask-3)">
                                <g transform="translate(13.000000, 13.000000)">
                                    <rect id="矩形" fill="#000000" fill-rule="nonzero" opacity="0" x="0" y="0" width="40" height="40"></rect>
                                    <g id="编组-16" stroke-width="1" fill="none" fill-rule="evenodd" transform="translate(5.000000, 5.000000)">
                                        <path d="M28.125,11.328125 L25,11.328125 L25,1.56249998 C25,0.703124963 24.296875,1.66533454e-15 23.4375,1.66533454e-15 L1.56249998,1.66533454e-15 C0.703124963,1.66533454e-15 -6.6446848e-13,0.703125 -6.6446848e-13,1.56249998 L-6.6446848e-13,28.125 C-6.6446848e-13,28.984375 0.703125,29.6875 1.56249998,29.6875 L23.4375,29.6875 C24.296875,29.6875 25,28.984375 25,28.125 L25,20.703125 L28.125,20.703125 C28.984375,20.703125 29.6875,20 29.6875,19.140625 L29.6875,12.890625 C29.6875,12.03125 28.984375,11.328125 28.125,11.328125 L28.125,11.328125 Z M5.46874999,27.34375 L2.34375,27.34375 L2.34375,2.34375 L5.46874999,2.34375 L5.46874999,27.34375 L5.46874999,27.34375 Z M22.65625,27.34375 L7.81249999,27.34375 L7.81249999,2.34375 L22.65625,2.34375 L22.65625,11.328125 L20.078125,11.328125 C19.453125,11.328125 18.90625,11.640625 18.671875,12.1875 L17.109375,15.3125 C16.875,15.78125 16.875,16.25 17.109375,16.71875 L18.671875,19.84375 C18.90625,20.390625 19.453125,20.703125 20.078125,20.703125 L22.65625,20.703125 L22.65625,27.34375 Z M27.34375,18.359375 L20.625,18.359375 L19.453125,16.015625 L20.625,13.671875 L27.34375,13.671875 L27.34375,18.359375 Z" id="形状" fill="#FFFFFF" fill-rule="nonzero"></path>
                                        <path d="M12.109375,7.81249999 L18.359375,7.81249999 C18.984375,7.81249999 19.53125,7.265625 19.53125,6.64062499 C19.53125,6.01562498 18.984375,5.46874999 18.359375,5.46874999 L12.109375,5.46874999 C11.484375,5.46874999 10.9375,6.01562498 10.9375,6.64062499 C10.9375,7.265625 11.484375,7.81249999 12.109375,7.81249999 L12.109375,7.81249999 Z M15.234375,10.15625 L12.109375,10.15625 C11.484375,10.15625 10.9375,10.703125 10.9375,11.328125 C10.9375,11.953125 11.484375,12.5 12.109375,12.5 L15.234375,12.5 C15.859375,12.5 16.40625,11.953125 16.40625,11.328125 C16.40625,10.703125 15.859375,10.15625 15.234375,10.15625 Z" id="形状" fill="#FFFFFF" fill-rule="nonzero"></path>
                                    </g>
                                </g>
                            </g>
                        </g>
                    </g>
                </g>
            </g>
        </g>
    </g>
</svg>