<?xml version="1.0" encoding="UTF-8"?>
<svg width="22px" height="22px" viewBox="0 0 22 22" version="1.1" xmlns="http://www.w3.org/2000/svg" xmlns:xlink="http://www.w3.org/1999/xlink">
    <title>联系地址</title>
    <defs>
        <filter id="filter-1">
            <feColorMatrix in="SourceGraphic" type="matrix" values="0 0 0 0 0.400000 0 0 0 0 0.400000 0 0 0 0 0.400000 0 0 0 1.000000 0"></feColorMatrix>
        </filter>
    </defs>
    <g id="页面-1" stroke="none" stroke-width="1" fill="none" fill-rule="evenodd">
        <g id="三体官网-关于我们" transform="translate(-1004.000000, -2742.000000)">
            <g id="编组-8备份-4" transform="translate(359.000000, 2460.000000)">
                <g id="编组-8" transform="translate(0.000000, 92.000000)">
                    <g id="联系地址" transform="translate(625.000000, 129.000000)" filter="url(#filter-1)">
                        <g transform="translate(20.000000, 61.000000)">
                            <rect id="矩形" fill="#000000" fill-rule="nonzero" opacity="0" x="0" y="0" width="22" height="22"></rect>
                            <path d="M11.011,21.032 C10.791,21.032 10.56,20.944 10.384,20.779 L4.994,15.389 C1.683,12.078 1.683,6.677 4.994,3.366 C6.314,2.046 7.975,1.221 9.812,0.957 C11.583,0.704 13.431,1.034 15.004,1.87 C15.433,2.101 15.598,2.629 15.367,3.058 C15.136,3.487 14.608,3.652 14.179,3.421 C11.539,2.013 8.349,2.486 6.237,4.609 C3.608,7.238 3.608,11.517 6.237,14.146 L11,18.909 L15.763,14.146 C17.787,12.122 18.315,9.042 17.072,6.457 C16.863,6.017 17.05,5.489 17.49,5.28 C17.93,5.071 18.458,5.258 18.667,5.698 C20.229,8.943 19.558,12.837 17.006,15.389 L11.616,20.779 C11.462,20.944 11.231,21.032 11.011,21.032 Z" id="路径" fill="#333333" fill-rule="nonzero"></path>
                            <path d="M11.011,12.617 C9.075,12.617 7.491,11.033 7.491,9.097 C7.491,7.161 9.075,5.577 11.011,5.577 C12.947,5.577 14.531,7.161 14.531,9.097 C14.531,11.033 12.947,12.617 11.011,12.617 Z M11.011,7.337 C10.043,7.337 9.251,8.129 9.251,9.097 C9.251,10.065 10.043,10.857 11.011,10.857 C11.979,10.857 12.771,10.065 12.771,9.097 C12.771,8.129 11.979,7.337 11.011,7.337 Z" id="形状" fill="#333333" fill-rule="nonzero"></path>
                        </g>
                    </g>
                </g>
            </g>
        </g>
    </g>
</svg>