<?xml version="1.0" encoding="UTF-8"?>
<svg width="51px" height="51px" viewBox="0 0 51 51" version="1.1" xmlns="http://www.w3.org/2000/svg" xmlns:xlink="http://www.w3.org/1999/xlink">
    <title>AI智能自动训练平台</title>
    <defs>
        <linearGradient x1="25.6077881%" y1="11.6933594%" x2="73.7611084%" y2="82.6867676%" id="linearGradient-1">
            <stop stop-color="#C6CFFF" offset="0%"></stop>
            <stop stop-color="#EED8FF" offset="99.993427%"></stop>
        </linearGradient>
    </defs>
    <g id="页面-1" stroke="none" stroke-width="1" fill="none" fill-rule="evenodd">
        <g id="三体官网-首页" transform="translate(-1262.000000, -913.000000)" fill-rule="nonzero">
            <g id="编组-15" transform="translate(360.000000, 709.000000)">
                <g id="编组-16" transform="translate(21.750061, 58.120059)">
                    <g id="AI智能自动训练平台" transform="translate(881.000000, 146.000000)">
                        <rect id="矩形" fill="url(#linearGradient-1)" x="0" y="0" width="50" height="50" rx="25"></rect>
                        <path d="M33.7425,10.026875 C34.725,9.91624999 35.633125,10.57 35.85375,11.545625 L37.1625,12.025625 L37.160625,12.031875 C38.759375,12.615 40,14.50625 40,16.335 L40,33.88375 C40,35.716875 38.75125,37.599375 37.143125,38.17 L35.79875,38.65125 C35.5410698,39.4507636 34.7993703,39.9946261 33.959375,40 C33.263125,40 32.619375,39.625 32.270625,39.01375 C31.9223055,38.4019948 31.922068,37.6519757 32.27,37.04 C32.614057,36.4313881 33.2583718,36.0543447 33.9575,36.0525 C34.505,36.053125 35.02625,36.29 35.391875,36.7025 L36.499375,36.30625 C37.335,36.00875 38.053125,34.876875 38.053125,33.88 L38.053125,16.331875 C38.053125,15.333125 37.334375,14.189375 36.50125,13.884375 L35.2725,13.430625 C34.9173188,13.7643491 34.4486144,13.9506692 33.96125,13.951875 C32.885,13.951875 32.0125,13.0675 32.0125,11.9775 C32.015625,10.976875 32.76,10.1375 33.7425,10.026875 Z M16.42625,10 C17.3169621,10.0062616 18.0906798,10.6141827 18.3075,11.478125 C18.5312855,12.3437196 18.1483996,13.2520498 17.3725,13.69625 C16.5996978,14.1341043 15.6278926,13.9883851 15.0175,13.343125 L13.51625,13.888125 C12.6925,14.1875 11.9475,15.23 11.9475,16.1175 L11.9475,34.088125 C11.9475,34.9725 12.6925,36.0025 13.51625,36.29625 L14.919375,36.785625 C15.2833741,36.3224065 15.8390073,36.0508045 16.428125,36.048125 L16.428125,36.041875 C16.945,36.041875 17.44,36.250625 17.805,36.620625 C18.17,36.99125 18.37375,37.493125 18.37375,38.01625 C18.366875,38.95625 17.70875,39.761875 16.798125,39.944375 C15.8834666,40.1246129 14.9691694,39.6322386 14.61625,38.769375 L12.8725,38.155 C11.275625,37.58625 10,35.79875 10,34.084375 L10,16.11375 C10,14.40375 11.26625,12.6075 12.855,12.029375 L14.569375,11.410625 C14.805736,10.5803135 15.5617201,10.0056229 16.425,10 L16.42625,10 Z M26.52375,16.25 L34.375,33.75 L30.85625,33.7375 L30.8575,33.7375 L29.23875,30.109375 L21.235,30.109375 L19.7175,33.708125 L16.25,33.75 L23.624375,16.28 L26.524375,16.25 L26.52375,16.25 Z M25.121875,20.880625 L22.571875,26.930625 L27.820625,26.930625 L25.121875,20.880625 Z" id="形状" fill="#1C4194"></path>
                    </g>
                </g>
            </g>
        </g>
    </g>
</svg>