<?xml version="1.0" encoding="UTF-8"?>
<svg width="85px" height="85px" viewBox="0 0 85 85" version="1.1" xmlns="http://www.w3.org/2000/svg" xmlns:xlink="http://www.w3.org/1999/xlink">
    <title>AI训练服务器</title>
    <g id="页面-1" stroke="none" stroke-width="1" fill="none" fill-rule="evenodd">
        <g id="三体官网-首页" transform="translate(-544.000000, -1444.000000)" fill-rule="nonzero">
            <g id="编组-9" transform="translate(0.000000, 1369.000000)">
                <g id="编组-8" transform="translate(510.000000, 75.000000)">
                    <g id="AI训练服务器" transform="translate(34.000000, 0.000000)">
                        <rect id="矩形" fill="#000000" opacity="0" x="0" y="0" width="85" height="85"></rect>
                        <path d="M42.5,0 C19.0278571,0 0,19.0278571 0,42.5 C0,65.9721429 19.0278571,85 42.5,85 C65.9721429,85 85,65.9721429 85,42.5 C85,19.0278571 65.9721429,0 42.5,0 Z M60.0263929,63.4834643 L24.5601429,63.4834643 C23.8895114,63.4834643 23.3458572,62.9398101 23.3458572,62.2691786 C23.3458572,61.5985471 23.8895114,61.0548929 24.5601429,61.0548929 L60.0263929,61.0548929 C60.6970244,61.0548929 61.2406786,61.5985471 61.2406786,62.2691786 C61.2406786,62.9398101 60.6970244,63.4834643 60.0263929,63.4834643 L60.0263929,63.4834643 Z M64.9642857,53.7479286 C64.9642857,54.7193571 64.2035357,55.5025714 63.2642857,55.5025714 L21.7357143,55.5025714 C20.7970714,55.5025714 20.0357143,54.7169286 20.0357143,53.7479286 L20.0357143,23.2693571 C20.0357143,22.2979286 20.7964643,21.5153214 21.7357143,21.5153214 L63.2642857,21.5153214 C64.2029286,21.5153214 64.9642857,22.3003571 64.9642857,23.2693571 L64.9642857,53.7479286 Z" id="形状" fill="#3D3D3D"></path>
                        <path d="M63.2642857,21.5165357 L21.7357143,21.5165357 C20.7970714,21.5165357 20.0357143,22.3015714 20.0357143,23.2705714 L20.0357143,53.7491429 C20.0357143,54.7205714 20.7964643,55.5037857 21.7357143,55.5037857 L63.2642857,55.5037857 C64.2029286,55.5037857 64.9642857,54.7181428 64.9642857,53.7491429 L64.9642857,23.2705714 C64.9642857,22.3015714 64.2035357,21.5165357 63.2642857,21.5165357 Z M32.3910714,50.0036786 C32.3910714,50.67431 31.8474172,51.2179643 31.1767857,51.2179643 C30.5061542,51.2179643 29.9625,50.67431 29.9625,50.0036786 L29.9625,40.8358214 C29.9625,40.16519 30.5061542,39.6215357 31.1767857,39.6215357 C31.8474172,39.6215357 32.3910714,40.16519 32.3910714,40.8358214 L32.3910714,50.0036786 Z M39.9196429,50.0036786 C39.9196429,50.67431 39.3759886,51.2179643 38.7053572,51.2179643 C38.0347257,51.2179643 37.4910714,50.67431 37.4910714,50.0036786 L37.4910714,37.3283571 C37.4910714,36.6577256 38.0347257,36.1140714 38.7053572,36.1140714 C39.3759886,36.1140714 39.9196429,36.6577256 39.9196429,37.3283571 L39.9196429,50.0036786 Z M47.4063214,50.0036786 C47.4063214,50.67431 46.8626672,51.2179643 46.1920357,51.2179643 C45.5214042,51.2179643 44.97775,50.67431 44.97775,50.0036786 L44.97775,29.7251071 C44.97775,29.0544756 45.5214042,28.5108214 46.1920357,28.5108214 C46.8626672,28.5108214 47.4063214,29.0544756 47.4063214,29.7251071 L47.4063214,50.0036786 Z M54.8923929,50.0036786 C54.8923929,50.67431 54.3487386,51.2179643 53.6781072,51.2179643 C53.0074757,51.2179643 52.4638214,50.67431 52.4638214,50.0036786 L52.4638214,33.46875 C52.4638214,32.7981185 53.0074757,32.2544643 53.6781072,32.2544643 C54.3487386,32.2544643 54.8923929,32.7981185 54.8923929,33.46875 L54.8923929,50.0036786 Z" id="形状" fill="#ED897E"></path>
                        <path d="M60.0263929,61.0548929 L24.5601429,61.0548929 C23.8895114,61.0548929 23.3458572,61.5985471 23.3458572,62.2691786 C23.3458572,62.9398101 23.8895114,63.4834643 24.5601429,63.4834643 L60.0263929,63.4834643 C60.6970244,63.4834643 61.2406786,62.9398101 61.2406786,62.2691786 C61.2406786,61.5985471 60.6970244,61.0548929 60.0263929,61.0548929 L60.0263929,61.0548929 Z" id="路径" fill="#C9554C"></path>
                        <path d="M31.1767857,39.62275 C30.8547371,39.62275 30.5458788,39.7506833 30.318156,39.978406 C30.0904333,40.2061288 29.9625,40.5149871 29.9625,40.8370357 L29.9625,50.0048929 C29.9625,50.6755244 30.5061542,51.2191786 31.1767857,51.2191786 C31.8474172,51.2191786 32.3910714,50.6755244 32.3910714,50.0048929 L32.3910714,40.8370357 C32.3910714,40.5149871 32.2631381,40.2061288 32.0354154,39.978406 C31.8076926,39.7506833 31.4988343,39.62275 31.1767857,39.62275 L31.1767857,39.62275 Z M38.7059643,36.1140714 C38.3839157,36.1140714 38.0750574,36.2420047 37.8473346,36.4697275 C37.6196119,36.6974502 37.4916786,37.0063085 37.4916786,37.3283571 L37.4916786,50.0036786 C37.4916786,50.67431 38.0353328,51.2179642 38.7059643,51.2179642 C39.3765957,51.2179642 39.92025,50.67431 39.92025,50.0036786 L39.92025,37.3283571 C39.92025,37.0063085 39.7923167,36.6974502 39.564594,36.4697275 C39.3368712,36.2420047 39.0280129,36.1140714 38.7059643,36.1140714 L38.7059643,36.1140714 Z M46.1926429,28.5120357 C45.8705943,28.5120357 45.5617359,28.639969 45.3340132,28.8676917 C45.1062904,29.0954145 44.9783571,29.4042728 44.9783571,29.7263214 L44.9783571,50.0048929 C44.9783571,50.6755244 45.5220114,51.2191786 46.1926428,51.2191786 C46.8632743,51.2191786 47.4069286,50.6755244 47.4069286,50.0048929 L47.4069286,29.7263214 C47.4069286,29.4042728 47.2789953,29.0954145 47.0512725,28.8676917 C46.8235498,28.639969 46.5146915,28.5120357 46.1926429,28.5120357 L46.1926429,28.5120357 Z M53.6787143,32.2544643 C53.3566657,32.2544643 53.0478074,32.3823976 52.8200846,32.6101203 C52.5923619,32.8378431 52.4644286,33.1467014 52.4644286,33.46875 L52.4644286,50.0036786 C52.4644286,50.67431 53.0080828,51.2179643 53.6787143,51.2179643 C54.3493458,51.2179643 54.893,50.67431 54.893,50.0036786 L54.893,33.46875 C54.893,32.7981185 54.3493458,32.2544643 53.6787143,32.2544643 L53.6787143,32.2544643 Z" id="形状" fill="#FFFFFF"></path>
                    </g>
                </g>
            </g>
        </g>
    </g>
</svg>