<?xml version="1.0" encoding="UTF-8"?>
<svg width="45px" height="45px" viewBox="0 0 45 45" version="1.1" xmlns="http://www.w3.org/2000/svg" xmlns:xlink="http://www.w3.org/1999/xlink">
    <title>智能分析</title>
    <g id="页面-1" stroke="none" stroke-width="1" fill="none" fill-rule="evenodd">
        <g id="三体官网-核心产品-AI边缘计算盒" transform="translate(-1030.000000, -1714.000000)" fill-rule="nonzero">
            <g id="编组-8备份-3" transform="translate(360.000000, 1575.000000)">
                <g id="编组-6备份" transform="translate(610.000000, 92.000000)">
                    <g id="智能分析" transform="translate(60.000000, 47.000000)">
                        <rect id="矩形" fill="#000000" opacity="0" x="0" y="0" width="45" height="45"></rect>
                        <path d="M12.64125,16.80375 L15.02625,20.92875 L12.64125,25.05375 L7.875,25.05375 L5.49,20.92875 L7.875,16.80375 L12.64125,16.80375 M12.64125,13.8037499 L7.875,13.8037499 C6.80296252,13.8035092 5.81226873,14.3753383 5.27625,15.3037499 L2.89125,19.42875 C2.35535161,20.3569532 2.35535161,21.5005468 2.89125,22.42875 L5.27625,26.55375 C5.81226872,27.4821617 6.80296251,28.0539908 7.875,28.0537501 L12.64125,28.0537501 C13.7132875,28.0539908 14.7039813,27.4821617 15.24,26.55375 L17.625,22.42875 C18.1608984,21.5005468 18.1608984,20.3569532 17.625,19.42875 L15.24,15.3037499 C14.7039813,14.3753383 13.7132875,13.8035092 12.64125,13.8037499 L12.64125,13.8037499 Z M41.01,40.1250005 C40.6120555,40.1253129 40.2302957,39.9674829 39.94875,39.68625 L32.6625,32.39625 C32.0763878,31.8101378 32.0763878,30.8598622 32.6625,30.27375 C33.2486122,29.6876378 34.1988878,29.6876378 34.785,30.27375 L42.07125,37.56 C42.5007453,37.9890174 42.6293101,38.6346114 42.3969336,39.1954352 C42.1645572,39.7562589 41.61706,40.1217277 41.01,40.12125 L41.01,40.1250005 Z" id="形状" fill="#3C3C3C"></path>
                        <path d="M23.38125,37.1250096 C19.1020695,37.1296812 14.9976861,35.427732 11.9775,32.39625 C11.3913878,31.8101378 11.3913878,30.8598622 11.9775,30.27375 C12.5636122,29.6876378 13.5138878,29.6876378 14.1,30.27375 C19.2257695,35.3989966 27.5358164,35.3987139 32.6612373,30.2731187 C37.7866582,25.1475235 37.7866582,16.8374765 32.6612373,11.7118813 C27.5358164,6.58628609 19.2257695,6.58600345 14.1,11.71125 C13.5138878,12.2973622 12.5636122,12.2973621 11.9775,11.71125 C11.3913878,11.1251378 11.3913878,10.1748622 11.9775,9.58874999 C17.1402137,4.43432515 25.1204942,3.38822868 31.4372891,7.03786012 C37.754084,10.6874915 40.8336388,18.1235884 38.9467352,25.170666 C37.0598316,32.2177436 30.6765693,37.120106 23.38125,37.1250096 L23.38125,37.1250096 Z" id="路径" fill="#3C3C3C"></path>
                        <path d="M29.5125,27.6862594 C29.2851438,27.68605 29.0802632,27.5490037 28.9932848,27.3389426 C28.9063064,27.1288816 28.9543348,26.8871151 29.115,26.72625 C29.4730019,26.3697283 29.7969096,25.9805368 30.0825,25.56375 C30.2575052,25.3069376 30.6075626,25.2406198 30.864375,25.415625 C31.1211874,25.5906302 31.1875053,25.9406876 31.0125,26.1975 C30.6879189,26.671737 30.3200969,27.1148809 29.91375,27.52125 C29.8074449,27.6276924 29.6629327,27.687118 29.5125,27.6862594 L29.5125,27.6862594 Z M31.935,22.99125 L31.84125,22.99125 C31.6940097,22.9664759 31.5626602,22.8841784 31.476142,22.7624901 C31.3896237,22.6408018 31.3550361,22.4897082 31.38,22.3425 C31.4569024,21.8990682 31.4970389,21.4500411 31.5,21 C31.5,20.74875 31.5,20.49375 31.46625,20.25 C31.4372551,19.9393398 31.6655898,19.663995 31.97625,19.635 C32.2869102,19.6060051 32.5622551,19.8343398 32.59125,20.145 C32.6175,20.43 32.6325,20.71875 32.6325,21.00375 C32.6320863,21.5151424 32.5894414,22.0256272 32.505,22.53 C32.4548808,22.8049272 32.2105249,23.0013702 31.93125,22.99125 L31.935,22.99125 Z M30.885,17.2050001 C30.6839092,17.2051289 30.4980454,17.0978997 30.3975,16.92375 C30.0436744,16.3168449 29.6125734,15.7584305 29.115,15.2625 C28.9084807,15.0408677 28.9145743,14.6954926 29.1287835,14.4812835 C29.3429926,14.2670743 29.6883677,14.2609807 29.91,14.4675 C30.4748407,15.0271837 30.9651354,15.6573824 31.36875,16.3425 C31.4692632,16.5165939 31.4692289,16.7310946 31.3686599,16.9051563 C31.2680909,17.079218 31.0822763,17.1863789 30.88125,17.18625 L30.885,17.2050001 Z" id="形状" fill="#3C3C3C"></path>
                    </g>
                </g>
            </g>
        </g>
    </g>
</svg>