<?xml version="1.0" encoding="UTF-8"?>
<svg width="22px" height="22px" viewBox="0 0 22 22" version="1.1" xmlns="http://www.w3.org/2000/svg" xmlns:xlink="http://www.w3.org/1999/xlink">
    <title>联系邮箱</title>
    <defs>
        <filter id="filter-1">
            <feColorMatrix in="SourceGraphic" type="matrix" values="0 0 0 0 0.400000 0 0 0 0 0.400000 0 0 0 0 0.400000 0 0 0 1.000000 0"></feColorMatrix>
        </filter>
    </defs>
    <g id="页面-1" stroke="none" stroke-width="1" fill="none" fill-rule="evenodd">
        <g id="三体官网-关于我们" transform="translate(-378.000000, -2741.000000)">
            <g id="编组-8备份-4" transform="translate(359.000000, 2460.000000)">
                <g id="编组-8" transform="translate(0.000000, 92.000000)">
                    <g id="联系邮箱" transform="translate(0.000000, 129.000000)" filter="url(#filter-1)">
                        <g transform="translate(19.000000, 60.000000)">
                            <rect id="矩形" fill="#000000" fill-rule="nonzero" opacity="0" x="0" y="0" width="22" height="22"></rect>
                            <path d="M17.875,3.66666667 L4.125,3.66666667 C2.85934745,3.66666667 1.83333333,4.69268078 1.83333333,5.95833333 L1.83333333,16.0416667 C1.83333333,17.3073192 2.85934745,18.3333333 4.125,18.3333333 L17.875,18.3333333 C19.1406525,18.3333333 20.1666667,17.3073192 20.1666667,16.0416667 L20.1666667,5.95833333 C20.1666667,4.69268078 19.1406525,3.66666667 17.875,3.66666667 Z M18.3333333,16.0416667 C18.3333333,16.2947972 18.1281305,16.5 17.875,16.5 L4.125,16.5 C4.00344244,16.5 3.88686357,16.4517114 3.8009094,16.3657573 C3.71495522,16.2798031 3.66666667,16.1632242 3.66666667,16.0416667 L3.66666667,5.95833333 C3.66666667,5.70520282 3.87186949,5.5 4.125,5.5 L17.875,5.5 C18.1281305,5.5 18.3333333,5.70520282 18.3333333,5.95833333 L18.3333333,16.0416667 Z" id="形状" fill="#020202" fill-rule="nonzero"></path>
                            <path d="M15.99125,6.5725 L11,9.9 L6.00875,6.5725 C5.58994892,6.32491244 5.05067978,6.44762713 4.7802495,6.85205439 C4.50981923,7.25648166 4.60244113,7.8017259 4.99125,8.09416667 L10.49125,11.7608333 C10.7992838,11.9663496 11.2007162,11.9663496 11.50875,11.7608333 L17.00875,8.09416667 C17.3975589,7.8017259 17.4901808,7.25648166 17.2197505,6.85205439 C16.9493202,6.44762713 16.4100511,6.32491244 15.99125,6.5725 Z" id="路径" fill="#020202" fill-rule="nonzero"></path>
                        </g>
                    </g>
                </g>
            </g>
        </g>
    </g>
</svg>