<?xml version="1.0" encoding="UTF-8"?>
<svg width="50px" height="50px" viewBox="0 0 50 50" version="1.1" xmlns="http://www.w3.org/2000/svg" xmlns:xlink="http://www.w3.org/1999/xlink">
    <title>烟雾识别</title>
    <defs>
        <filter id="filter-1">
            <feColorMatrix in="SourceGraphic" type="matrix" values="0 0 0 0 0.862745 0 0 0 0 0.862745 0 0 0 0 0.862745 0 0 0 1.000000 0"></feColorMatrix>
        </filter>
    </defs>
    <g id="页面-1" stroke="none" stroke-width="1" fill="none" fill-rule="evenodd">
        <g id="三体官网-算法商场" transform="translate(-996.000000, -2953.000000)">
            <g id="编组-8备份-4" transform="translate(360.000000, 2828.000000)">
                <g id="烟雾识别" transform="translate(609.000000, 92.000000)" filter="url(#filter-1)">
                    <g transform="translate(27.000000, 33.000000)">
                        <rect id="矩形" fill="#000000" fill-rule="nonzero" opacity="0" x="0" y="0" width="50" height="50"></rect>
                        <path d="M47.2222222,47.2222222 C47.9892844,47.2222222 48.6111111,47.844049 48.6111111,48.6111111 C48.6111111,49.3781733 47.9892844,50 47.2222222,50 L2.77777778,50 C2.01071563,50 1.38888889,49.3781733 1.38888889,48.6111111 C1.38888889,47.844049 2.01071563,47.2222222 2.77777778,47.2222222 L47.2222222,47.2222222 L47.2222222,47.2222222 Z M25,11.1111111 C32.6708333,11.1111111 38.8888889,17.3291667 38.8888889,25 L38.8888889,41.6666667 C38.8888889,43.2007909 37.6452354,44.4444444 36.1111111,44.4444444 L13.8888889,44.4444444 C12.3547646,44.4444444 11.1111111,43.2007909 11.1111111,41.6666667 L11.1111111,25 C11.1111111,17.3291667 17.3291667,11.1111111 25,11.1111111 L25,11.1111111 Z M25,13.8888889 C18.9987388,13.8888889 14.0819838,18.6544476 13.8944444,24.6527778 L13.8888889,25 L13.8888889,40.2777778 C13.8888889,40.646134 14.0352178,40.9994033 14.295685,41.2598705 C14.5561522,41.5203377 14.9094215,41.6666667 15.2777778,41.6666667 L34.7222222,41.6666667 C35.0905785,41.6666667 35.4438478,41.5203377 35.704315,41.2598705 C35.9647822,40.9994033 36.1111111,40.646134 36.1111111,40.2777778 L36.1111111,25 C36.1111111,18.8635028 31.1364972,13.8888889 25,13.8888889 L25,13.8888889 Z M25.4805556,20.8333333 C28.3236111,21.3986111 30.5555556,26.825 30.5555556,29.8388889 C30.5555556,33.0208333 28.0694444,35.6 25,35.6 C21.9305556,35.6 19.4444444,33.0208333 19.4444444,29.8388889 C19.4444444,28.2263889 20.0833333,25.9222222 21.1125,24.0430556 L21.2986111,23.7152778 L21.2972222,23.6652778 L21.3013889,23.8555556 C21.375,26.2777778 22.3819444,28.1944444 23.6111111,28.1944444 C24.8888889,28.1944444 25.9263889,26.1222222 25.9263889,23.5652778 C25.9340926,22.6866743 25.8004416,21.8125497 25.5305556,20.9763889 L25.4805556,20.8333333 Z M44.675,11.4583333 C44.8590545,11.7775001 44.9087523,12.1567197 44.8131561,12.5125355 C44.7175599,12.8683512 44.4845039,13.171604 44.1652778,13.3555556 L40.5569444,15.4388889 C40.1269855,15.6909505 39.5949313,15.6933101 39.1627536,15.445072 C38.7305759,15.1968339 38.4645403,14.7360603 38.4656326,14.2376643 C38.4667316,13.7392684 38.7347906,13.2796689 39.1680556,13.0333333 L42.7763889,10.95 C43.4406671,10.566487 44.2900689,10.794072 44.6736111,11.4583333 L44.675,11.4583333 Z M7.07777778,10.8763889 L7.22361113,10.95 L10.8319444,13.0333333 C11.4739843,13.3988818 11.7174766,14.2030862 11.3860352,14.8633797 C11.0545938,15.5236731 10.2642368,15.8089257 9.5875,15.5125 L9.44305557,15.4388889 L5.83472222,13.3555556 C5.19268207,12.9900072 4.94918957,12.1858027 5.28063107,11.5255091 C5.61207257,10.8652154 6.40242978,10.5799629 7.07916665,10.8763889 L7.07777778,10.8763889 Z M37.1777778,3.79444443 C37.7199749,4.33680534 37.7199749,5.21597245 37.1777778,5.75833335 L34.2305556,8.70555557 C33.6855851,9.23190741 32.8193257,9.22438058 32.2835837,8.68863856 C31.7478416,8.15289653 31.7403148,7.28663709 32.2666667,6.74166665 L35.2138889,3.79444443 C35.7562498,3.25224727 36.6354169,3.25224727 37.1777778,3.79444443 Z M14.6555556,3.68055557 L14.7861111,3.79583335 L17.7333333,6.74305557 C18.2502928,7.26177266 18.2756679,8.09276077 17.7913213,8.64205383 C17.3069747,9.19134689 16.479346,9.27018729 15.9,8.82222222 L15.7694444,8.70694443 L12.8222222,5.75972222 C12.3052628,5.24100512 12.2798876,4.41001702 12.7642342,3.86072395 C13.2485808,3.31143089 14.0762096,3.23259049 14.6555556,3.68055557 L14.6555556,3.68055557 Z M25,0 C25.7670621,0 26.3888889,0.621826727 26.3888889,1.38888887 L26.3888889,5.55555557 C26.3888889,6.32261771 25.7670621,6.94444443 25,6.94444443 C24.2329379,6.94444443 23.6111111,6.32261771 23.6111111,5.55555557 L23.6111111,1.38888887 C23.6111111,0.621826727 24.2329379,0 25,0 L25,0 Z" id="形状" fill="#202020" fill-rule="nonzero"></path>
                    </g>
                </g>
            </g>
        </g>
    </g>
</svg>