<?xml version="1.0" encoding="UTF-8"?>
<svg width="50px" height="50px" viewBox="0 0 50 50" version="1.1" xmlns="http://www.w3.org/2000/svg" xmlns:xlink="http://www.w3.org/1999/xlink">
    <title>跑动检测</title>
    <defs>
        <filter id="filter-1">
            <feColorMatrix in="SourceGraphic" type="matrix" values="0 0 0 0 0.862745 0 0 0 0 0.862745 0 0 0 0 0.862745 0 0 0 1.000000 0"></feColorMatrix>
        </filter>
    </defs>
    <g id="页面-1" stroke="none" stroke-width="1" fill="none" fill-rule="evenodd">
        <g id="三体官网-算法商场" transform="translate(-692.000000, -2953.000000)">
            <g id="编组-8备份-4" transform="translate(360.000000, 2828.000000)">
                <g id="跑动检测" transform="translate(305.000000, 92.000000)" filter="url(#filter-1)">
                    <g transform="translate(27.000000, 33.000000)">
                        <rect id="矩形" fill="#000000" fill-rule="nonzero" opacity="0" x="0" y="0" width="50" height="50"></rect>
                        <path d="M42.3688956,12.2479046 C42.0573919,12.0294621 41.6767114,11.9510618 41.3106257,12.0299563 C40.94454,12.1088508 40.6230475,12.3385753 40.4168951,12.668577 L34.836934,21.6041375 L30.0583353,19.1815415 C29.6020465,18.9301293 29.052652,18.9621725 28.6251831,19.2651295 C28.1977143,19.5680864 27.9601601,20.0937718 28.0054985,20.636434 C28.0508369,21.1790962 28.3718569,21.6524247 28.8429122,21.8711601 L34.7270811,24.8546527 C35.3613086,25.1743383 36.1209477,24.9518947 36.5100773,24.3325415 L42.7660559,14.3139732 C42.9722177,13.9842621 43.0461987,13.5812759 42.9717067,13.1937609 C42.8972147,12.8062458 42.6803589,12.4659826 42.3688956,12.2479046 L42.3688956,12.2479046 Z M27.2794461,31.9685742 L18.9338175,27.3604775 L26.3078249,19.4276052 C26.6092196,19.1035062 26.7436593,18.6491134 26.6696167,18.2047855 C26.595574,17.7604577 26.321959,17.3796638 25.9332894,17.1800286 L18.0802565,13.1465322 C17.7491033,12.975689 17.3651816,12.9532439 17.0177155,13.0844133 L8.98962798,16.1028296 C8.52701711,16.2689179 8.18619916,16.6812813 8.09767747,17.1820209 C8.00915578,17.6827605 8.18664471,18.1942983 8.56218159,18.5207604 C8.93771846,18.8472225 9.45312267,18.9380312 9.91103965,18.7584147 L17.3963221,15.9447086 L23.0632074,18.8558285 L15.7285534,26.7477588 C15.6647738,26.8169367 15.6403476,26.9087033 15.5914951,26.9877638 C15.4643208,27.1323634 15.3677035,27.3030993 15.3078794,27.4889508 L12.6684896,35.7733599 L3.80991025,40.2191002 C3.35594075,40.427181 3.04728571,40.8763953 3.00496255,41.3906153 C2.9626394,41.9048353 3.19339374,42.4021028 3.60675145,42.6874493 C4.02010915,42.9727958 4.55018785,43.0007417 4.98915434,42.76033 L14.3661126,38.0548195 C14.6974084,37.889254 14.9497026,37.5905884 15.0649741,37.2275081 L17.4506026,29.739351 L24.7852566,33.7883771 L18.8428977,44.902022 C18.6072781,45.342855 18.6156125,45.8809775 18.8647614,46.3136839 C19.1139103,46.7463904 19.5660221,47.0079425 20.0507906,47 C20.5355591,46.9916895 20.9793364,46.7151191 21.214956,46.2742861 L27.8303932,33.9013206 C28.0065642,33.5696262 28.0474466,33.1782619 27.9438779,32.8149386 C27.8403093,32.4516153 27.6009507,32.1467163 27.2794461,31.9685742 Z M31,17 C34.8598,17 38,13.8598 38,10 C38,6.1402 34.8598,3 31,3 C27.1402,3 24,6.1402 24,10 C24,13.8598 27.1402,17 31,17 Z M30,5 C32.2053333,5 34,6.79466667 34,9 C34,11.2053333 32.2053333,13 30,13 C27.7946667,13 26,11.2053333 26,9 C26,6.79466667 27.7946667,5 30,5 Z" id="形状" stroke="#979797" stroke-width="0.8" fill="#000000" fill-rule="nonzero"></path>
                    </g>
                </g>
            </g>
        </g>
    </g>
</svg>