<?xml version="1.0" encoding="UTF-8"?>
<svg width="50px" height="50px" viewBox="0 0 50 50" version="1.1" xmlns="http://www.w3.org/2000/svg" xmlns:xlink="http://www.w3.org/1999/xlink">
    <title>佩戴口罩</title>
    <defs>
        <filter id="filter-1">
            <feColorMatrix in="SourceGraphic" type="matrix" values="0 0 0 0 0.862745 0 0 0 0 0.862745 0 0 0 0 0.862745 0 0 0 1.000000 0"></feColorMatrix>
        </filter>
    </defs>
    <g id="页面-1" stroke="none" stroke-width="1" fill="none" fill-rule="evenodd">
        <g id="三体官网-算法商场" transform="translate(-387.000000, -2396.000000)">
            <g id="编组-8备份-3" transform="translate(360.000000, 2271.000000)">
                <g id="佩戴口罩" transform="translate(0.000000, 92.000000)" filter="url(#filter-1)">
                    <g transform="translate(27.000000, 33.000000)">
                        <rect id="矩形" fill="#000000" fill-rule="nonzero" opacity="0" x="0" y="0" width="50" height="50"></rect>
                        <path d="M41.9899647,16.4337241 C41.9007756,15.4704881 41.1994453,14.6755645 40.2554941,14.4677866 L33.8547294,12.9736308 C28.3208138,11.711624 22.5781161,11.6760366 17.0290118,12.8693622 L9.7096,14.490807 C8.76319463,14.6756193 8.05789159,15.4722147 7.98838824,16.4348074 C4.60190272,16.7269534 2.00120312,19.5629544 2,22.9650024 L2,27.2229538 C2.00135254,30.6368199 4.62011573,33.4782178 8.01977647,33.7545029 C8.14098395,34.5900793 8.78072081,35.2554365 9.61029412,35.4087179 L16.7505765,37.0707868 C19.5221054,37.6896248 22.3532719,38.0012378 25.1929294,38 C28.2088777,38.0013114 31.2146834,37.6504754 34.1494,36.9546018 L40.3634588,35.4276758 C41.1932583,35.261747 41.8301577,34.5930934 41.9561412,33.7555862 C45.366103,33.4919191 47.9989957,30.6461015 48,27.2229538 L48,22.9650024 C47.9986643,19.5547924 45.385548,16.7150437 41.9899647,16.4337241 Z M5,26.6580819 L5,22.3421926 C5.00104523,20.695777 6.26542414,19.2871777 8,19 L8,30 C6.26553322,29.7128405 5.00118755,28.3043939 5,26.6580819 L5,26.6580819 Z M33.5944856,34.022463 C28.2366239,35.2879767 22.6614755,35.3252249 17.2871492,34.131414 L11,32.6710832 L11,17.2600442 L17.5429201,15.8138162 C22.7472431,14.6966451 28.1331798,14.7300557 33.3232134,15.9117062 L39,17.2340508 L39,32.6968 L33.5944856,34.022463 Z M45,26.6552868 C44.9994913,28.3095229 43.7322084,29.7224221 42,30 L42,19 C43.7316587,19.2776271 44.9986563,20.689882 44.9997086,22.343616 L44.9997086,26.656384 L45,26.6552868 Z" id="形状" fill="#5288F5" fill-rule="nonzero"></path>
                        <path d="M30.9837082,20.9997508 C27.1265669,19.9891994 23.031038,19.9816691 19.1693533,20.9780281 L18,17.9295193 C22.5653186,16.6977338 27.4297112,16.6897144 32,17.9064389 L30.9837082,20.9997508 Z" id="路径" fill="#F79C42" fill-rule="nonzero"></path>
                    </g>
                </g>
            </g>
        </g>
    </g>
</svg>