<?xml version="1.0" encoding="UTF-8"?>
<svg width="50px" height="50px" viewBox="0 0 50 50" version="1.1" xmlns="http://www.w3.org/2000/svg" xmlns:xlink="http://www.w3.org/1999/xlink">
    <title>脱岗</title>
    <defs>
        <filter id="filter-1">
            <feColorMatrix in="SourceGraphic" type="matrix" values="0 0 0 0 0.862745 0 0 0 0 0.862745 0 0 0 0 0.862745 0 0 0 1.000000 0"></feColorMatrix>
        </filter>
    </defs>
    <g id="页面-1" stroke="none" stroke-width="1" fill="none" fill-rule="evenodd">
        <g id="三体官网-算法商场" transform="translate(-996.000000, -2601.000000)">
            <g id="编组-8备份-3" transform="translate(360.000000, 2271.000000)">
                <g id="脱岗" transform="translate(609.000000, 297.000000)" filter="url(#filter-1)">
                    <g transform="translate(27.000000, 33.000000)">
                        <rect id="矩形" fill="#000000" fill-rule="nonzero" opacity="0" x="0" y="0" width="50" height="50"></rect>
                        <path d="M22.3584745,4 C26.968278,3.99761546 30.9840688,7.27495931 32.0865597,11.9392297 C33.1890505,16.6035001 31.093363,21.4494714 27.0098443,23.6783925 C28.1530766,23.9618726 29.2662677,24.3601361 30.3360661,24.8644873 C31.385837,25.3601428 32.3888773,25.9566685 33.3284974,26.6436295 C34.0517437,27.205528 34.2155873,28.2646227 33.6984296,29.0348934 C33.1812718,29.8051642 32.1703261,30.0077698 31.4158782,29.4923441 C28.8301557,27.6050762 25.7473453,26.5978407 22.5904588,26.6088467 C14.163919,26.6088467 7.33790443,33.6228062 7.33790443,42.2611243 C7.33776334,43.2215219 6.59058931,44 5.66895222,44 C4.74731513,44 4,43.2215219 4,42.2611243 C4,33.3741089 9.88472555,25.9114508 17.8556414,23.7566539 C13.7105033,21.5837305 11.5408477,16.728012 12.6130422,12.0236461 C13.6852367,7.31928016 17.7183948,3.99868573 22.3584745,4 Z M22.5,8 C18.9101491,8 16,11.1340068 16,15 C16,18.8659932 18.9101491,22 22.5,22 C26.0898509,22 29,18.8659932 29,15 C29,11.1340068 26.0898509,8 22.5,8 Z" id="形状" fill="#4C4A4A" fill-rule="nonzero"></path>
                        <path d="M39.8947127,32.0369373 L40.0554147,32.1795327 L45.2810007,37.3495313 C45.9431545,38.0054732 46.004285,39.0481443 45.4232312,39.7754819 L45.2810007,39.9363588 L40.0554147,45.1063574 C39.3639681,45.7926226 38.2515612,45.8255921 37.5198617,45.1815062 C36.7881622,44.5374202 36.6914701,43.4401289 37.2994676,42.6804069 L37.4435452,42.5213581 L39.5141998,40.4701776 L27.6665827,40.4701776 C26.6892683,40.4691045 25.8819323,39.7147681 25.8246572,38.7491698 C25.7673821,37.7835716 26.4799918,36.940924 27.4504662,36.8266814 L27.6665827,36.8138844 L39.5141998,36.8138844 L37.4435452,34.7663601 C36.7797491,34.1106485 36.7177951,33.066693 37.2994676,32.3385815 L37.4435452,32.1795327 C38.1058209,31.5236344 39.1593579,31.4623455 39.8947127,32.0369373 L39.8947127,32.0369373 Z" id="路径" fill="#E02020" fill-rule="nonzero"></path>
                    </g>
                </g>
            </g>
        </g>
    </g>
</svg>