<?xml version="1.0" encoding="UTF-8"?>
<svg width="50px" height="50px" viewBox="0 0 50 50" version="1.1" xmlns="http://www.w3.org/2000/svg" xmlns:xlink="http://www.w3.org/1999/xlink">
    <title>跌倒</title>
    <defs>
        <filter id="filter-1">
            <feColorMatrix in="SourceGraphic" type="matrix" values="0 0 0 0 0.862745 0 0 0 0 0.862745 0 0 0 0 0.862745 0 0 0 1.000000 0"></feColorMatrix>
        </filter>
    </defs>
    <g id="页面-1" stroke="none" stroke-width="1" fill="none" fill-rule="evenodd">
        <g id="三体官网-算法商场" transform="translate(-387.000000, -2601.000000)">
            <g id="编组-8备份-3" transform="translate(360.000000, 2271.000000)">
                <g id="跌倒" transform="translate(0.000000, 297.000000)" filter="url(#filter-1)">
                    <g transform="translate(27.000000, 33.000000)">
                        <rect id="矩形" fill="#000000" fill-rule="nonzero" opacity="0" x="0" y="0" width="50" height="50"></rect>
                        <path d="M12.0215198,16 L13.0140754,16 C14.6021644,16 15.9917423,15.6018962 17.1828091,14.6066366 C18.7708981,13.4123252 19.5649426,11.8199098 19.9619649,10.0284426 C20.1604761,8.03792349 19.5649426,6.24645628 18.572387,4.85309292 C16.1902535,1.66826235 11.8230086,1.07110658 8.84534166,3.45972956 C5.66916361,5.84835248 5.07363019,10.2274945 7.45576378,13.2132732 C8.64683057,14.8056885 10.2349196,15.6018962 12.0215198,16 Z M11.0165975,5.59999999 C11.5145228,5.19999996 12.0124481,5 12.5103734,5 C13.340249,5 14.0041494,5.40000002 14.5020747,6.20000002 C14.8340249,6.8 15,7.6 15,8.4 C14.8340249,9.2 14.5020747,10 14.0041494,10.4 C13.506224,10.8 12.8423237,11 12.1784232,11 C11.5145228,11 10.8506224,10.4 10.5186722,9.80000003 C9.68879668,8.60000001 9.85477179,6.60000004 11.0165975,5.59999999 L11.0165975,5.59999999 Z M42.8127054,30.7268675 L32.7444478,26.6964699 C32.1745464,26.5045462 31.604645,26.3126225 30.8447765,26.3126225 L22.8661572,25.9287751 L19.636716,17.86798 C21.3464202,16.9083615 22.8661572,16.1406667 24.0059599,15.7568193 C24.7658284,15.3729719 25.5256969,14.7972008 26.0955983,14.2214297 L31.0347436,8.07987151 C31.604645,7.31217674 31.604645,5.96871085 30.8447765,5.39293978 C29.8949408,4.81716871 28.7551381,4.81716871 27.9952696,5.77678719 L23.0561243,11.9183454 C22.8661572,12.1102691 22.67619,12.3021928 22.2962558,12.4941165 C20.9664859,12.8779639 18.4969132,14.2214297 16.2173077,15.3729719 C13.7477351,16.9083615 11.6580967,18.6356747 10.8982282,19.5952932 C10.3283268,19.9791406 9.94839256,20.5549117 9.56845833,21.1306827 L6.14905006,28.2318595 C5.76911578,29.1914779 6.14905006,30.3430201 6.90891856,30.7268675 C7.09888569,30.9187912 7.47881992,30.9187912 7.66878706,30.9187912 C8.42865556,30.9187912 8.99855692,30.5349438 9.3784912,29.767249 L12.7978995,22.6660723 C12.9878666,22.4741486 12.9878666,22.2822249 13.1778337,22.0903012 C13.7477351,21.5145302 14.6975707,20.7468354 16.0273406,19.7872169 L22.1062887,34.3734177 C22.2962558,34.5653414 22.2962558,34.9491888 22.2962558,35.3330362 L23.0561243,46.080763 C23.0561243,47.0403815 24.0059599,48 24.9557956,48 C26.0955983,48 26.8554668,47.0403815 26.8554668,46.080763 L26.4755326,35.5249598 C26.4755326,34.7572651 26.2855654,33.9895703 26.0955983,33.0299518 L24.7658284,29.767249 L30.8447765,29.9591727 C31.0347436,29.9591727 31.2247108,29.9591727 31.4146778,30.1510964 L41.4829356,34.181494 C41.6729027,34.181494 41.8628699,34.3734177 42.2428041,34.3734177 C43.0026726,34.3734177 43.7625411,33.9895703 43.9525082,33.2218755 C44.1424754,32.262257 43.7625411,31.1107148 42.8127054,30.7268675 Z" id="形状" fill="#000000" fill-rule="nonzero"></path>
                    </g>
                </g>
            </g>
        </g>
    </g>
</svg>