<?xml version="1.0" encoding="UTF-8"?>
<svg width="50px" height="50px" viewBox="0 0 50 50" version="1.1" xmlns="http://www.w3.org/2000/svg" xmlns:xlink="http://www.w3.org/1999/xlink">
    <title>玩手机</title>
    <defs>
        <filter id="filter-1">
            <feColorMatrix in="SourceGraphic" type="matrix" values="0 0 0 0 0.862745 0 0 0 0 0.862745 0 0 0 0 0.862745 0 0 0 1.000000 0"></feColorMatrix>
        </filter>
    </defs>
    <g id="页面-1" stroke="none" stroke-width="1" fill="none" fill-rule="evenodd">
        <g id="三体官网-算法商场" transform="translate(-996.000000, -2396.000000)">
            <g id="编组-8备份-3" transform="translate(360.000000, 2271.000000)">
                <g id="玩手机" transform="translate(609.000000, 92.000000)" filter="url(#filter-1)">
                    <g transform="translate(27.000000, 33.000000)">
                        <rect id="矩形" fill="#000000" fill-rule="nonzero" opacity="0" x="0" y="0" width="50" height="50"></rect>
                        <path d="M16.5,9 C15.675,9 15,9.675 15,10.5 C15,11.325 15.675,12 16.5,12 L22.5,12 C23.325,12 24,11.325 24,10.5 C24,9.675 23.325,9 22.5,9 L16.5,9 Z M20.354259,41.0449844 C19.9646497,41.3408706 19.4889484,41.5007008 19,41.5 C17.7592824,41.5 16.7535101,40.4926563 16.7535101,39.25 C16.7535101,38.0073438 17.7592824,37 19,37 C19.0222777,37 19.0442746,37.0010313 19.0664119,37.0016875 C19.1109204,36.6714531 19.194181,36.3520938 19.3276131,36.0625 C19.6084243,35.453125 20.0131201,34.8734219 20.450858,34.46875 C21.0592824,33.90625 21.7613105,33.578125 22.2293292,33.390625 L21.7175975,32.5 L7.01872075,32.5 L7.01872075,10 C7.01872075,8.35 8.36661466,7 10.0140406,7 L27.9859594,7 C29.6333853,7 30.9812793,8.35 30.9812793,10 L30.9812793,19.6248906 C31.9236817,19.2765156 33.0517005,19.3697969 34,19.8549062 L34,10 C34,6.7 31.3042122,4 28.0093604,4 L9.99063963,4 C6.69578783,4 4,6.7 4,10 L4,40 C4,43.3 6.69578783,46 9.99063963,46 L28.0093604,46 C28.5124337,46 29.0014197,45.9367656 29.469064,45.8183594 L21.4526521,41.8727969 C21.0667707,41.6827187 20.6880031,41.3880156 20.354259,41.0449844 Z M44.00725,39.9958 L43.99375,40.0036 L43.99275,40.0042 L44.00725,39.9958 Z M44.8596942,30.9652611 L39.7633251,22.1850821 C38.7485412,20.4367544 36.6248075,19.7445241 35.0097574,20.6720137 C34.7096477,20.8443939 34.4399247,21.0691889 34.2136919,21.3300016 C33.1427842,20.631231 31.8025292,20.545368 30.7403571,21.1553323 C30.2075803,21.4612721 29.7818379,21.928287 29.498448,22.5013461 C28.5584801,22.1288834 27.5304989,22.1780748 26.6705133,22.6719511 C26.3435394,22.8597007 26.0592102,23.1058914 25.8241478,23.3979568 L23.7681384,19.8558004 C22.7515228,18.104296 20.5182656,17.4792426 18.7884786,18.472601 C17.0586917,19.4659595 16.486323,21.7022307 17.5029855,23.4537351 L23.7014943,34.132619 C23.0620118,34.1462599 22.4253473,34.3198547 21.8555147,34.6470968 C21.2029758,35.0175975 20.6771499,35.5682331 20.3428963,36.2316867 C19.8950332,37.1174127 19.8197005,38.1340355 20.1352148,39.0573207 C20.4504943,39.9806059 21.1281128,40.735762 22.0195653,41.1573695 L29.987312,44.9231997 C30.0331973,44.9405311 30.0811022,44.9609925 30.1237938,44.9801459 L30.2711716,45.0483505 C30.3440255,45.0724413 30.4150607,45.1016658 30.4837375,45.1358019 C30.6975715,45.2484797 30.7598948,45.2783309 30.8665535,45.3304654 C32.4273115,46.1060362 33.512121,46.255666 34.7833836,45.5255961 L44.0601532,40.19816 C46.2143205,38.9604327 46.7087735,34.1198189 44.8596942,30.9652611 L44.8596942,30.9652611 Z M42.051042,37.9802256 L33.5113939,42.9040713 C32.9870366,43.2064423 32.0945444,42.7565435 30.8110968,42.0785065 L23.5796891,38.6672662 C23.3872635,38.6157768 22.9428722,38.2221974 23.0975451,37.6456854 C23.1662887,37.3894579 23.5024935,37.033159 24.1314687,36.9953627 L28.849511,37.0906977 L20.1861339,22.1051844 C19.7870082,21.4148143 20.129505,21.1631824 20.2921605,21.0693948 C20.3734883,21.0225011 20.8442689,20.8051953 21.2433946,21.4955654 L24.5768461,27.2616232 L24.5765644,27.2618107 L27.2060989,31.8101311 L29.8085867,30.3095305 L27.6257914,26.5339257 L27.6259322,26.5333629 C27.4615863,26.2490929 27.3487981,25.7726522 27.7554368,25.5381834 C28.1141805,25.331335 28.4520287,25.4491321 28.8190366,26.0658321 L31.3056371,30.3669285 L33.9081249,28.8663279 L31.7489954,25.1316613 L31.7489954,25.1307703 C31.4672595,24.6434034 31.5171268,24.0731752 31.8893937,23.9668201 C32.4636183,23.8027857 32.7648879,24.2651583 33.0968666,24.836465 L35.7037683,29.3656059 L38.3063501,27.8650053 L36.119,24.0815223 L36.1240243,24.070174 C35.9596784,23.7859039 36.0349488,23.4696055 36.313069,23.3655482 C36.5805772,23.2654769 36.9419504,23.3278925 37.2339226,23.8329384 L41.9593839,32.0068036 C43.3921046,34.3913048 43.2710051,37.2768191 42.051042,37.9802256 Z" id="形状" fill="#000000" fill-rule="nonzero"></path>
                    </g>
                </g>
            </g>
        </g>
    </g>
</svg>