<?xml version="1.0" encoding="UTF-8"?>
<svg width="30px" height="30px" viewBox="0 0 30 30" version="1.1" xmlns="http://www.w3.org/2000/svg" xmlns:xlink="http://www.w3.org/1999/xlink">
    <title>几何标识02</title>
    <g id="页面-1" stroke="none" stroke-width="1" fill="none" fill-rule="evenodd">
        <g id="三体官网-行业方案" transform="translate(-1066.000000, -986.000000)" fill-rule="nonzero">
            <g id="编组-8备份" transform="translate(360.000000, 806.000000)">
                <g id="编组-3" transform="translate(0.000000, 91.000000)">
                    <g id="编组-8" transform="translate(706.000000, 37.000000)">
                        <g id="几何标识02" transform="translate(0.000000, 52.000000)">
                            <rect id="矩形" fill="#000000" opacity="0" x="0" y="0" width="30" height="30"></rect>
                            <path d="M17.2097087,10.978107 L23.396893,17.1652913 C24.8700322,18.6384304 24.8700322,20.1115696 23.396893,21.5847087 L17.2097087,27.771893 C15.7365696,29.2450321 14.2634304,29.2450321 12.7902913,27.771893 L6.60310696,21.5847087 C5.12996784,20.1115696 5.12996784,18.6384304 6.60310696,17.1652913 L12.7902913,10.978107 C14.2634304,9.50496786 15.7365696,9.50496786 17.2097087,10.978107 Z" id="路径" fill="#EFDAFF"></path>
                            <path d="M17.2097087,2.22810697 L23.396893,8.4152913 C24.8700322,9.88843042 24.8700322,11.3615696 23.396893,12.8347087 L17.2097087,19.021893 C15.7365696,20.4950321 14.2634304,20.4950321 12.7902913,19.021893 L6.60310696,12.8347087 C5.12996784,11.3615696 5.12996784,9.88843044 6.60310696,8.4152913 L12.7902913,2.22810697 C14.2634304,0.754967852 15.7365696,0.754967852 17.2097087,2.22810697 Z" id="路径" fill="#C9D2FF"></path>
                            <path d="M17.21,10.978125 L21.23125,14.999375 L17.21,19.021875 C16.6239252,19.6081044 15.8289443,19.9374577 15,19.9374577 C14.1710557,19.9374577 13.3760748,19.6081044 12.79,19.021875 L8.76812499,14.999375 L12.79,10.978125 C13.3760748,10.3918956 14.1710557,10.0625423 15,10.0625423 C15.8289443,10.0625423 16.6239252,10.3918956 17.21,10.978125 L17.21,10.978125 Z" id="路径" fill="#BCA7F9"></path>
                        </g>
                    </g>
                </g>
            </g>
        </g>
    </g>
</svg>