<?xml version="1.0" encoding="UTF-8"?>
<svg width="40px" height="40px" viewBox="0 0 40 40" version="1.1" xmlns="http://www.w3.org/2000/svg" xmlns:xlink="http://www.w3.org/1999/xlink">
    <title>7*24小时服务</title>
    <defs>
        <filter id="filter-1">
            <feColorMatrix in="SourceGraphic" type="matrix" values="0 0 0 0 1.000000 0 0 0 0 1.000000 0 0 0 0 1.000000 0 0 0 1.000000 0"></feColorMatrix>
        </filter>
    </defs>
    <g id="页面-1" stroke="none" stroke-width="1" fill="none" fill-rule="evenodd">
        <g id="三体官网-首页" transform="translate(-414.000000, -2930.000000)">
            <g id="编组-10" transform="translate(0.000000, 2900.000000)">
                <g id="编组-12" transform="translate(362.000000, 0.000000)">
                    <g id="7*24小时服务" transform="translate(52.000000, 30.000000)">
                        <circle id="椭圆形" stroke="#FFFFFF" stroke-width="2" cx="20" cy="20" r="19"></circle>
                        <g filter="url(#filter-1)" id="电话咨询-电话">
                            <g transform="translate(10.000000, 10.000000)">
                                <rect id="矩形" fill="#000000" fill-rule="nonzero" opacity="0" x="0" y="0" width="20" height="20"></rect>
                                <path d="M17.6171875,0.796875 C15.1914062,-1.11328125 13.3320312,2.5 12.3007812,3.73828125 C11.2148437,4.9765625 11.734375,6.62890625 12.765625,7.1953125 C13.3320312,7.50390625 13.6445312,8.01953125 12.3007812,10.0351562 C11.6796875,10.9648438 10.234375,12.7695312 8.2734375,13.03125 C7.70703125,13.0820312 7.2421875,12.6171875 6.7265625,12 C6.16015625,11.328125 4.04296875,12.0507812 2.6484375,13.1875 C1.3046875,14.21875 0.16796875,15.2539063 0.16796875,16.0273438 C0.21875,16.90625 2.02734375,19.8984375 5.17578125,19.7460938 C11.2148437,19.3828125 17.8242187,10.96875 19.1132812,7.9765625 C20.4570312,4.82421875 19.890625,2.60546875 17.6171875,0.796875 Z M17.6171875,8.0234375 C16.328125,10.5546875 10.6484375,17.9882812 5.07421875,18.3476562 C4.09375,18.3984375 3.3203125,17.8828125 2.85546875,17.5234375 C2.234375,17.0585937 1.9765625,16.6445312 1.66796875,16.0273437 C1.51171875,15.7695312 2.69921875,14.7890625 3.6796875,14.1171875 C4.50390625,13.4960937 5.640625,12.828125 6.0546875,13.2382812 C6.36328125,13.546875 7.03515625,14.4257812 8.171875,14.4765625 C10.234375,14.53125 13.125,11.484375 14.0546875,9.5234375 C14.7265625,8.12890625 14.5195312,6.890625 13.6914062,6.375 C12.7109375,5.75390625 13.0195312,5.13671875 13.4335937,4.46484375 C14.5703125,2.65625 15.7070312,1.00390625 16.84375,1.828125 C17.6679687,2.44921875 18.1875,3.06640625 18.4453125,4.203125 C18.5976562,5.08203125 18.2382812,6.734375 17.6171875,8.0234375 Z" id="形状" fill="#000000" fill-rule="nonzero"></path>
                            </g>
                        </g>
                    </g>
                </g>
            </g>
        </g>
    </g>
</svg>