<?xml version="1.0" encoding="UTF-8"?>
<svg width="50px" height="50px" viewBox="0 0 50 50" version="1.1" xmlns="http://www.w3.org/2000/svg" xmlns:xlink="http://www.w3.org/1999/xlink">
    <title>烟火</title>
    <g id="页面-1" stroke="none" stroke-width="1" fill="none" fill-rule="evenodd">
        <g id="三体官网-算法商场" transform="translate(-1301.000000, -1487.000000)" fill-rule="nonzero">
            <g id="编组-8备份" transform="translate(360.000000, 1362.000000)">
                <g id="服务器租用备份-4" transform="translate(914.000000, 92.000000)">
                    <g id="烟火" transform="translate(27.000000, 33.000000)">
                        <rect id="矩形" fill="#000000" opacity="0" x="0" y="0" width="50" height="50"></rect>
                        <path d="M22.4149578,47.4691709 L20.5221949,47.1372467 C16.2443039,46.3856578 8.15365552,42.7428849 8.15365552,34.3408482 C8.15365552,27.4214534 11.5921174,23.4686913 15.5723608,18.8918535 C18.610295,15.398579 22.0542531,11.4417196 25.1065275,5.18617339 L26.4013471,2.53082905 L27.6425531,5.21080664 C27.7961486,5.54133188 31.0096634,12.5827937 31.7145841,22.1286525 C33.6567134,19.4774554 34.7086981,17.0156294 34.7223888,16.9827018 L35.9622457,14.0489467 L37.2925411,16.9415297 C37.6217172,17.6574429 45.2722149,34.5273214 39.9959028,42.7579246 C38.125075,45.677939 34.9541812,47.1591817 30.5707619,47.1591817 L29.8877264,47.1591817 L29.4666626,46.6201982 C26.3244494,42.6222168 24.0922672,37.9671823 22.9197146,33.011802 C21.2217692,38.4101811 22.1447416,45.4763261 22.1570332,45.5654655 L22.4149578,47.4691709 Z M24.4954931,25.1611904 L25.0900887,29.3786226 C25.8526702,34.8208718 27.9786245,39.9751169 31.2523984,44.3365012 C34.2916817,44.2076388 36.3833094,43.1899309 37.6313607,41.2423552 C40.733851,36.4022964 38.0455291,26.5600392 35.8840488,20.8696086 C34.8979194,22.5785965 33.4098313,24.8059819 31.4402207,26.7753927 L29.0427509,29.1728625 L29.0427509,25.7824679 C29.0427509,18.7231183 27.3449554,12.5827937 26.1749011,9.19239917 C23.3297358,14.2533577 20.2451333,17.801495 17.6913699,20.7352 C13.7851761,25.2255466 10.9625955,28.4733381 10.9625955,34.3408482 C10.9625955,40.3796918 16.2731343,42.9403006 19.1780089,43.886707 C18.9284287,40.1698345 18.8982991,32.3246692 22.4601771,27.7671184 L24.4954931,25.1611904 Z" id="形状" fill="#DCDCDC"></path>
                    </g>
                </g>
            </g>
        </g>
    </g>
</svg>