<?xml version="1.0" encoding="UTF-8"?>
<svg width="45px" height="45px" viewBox="0 0 45 45" version="1.1" xmlns="http://www.w3.org/2000/svg" xmlns:xlink="http://www.w3.org/1999/xlink">
    <title>强劲算力</title>
    <defs>
        <linearGradient x1="25.6077881%" y1="11.6933594%" x2="73.7611084%" y2="82.6867676%" id="linearGradient-1">
            <stop stop-color="#C6CFFF" offset="0%"></stop>
            <stop stop-color="#EED8FF" offset="99.993427%"></stop>
        </linearGradient>
        <rect id="path-2" x="0" y="0" width="45" height="45" rx="22.5"></rect>
    </defs>
    <g id="页面-1" stroke="none" stroke-width="1" fill="none" fill-rule="evenodd">
        <g id="三体官网-核心产品-AI边缘计算盒" transform="translate(-420.000000, -2261.000000)">
            <g id="编组-8备份-5" transform="translate(360.000000, 2122.000000)">
                <g id="编组-6" transform="translate(0.000000, 92.000000)">
                    <g id="强劲算力" transform="translate(60.000000, 47.000000)">
                        <mask id="mask-3" fill="white">
                            <use xlink:href="#path-2"></use>
                        </mask>
                        <use id="蒙版" fill="url(#linearGradient-1)" xlink:href="#path-2"></use>
                        <g id="高算力" mask="url(#mask-3)" fill-rule="nonzero">
                            <g transform="translate(10.000000, 10.000000)">
                                <rect id="矩形" fill="#000000" opacity="0" x="0" y="0" width="25" height="25"></rect>
                                <path d="M21.6346154,2.67857143 C22.5070432,2.67857143 23.2142857,3.38581393 23.2142857,4.25824176 L23.2142857,21.6346154 C23.2142857,22.5070432 22.5070432,23.2142857 21.6346154,23.2142857 L4.25824176,23.2142857 C3.38581393,23.2142857 2.67857143,22.5070432 2.67857143,21.6346154 L2.67857143,4.25824176 C2.67857143,3.38581393 3.38581393,2.67857143 4.25824176,2.67857143 L21.6346154,2.67857143 Z M21.6346154,4.25824176 L4.25824176,4.25824176 L4.25824176,21.6346154 L21.6346154,21.6346154 L21.6346154,4.25824176 Z M13.3342376,7.41758242 L14.5012191,7.62293956 L12.5807349,18.4752747 L11.4141484,18.2699176 L13.3342376,7.41758242 Z M9.86607143,10.1820055 L10.9718407,11.2877747 L9.31318681,12.9464286 L10.9718407,14.6050824 L9.86607143,15.7108516 L8.20741758,14.0521978 L6.54876374,15.7108516 L5.44299451,14.6050824 L7.10164835,12.9464286 L5.44299451,11.2877747 L6.54876374,10.1820055 L8.20741758,11.8406593 L9.86607143,10.1820055 Z" id="形状" fill="#FFFFFF"></path>
                                <path d="M19.6428571,13.6904762 L19.6428571,15.1785714 L14.2857143,15.1785714 L14.2857143,13.6904762 L19.6428571,13.6904762 Z M19.6428571,10.7142857 L19.6428571,12.202381 L14.2857143,12.202381 L14.2857143,10.7142857 L19.6428571,10.7142857 Z" id="形状" fill="#FFFFFF"></path>
                            </g>
                        </g>
                    </g>
                </g>
            </g>
        </g>
    </g>
</svg>