<?xml version="1.0" encoding="UTF-8"?>
<svg width="45px" height="45px" viewBox="0 0 45 45" version="1.1" xmlns="http://www.w3.org/2000/svg" xmlns:xlink="http://www.w3.org/1999/xlink">
    <title>算法丰富</title>
    <defs>
        <linearGradient x1="25.6077881%" y1="11.6933594%" x2="73.7611084%" y2="82.6867676%" id="linearGradient-1">
            <stop stop-color="#C6CFFF" offset="0%"></stop>
            <stop stop-color="#EED8FF" offset="99.993427%"></stop>
        </linearGradient>
        <rect id="path-2" x="0" y="0" width="45" height="45" rx="22.5"></rect>
    </defs>
    <g id="页面-1" stroke="none" stroke-width="1" fill="none" fill-rule="evenodd">
        <g id="三体官网-核心产品-AI边缘计算盒" transform="translate(-420.000000, -2461.000000)">
            <g id="编组-8备份-5" transform="translate(360.000000, 2122.000000)">
                <g id="编组-6备份-2" transform="translate(0.000000, 292.000000)">
                    <g id="算法丰富" transform="translate(60.000000, 47.000000)">
                        <mask id="mask-3" fill="white">
                            <use xlink:href="#path-2"></use>
                        </mask>
                        <use id="蒙版" fill="url(#linearGradient-1)" xlink:href="#path-2"></use>
                        <g id="算法库" mask="url(#mask-3)" fill-rule="nonzero">
                            <g transform="translate(10.000000, 10.000000)">
                                <rect id="矩形" fill="#000000" opacity="0" x="0" y="0" width="25" height="25"></rect>
                                <path d="M20.7470703,12.4609375 C20.8325195,12.3510742 20.9130859,12.2387695 20.9912109,12.1289062 C22.3852539,10.1660156 22.7294922,8.35205078 21.9628906,7.01904297 C21.1962891,5.68603516 19.453125,5.07568359 17.0556641,5.29541016 C16.9165039,5.30761719 16.7773438,5.32470703 16.6357422,5.34179687 C16.5820312,5.20996094 16.5234375,5.08056641 16.4672852,4.95361328 C15.4638672,2.76611328 14.0625,1.5625 12.5244141,1.5625 C10.9863281,1.5625 9.58740234,2.77099609 8.58398438,4.95605469 C8.52539062,5.08056641 8.47167969,5.20996094 8.41552734,5.33935547 C8.27636719,5.32226562 8.13720703,5.30517578 8.00048828,5.29296875 C5.60546875,5.06835937 3.85986328,5.67871094 3.09326172,7.01171875 C2.32421875,8.34472656 2.66845703,10.1586914 4.06005859,12.121582 C4.13818359,12.2314453 4.22119141,12.34375 4.30419922,12.4536133 C4.21875,12.5634766 4.13818359,12.6757812 4.06005859,12.7856445 C2.66601562,14.7485352 2.31933594,16.5625 3.08837891,17.8955078 C3.75244141,19.050293 5.14892578,19.6630859 7.06542969,19.6630859 C7.36328125,19.6630859 7.67333984,19.6484375 7.99316406,19.6191406 C8.13232422,19.6069336 8.27148437,19.5898437 8.41308594,19.5727539 C8.46679688,19.7045898 8.52539062,19.8339844 8.58154297,19.9609375 C9.58496094,22.1484375 10.9863281,23.3520508 12.5244141,23.3520508 C14.0625,23.3520508 15.4614258,22.1484375 16.4672852,19.9609375 C16.5258789,19.8364258 16.5795898,19.7070312 16.6357422,19.5776367 C16.7749023,19.5947266 16.9140625,19.6118164 17.0507812,19.6240234 C17.3754883,19.6533203 17.6879883,19.6704102 17.9882812,19.6704102 C19.9023438,19.6704102 21.2939453,19.0576172 21.9604492,17.9077148 C22.7294922,16.574707 22.3852539,14.7607422 20.9936523,12.7978516 C20.9130859,12.6831055 20.8325195,12.5732422 20.7470703,12.4609375 L20.7470703,12.4609375 Z M7.86621094,18.2324219 C6.06933594,18.3984375 4.765625,18.0224609 4.29199219,17.199707 C3.81835937,16.3769531 4.14550781,15.0610352 5.19287109,13.5913086 L5.22949219,13.5400391 C5.84960937,14.1992188 6.56005859,14.8388672 7.34619141,15.4467773 C7.47802734,16.4282227 7.67822266,17.3608398 7.93701172,18.2250977 C7.91503906,18.2275391 7.890625,18.2299805 7.86621094,18.2324219 Z M7.17285156,13.4960937 C6.79443359,13.1542969 6.44042969,12.8076172 6.11816406,12.4560547 C6.44042969,12.1044922 6.79199219,11.7578125 7.17285156,11.4160156 C7.15820312,11.7602539 7.1484375,12.1069336 7.1484375,12.4584961 C7.1484375,12.8051758 7.15820312,13.1518555 7.17285156,13.4960937 Z M7.34863281,9.46533203 C6.5625,10.0708008 5.85205078,10.7128906 5.23193359,11.3696289 C5.21972656,11.3525391 5.20507812,11.3354492 5.1953125,11.3183594 C4.15039062,9.84375 3.82324219,8.52783203 4.296875,7.70751953 C4.69726562,7.01416016 5.68603516,6.63818359 7.06298828,6.63818359 C7.31933594,6.63818359 7.59033203,6.65039062 7.87109375,6.67724609 C7.89306641,6.6796875 7.91503906,6.68212891 7.93945313,6.68457031 C7.68066406,7.54882812 7.48046875,8.48388672 7.34863281,9.46533203 L7.34863281,9.46533203 Z M16.0961914,8.33740234 C15.8081055,8.15429687 15.5126953,7.97363281 15.2124023,7.80029297 C14.9121094,7.62695312 14.609375,7.4609375 14.3066406,7.3046875 C14.7875977,7.1484375 15.2612305,7.01904297 15.7226562,6.91650391 C15.8642578,7.36083984 15.9887695,7.83447266 16.0961914,8.33740234 L16.0961914,8.33740234 Z M12.5268555,2.95654297 C13.4692383,2.95654297 14.465332,3.93066406 15.2270508,5.60546875 C14.3505859,5.81298828 13.4448242,6.10595703 12.5317383,6.47949219 C11.6162109,6.10351562 10.7080078,5.80810547 9.83154297,5.60058594 C10.5883789,3.92822266 11.5844727,2.95654297 12.5268555,2.95654297 Z M9.32861328,6.91162109 C9.79248047,7.01416016 10.2661133,7.14355469 10.7495117,7.30224609 C10.4467773,7.45849609 10.144043,7.62451172 9.84130859,7.79785156 C9.53857422,7.97119141 9.24316406,8.15185547 8.95507813,8.33496094 C9.0625,7.83203125 9.18701172,7.35595703 9.32861328,6.91162109 Z M8.95507812,16.5771484 C9.24316406,16.7602539 9.53857422,16.940918 9.83886719,17.1142578 C10.1391602,17.2875977 10.4418945,17.4536133 10.7446289,17.6098633 C10.2636719,17.7661133 9.79003906,17.8955078 9.32861328,17.9980469 C9.18701172,17.5561523 9.0625,17.0800781 8.95507812,16.5771484 L8.95507812,16.5771484 Z M12.5268555,21.9604492 C11.5844727,21.9604492 10.5883789,20.9863281 9.82666016,19.3115234 C10.703125,19.1040039 11.6088867,18.8110352 12.5219727,18.4375 C13.4375,18.8134766 14.3457031,19.1088867 15.222168,19.3164062 C14.4628906,20.9863281 13.4667969,21.9604492 12.5268555,21.9604492 Z M15.7226563,18.0029297 C15.2587891,17.9003906 14.7851563,17.7709961 14.3017578,17.6123047 C14.6044922,17.4560547 14.9072266,17.2900391 15.2099609,17.1166992 C15.5126953,16.9433594 15.8081055,16.7626953 16.0961914,16.5795898 C15.9887695,17.0825195 15.8642578,17.5585938 15.7226563,18.0029297 Z M16.394043,14.6948242 C15.8056641,15.1220703 15.1757812,15.5297852 14.5141602,15.9106445 C13.8549805,16.2915039 13.1860352,16.628418 12.5219727,16.9238281 C11.8579102,16.628418 11.1914062,16.2890625 10.5322266,15.9082031 C9.87304687,15.5273437 9.24560547,15.1171875 8.65722656,14.6899414 C8.58154297,13.9819336 8.54003906,13.2348633 8.54003906,12.4560547 C8.54003906,11.6748047 8.58154297,10.9277344 8.65722656,10.2197266 C9.24560547,9.79248047 9.87548828,9.38476562 10.5371094,9.00390625 C11.1962891,8.62304687 11.8652344,8.28613281 12.5292969,7.99072266 C13.1933594,8.28613281 13.8598633,8.62548828 14.519043,9.00634766 C15.1782227,9.38720703 15.8056641,9.79736328 16.394043,10.2246094 C16.4697266,10.9326172 16.5112305,11.6796875 16.5112305,12.4584961 C16.5112305,13.2397461 16.4697266,13.984375 16.394043,14.6948242 L16.394043,14.6948242 Z M17.1850586,6.68212891 C17.4633789,6.65527344 17.7319336,6.64306641 17.9858398,6.64306641 C19.3676758,6.64306641 20.3588867,7.01904297 20.7592773,7.71484375 C21.2329102,8.53759766 20.9057617,9.85351562 19.8583984,11.3232422 L19.8217773,11.3745117 C19.2016602,10.715332 18.4912109,10.0756836 17.7050781,9.46777344 C17.5732422,8.48632812 17.3730469,7.55371094 17.1142578,6.68945312 C17.1386719,6.68701172 17.1606445,6.68457031 17.1850586,6.68212891 L17.1850586,6.68212891 Z M17.878418,11.4208984 C18.2568359,11.7626953 18.6108398,12.109375 18.9331055,12.4609375 C18.6108398,12.8125 18.2592773,13.1591797 17.878418,13.5009766 C17.8930664,13.1567383 17.902832,12.8100586 17.902832,12.4584961 C17.902832,12.109375 17.8955078,11.7626953 17.878418,11.4208984 L17.878418,11.4208984 Z M20.7543945,17.2094727 C20.2807617,18.0322266 18.9770508,18.4057617 17.1801758,18.2373047 C17.1582031,18.2348633 17.1362305,18.2324219 17.1118164,18.2299805 C17.3706055,17.3657227 17.5708008,16.4331055 17.7026367,15.4516602 C18.4887695,14.8461914 19.1992188,14.2041016 19.8193359,13.5473633 C19.831543,13.5644531 19.8461914,13.581543 19.855957,13.5986328 C20.9033203,15.0708008 21.2280273,16.3867188 20.7543945,17.2094727 L20.7543945,17.2094727 Z" id="形状" fill="#FFFFFF"></path>
                                <path d="M11.7773438,12.2460938 L11.1523438,12.2460938 L11.1523438,11.6210938 C11.1523438,11.4599609 10.9863281,11.328125 10.7788086,11.328125 C10.5737305,11.328125 10.4052734,11.4599609 10.4052734,11.6210938 L10.4052734,12.2460938 L9.78027344,12.2460938 C9.61914062,12.2460938 9.48730469,12.4121094 9.48730469,12.6196289 C9.48730469,12.824707 9.61914062,12.9931641 9.78027344,12.9931641 L10.4052734,12.9931641 L10.4052734,13.6181641 C10.4052734,13.7792969 10.5712891,13.9111328 10.7788086,13.9111328 C10.9838867,13.9111328 11.1523438,13.7792969 11.1523438,13.6181641 L11.1523438,12.9931641 L11.7773438,12.9931641 C11.9384766,12.9931641 12.0703125,12.8271484 12.0703125,12.6196289 C12.0703125,12.4121094 11.9384766,12.2460938 11.7773438,12.2460938 L11.7773438,12.2460938 Z M15.3564453,12.2460938 L13.3618164,12.2460938 C13.2006836,12.2460938 13.0688477,12.4121094 13.0688477,12.6196289 C13.0688477,12.824707 13.2006836,12.9931641 13.3618164,12.9931641 L15.3564453,12.9931641 C15.5175781,12.9931641 15.6494141,12.8271484 15.6494141,12.6196289 C15.6518555,12.4121094 15.5200195,12.2460938 15.3564453,12.2460938 L15.3564453,12.2460938 Z" id="形状" fill="#FFFFFF"></path>
                            </g>
                        </g>
                    </g>
                </g>
            </g>
        </g>
    </g>
</svg>