<?xml version="1.0" encoding="UTF-8"?>
<svg width="50px" height="50px" viewBox="0 0 50 50" version="1.1" xmlns="http://www.w3.org/2000/svg" xmlns:xlink="http://www.w3.org/1999/xlink">
    <title>消防通道</title>
    <defs>
        <filter id="filter-1">
            <feColorMatrix in="SourceGraphic" type="matrix" values="0 0 0 0 0.862745 0 0 0 0 0.862745 0 0 0 0 0.862745 0 0 0 1.000000 0"></feColorMatrix>
        </filter>
    </defs>
    <g id="页面-1" stroke="none" stroke-width="1" fill="none" fill-rule="evenodd">
        <g id="三体官网-算法商场" transform="translate(-387.000000, -1839.000000)">
            <g id="编组-8备份-2" transform="translate(360.000000, 1714.000000)">
                <g id="消防通道" transform="translate(0.000000, 92.000000)" filter="url(#filter-1)">
                    <g transform="translate(27.000000, 33.000000)">
                        <rect id="矩形" fill="#000000" fill-rule="nonzero" opacity="0" x="0" y="0" width="50" height="50"></rect>
                        <path d="M40.0116693,6.9986665 L10.3709507,6.9986665 C7.3529867,7.31501211 7.02963337,10.7243738 7.02963337,10.7243738 L7.02963337,42.6402681 C7.02963337,42.6402681 8.17904653,46.436415 10.7658729,46.9986665 L16.945801,46.9986665 L13.2095615,41.7966798 L13.2095615,25.3631599 L17.0898011,25.2416832 L19.424843,22.2536938 C19.424843,22.2536938 19.6757651,21.8318997 20.1431184,22.5350304 L21.8676693,27.315223 L15.5083879,40.8830739 L18.1676454,40.8830739 L24.7062801,28.4751567 C24.7062801,28.4751567 25.4245555,28.1588111 25.4969867,28.7915024 L25.4969867,33.5721167 C25.4969867,33.5721167 25.4969867,35.3643198 26.7541843,35.6456565 L36.7781364,35.6456565 L35.0173699,33.4666681 L28.2269508,33.3962285 C28.2269508,33.3962285 28.2631663,27.3506536 27.7958131,26.9288596 L25.4607711,21.2346392 C24.5631424,19.2665479 27.9760286,19.6879202 27.9760286,19.6879202 L31.4966993,23.3786186 C32.4667592,23.9408702 32.9341125,23.4136275 32.9341125,23.4136275 C33.1496813,23.2027305 32.7901124,21.9373482 32.7901124,21.9373482 L30.2395017,18.5629954 C29.5927951,17.8598646 28.7305196,17.8602864 28.7305196,17.8602864 L21.7598849,17.9657349 C21.1493939,17.8602864 20.3949029,18.0007438 20.3949029,18.0007438 L15.580819,23.5190761 L13.2095615,23.5190761 L13.2095615,10.9356926 C13.2095615,10.9356926 13.051334,10.2865515 14.2166993,10.2064107 C16.5500166,10.1764633 30.0424717,10.2017709 34.7362681,10.2127375 L34.8229268,10.2194863 L34.8380166,10.2692579 L34.8380166,31.5698601 L38.179334,35.9986981 L34.8380166,36.4204922 L34.8380166,41.2711244 C34.8380166,41.2711244 36.8859208,47.0707933 39.688316,46.8598963 C42.4907112,46.6489992 42.9218489,42.6419553 42.9218489,42.6419552 L43.0296334,11.0073976 C43.0296334,7.31501205 40.0116693,6.9986665 40.0116693,6.9986665 Z" id="路径" fill="#8FC31F" fill-rule="nonzero"></path>
                        <polygon id="路径" fill="#8FC31F" fill-rule="nonzero" points="16.0296334 40.9986665 19.4442675 46.9986665 22.0296334 46.9986665 18.7125602 40.9986665"></polygon>
                        <path d="M17.0296334,14.9986665 C17.029477,16.0704111 17.6012395,17.0608109 18.529507,17.5967284 C19.4577745,18.1326459 20.6014923,18.1326459 21.5297597,17.5967284 C22.4580272,17.0608109 23.0297898,16.0704111 23.0296334,14.9986665 C23.0297898,13.9269219 22.4580272,12.9365221 21.5297597,12.4006046 C20.6014923,11.8646871 19.4577745,11.8646871 18.529507,12.4006046 C17.6012395,12.9365221 17.029477,13.9269219 17.0296334,14.9986665 L17.0296334,14.9986665 Z" id="路径" fill="#8FC31F" fill-rule="nonzero"></path>
                    </g>
                </g>
            </g>
        </g>
    </g>
</svg>