<?xml version="1.0" encoding="UTF-8"?>
<svg width="50px" height="50px" viewBox="0 0 50 50" version="1.1" xmlns="http://www.w3.org/2000/svg" xmlns:xlink="http://www.w3.org/1999/xlink">
    <title>车辆违停</title>
    <defs>
        <filter id="filter-1">
            <feColorMatrix in="SourceGraphic" type="matrix" values="0 0 0 0 0.862745 0 0 0 0 0.862745 0 0 0 0 0.862745 0 0 0 1.000000 0"></feColorMatrix>
        </filter>
    </defs>
    <g id="页面-1" stroke="none" stroke-width="1" fill="none" fill-rule="evenodd">
        <g id="三体官网-算法商场" transform="translate(-996.000000, -1839.000000)">
            <g id="编组-8备份-2" transform="translate(360.000000, 1714.000000)">
                <g id="车辆违停" transform="translate(609.000000, 92.000000)" filter="url(#filter-1)">
                    <g transform="translate(27.000000, 33.000000)">
                        <rect id="矩形" fill="#000000" fill-rule="nonzero" opacity="0" x="0" y="0" width="50" height="50"></rect>
                        <path d="M17,14 L26.89746,14 C32.2991534,14 35,16.2968641 35,20.8905923 C35,25.4843205 32.2878645,27.7923345 26.8635936,27.8146341 L19.0997178,27.8146341 L19.0997178,38 L17,38 L17,14 Z M19,16 L19,25.9794281 L26.7317868,25.9794281 C28.4256761,26.1039219 30.111997,25.6605586 31.499722,24.7258546 C32.5515209,23.7454937 33.0954821,22.3720581 32.9859432,20.9733275 C33.096487,19.5937978 32.5507627,18.2399785 31.499722,17.2863466 C30.4630899,16.4287822 28.8852326,16 26.7661503,16 L19,16 Z" id="形状" fill="#3295FC" fill-rule="nonzero"></path>
                        <path d="M19.8097166,39 L17,39 L17,13 L26.8461539,13 C32.2550607,13 35,15.5737374 35,20.6511784 C35,25.7286195 32.2388664,28.3198653 26.8137652,28.3198653 L19.8097166,28.3198653 L19.8097166,39 Z M18.0158025,38 L19.1614815,38 L19.1614815,27.4372294 L26.8019753,27.4372294 C31.6454321,27.4372294 34,25.2294372 34,20.7012987 C34,16.1731602 31.6296296,14 26.8335802,14 L18,14 L18.0158025,38 Z M26.7292783,26.9762228 L19,26.9762228 L19,15 L26.7211849,15 C28.809304,15 30.3956271,15.5179398 31.4477801,16.5356462 C32.5271814,17.6797026 33.0917298,19.3076347 32.9855423,20.969938 C33.0994485,22.6656386 32.5359759,24.3304234 31.4477801,25.5132699 C30.0657509,26.6035462 28.3891881,27.1206968 26.7049978,26.9762228 L26.7292783,26.9762228 Z M20.0078385,25.9798316 L26.7019211,25.9798316 C28.1445259,26.1030754 29.5805756,25.6587825 30.7701049,24.7211945 C31.6368466,23.7338063 32.0807747,22.3639392 31.985073,20.9720628 C32.0894171,19.5999808 31.6427313,18.2478589 30.7701049,17.2943431 C29.9000309,16.4016927 28.5361311,16 26.7097596,16 L20,16 L20.0078385,25.9798316 Z" id="形状" fill="#3295FC" fill-rule="nonzero"></path>
                        <polygon id="路径" fill="#F8AD4B" fill-rule="nonzero" points="9 10.8230949 10.8222353 9 41 39.1769051 39.1760456 41"></polygon>
                        <path d="M25.5,6 C36.2695526,6 45,14.7304474 45,25.5 C45,36.2695526 36.2695526,45 25.5,45 C14.7304474,45 6,36.2695526 6,25.5 C6,14.7304474 14.7304474,6 25.5,6 M25,3 C12.8497355,3 3,12.8497355 3,25 C3,37.1502645 12.8497355,47 25,47 C37.1502645,47 47,37.1502645 47,25 C47,19.1652372 44.6821495,13.5694511 40.5563492,9.44365081 C36.4305489,5.31785049 30.8347628,3 25,3 Z" id="形状" fill="#3295FC" fill-rule="nonzero"></path>
                    </g>
                </g>
            </g>
        </g>
    </g>
</svg>