<?xml version="1.0" encoding="UTF-8"?>
<svg width="50px" height="50px" viewBox="0 0 50 50" version="1.1" xmlns="http://www.w3.org/2000/svg" xmlns:xlink="http://www.w3.org/1999/xlink">
    <title>杂物</title>
    <defs>
        <filter id="filter-1">
            <feColorMatrix in="SourceGraphic" type="matrix" values="0 0 0 0 0.862745 0 0 0 0 0.862745 0 0 0 0 0.862745 0 0 0 1.000000 0"></feColorMatrix>
        </filter>
    </defs>
    <g id="页面-1" stroke="none" stroke-width="1" fill="none" fill-rule="evenodd">
        <g id="三体官网-算法商场" transform="translate(-692.000000, -930.000000)">
            <g id="编组-8" transform="translate(360.000000, 805.000000)">
                <g id="杂物" transform="translate(305.000000, 92.000000)" filter="url(#filter-1)">
                    <g transform="translate(27.000000, 33.000000)">
                        <rect id="矩形" fill="#000000" fill-rule="nonzero" opacity="0" x="0" y="0" width="50" height="50"></rect>
                        <path d="M47.4072266,11.3769531 L44.2919922,11.3769531 L44.2919922,9.07714844 L42.7392578,9.07714844 L42.7392578,11.3769531 L28.1494141,11.3769531 L28.1494141,9.07714844 L26.5966797,9.07714844 L26.5966797,11.3769531 L23.4912109,11.3769531 L25.1953125,29.8339844 L19.2578125,29.8339844 L19.2578125,27.0800781 C19.2578125,24.5898438 17.7880859,22.4414062 15.6689453,21.4453125 L15.6689453,18.9794922 L19.3945313,18.9794922 L15.7421875,13.1152344 L4.44335938,13.1152344 L4.44335938,18.9794922 L7.64648438,18.9794922 C7.60253906,19.1064453 7.5390625,19.2431641 7.43164063,19.375 C6.99707031,19.8974609 6.07421875,20.1708984 4.76074219,20.1708984 L4.76074219,21.7236328 C6.6015625,21.7236328 7.91503906,21.2548828 8.65722656,20.3320312 C9.02832031,19.8681641 9.1796875,19.3896484 9.23828125,18.984375 L10.1416016,18.984375 L10.1416016,21.5673828 C8.15429688,22.6123047 6.796875,24.6875 6.796875,27.0849609 L6.796875,41.0644531 L14.0820313,41.0644531 C14.2822266,43.1152344 16.0009766,44.7314453 18.1054688,44.7314453 L30.5322266,44.7314453 C32.5390625,44.7314453 34.2041016,43.2617188 34.5263672,41.3476562 L44.3359375,41.3476562 L47.4072266,11.3769531 Z M42.6513672,12.9296875 C42.1240234,16.5527344 39.0966797,19.3457031 35.4443359,19.3457031 C31.7919922,19.3457031 28.7695313,16.5527344 28.2421875,12.9296875 L42.6513672,12.9296875 Z M25.1953125,12.9296875 L26.6748047,12.9296875 C27.2167969,17.4121094 30.9375,20.8984375 35.4443359,20.8984375 C39.9511719,20.8984375 43.6767578,17.4169922 44.2138672,12.9296875 L45.6835938,12.9296875 L43.2714844,36.5087891 L33.7011719,36.5087891 C34.2529297,35.8154297 34.5947266,34.9511719 34.5947266,33.9941406 L34.5947266,33.8964844 C34.5947266,31.6552734 32.7734375,29.8339844 30.5322266,29.8339844 L26.7578125,29.8339844 L25.1953125,12.9296875 Z M15.5908203,33.9941406 L15.5908203,33.8964844 C15.5908203,32.5097656 16.71875,31.3818359 18.1054688,31.3818359 L30.5322266,31.3818359 C31.6455078,31.3818359 32.5830078,32.1142578 32.9101563,33.1201172 L18.2275391,33.1201172 L18.2275391,34.6728516 L32.9443359,34.6728516 C32.6464844,35.7275391 31.6845703,36.5087891 30.5371094,36.5087891 L18.1054688,36.5087891 C16.71875,36.5039062 15.5908203,35.3808594 15.5908203,33.9941406 Z M5.99609375,14.6679687 L14.8779297,14.6679687 L16.5966797,17.4267578 L5.99609375,17.4267578 L5.99609375,14.6679687 Z M11.6943359,18.9746094 L14.1162109,18.9746094 L14.1162109,20.9472656 C13.7597656,20.8837891 13.3984375,20.8447266 13.0273438,20.8447266 C12.5683594,20.8447266 12.1240234,20.8984375 11.6943359,20.9912109 L11.6943359,18.9746094 Z M8.34960938,27.0751953 C8.34960938,24.4970703 10.4492188,22.3974609 13.0273438,22.3974609 C15.6054688,22.3974609 17.7050781,24.4970703 17.7050781,27.0751953 L17.7050781,29.8730469 C15.6542969,30.078125 14.0429688,31.7919922 14.0429688,33.8964844 L14.0429688,33.9941406 C14.0429688,35.3515625 14.7167969,36.5429688 15.7373047,37.2802734 C14.9951172,37.8173828 14.4482422,38.5986328 14.1992188,39.5117188 L8.34960938,39.5117188 L8.34960938,27.0751953 Z M33.046875,40.6689453 C33.046875,42.0556641 31.9189453,43.1835938 30.5322266,43.1835938 L18.1054688,43.1835938 C16.9921875,43.1835938 16.0546875,42.4511719 15.7275391,41.4453125 L30.4101563,41.4453125 L30.4101563,39.8925781 L15.6982422,39.8925781 C15.9960938,38.8378906 16.9580078,38.0566406 18.1054688,38.0566406 L30.5322266,38.0566406 C31.9189453,38.0566406 33.046875,39.1845703 33.046875,40.5712891 L33.046875,40.6689453 Z M34.5166016,39.7949219 C34.3896484,39.1455078 34.0966797,38.5595703 33.7011719,38.0566406 L43.1152344,38.0566406 L42.9394531,39.7949219 L34.5166016,39.7949219 Z" id="形状" stroke="#979797" stroke-width="0.6" fill="#231815" fill-rule="nonzero"></path>
                    </g>
                </g>
            </g>
        </g>
    </g>
</svg>