<?xml version="1.0" encoding="UTF-8"?>
<svg width="50px" height="50px" viewBox="0 0 50 50" version="1.1" xmlns="http://www.w3.org/2000/svg" xmlns:xlink="http://www.w3.org/1999/xlink">
    <title>禁入区</title>
    <defs>
        <filter id="filter-1">
            <feColorMatrix in="SourceGraphic" type="matrix" values="0 0 0 0 0.862745 0 0 0 0 0.862745 0 0 0 0 0.862745 0 0 0 1.000000 0"></feColorMatrix>
        </filter>
    </defs>
    <g id="页面-1" stroke="none" stroke-width="1" fill="none" fill-rule="evenodd">
        <g id="三体官网-算法商场" transform="translate(-387.000000, -2953.000000)">
            <g id="编组-8备份-4" transform="translate(360.000000, 2828.000000)">
                <g id="禁入区" transform="translate(0.000000, 92.000000)" filter="url(#filter-1)">
                    <g transform="translate(27.000000, 33.000000)">
                        <rect id="矩形" fill="#000000" fill-rule="nonzero" opacity="0" x="0" y="0" width="50" height="50"></rect>
                        <path d="M44.4726562,14.921875 C44.2089844,14.4091797 43.6767578,14.0527344 43.0615234,14.0527344 C42.1923828,14.0527344 41.4892578,14.7558594 41.4892578,15.6201172 C41.4892578,15.9130859 41.5722656,16.1914062 41.7138672,16.4257812 L41.7089844,16.4306641 C43.0224609,18.9892578 43.7646484,21.8896484 43.7646484,24.9609375 C43.7646484,29.5703125 42.0996094,33.7890625 39.3359375,37.0507812 C39.296875,36.9970703 39.2480469,36.9433594 39.1992187,36.8945312 L13.2421875,10.9375 C13.1494141,10.8447266 13.046875,10.7666016 12.9394531,10.703125 C16.2011719,7.9296875 20.4296875,6.25488281 25.0488281,6.25488281 C28.1005859,6.25488281 30.9814453,6.98730469 33.5253906,8.28125 L33.5351562,8.26171875 C33.7597656,8.38867188 34.0234375,8.46191406 34.3017578,8.46191406 C35.1708984,8.46191406 35.8740234,7.75878906 35.8740234,6.89453125 C35.8740234,6.25488281 35.4882813,5.703125 34.9316406,5.45898437 C31.9628906,3.95507812 28.6083984,3.10058594 25.0488281,3.10058594 C12.9736328,3.10058594 3.18359375,12.890625 3.18359375,24.9609375 C3.18359375,37.03125 12.9736328,46.8212891 25.0488281,46.8212891 C37.1240234,46.8212891 46.9091797,37.0361328 46.9091797,24.9609375 C46.9091797,21.3427734 46.0302734,17.9296875 44.4726562,14.921875 Z M6.33789062,24.9609375 C6.33789062,20.3320313 8.01757812,16.1035156 10.7958984,12.8369141 C10.859375,12.9443359 10.9375,13.0517578 11.0351562,13.1445313 L36.9873047,39.1015625 C37.0361328,39.1503906 37.0898437,39.1992188 37.1435547,39.2382813 C33.8818359,42.0019531 29.6630859,43.671875 25.0537109,43.671875 C14.7216797,43.671875 6.33789062,35.2978516 6.33789062,24.9609375 Z" id="形状" stroke="#979797" stroke-width="0.5" fill="#4D4D4D" fill-rule="nonzero"></path>
                        <path d="M37.7294922,10.7275391 C37.7294922,11.5931807 38.4334195,12.2949219 39.3017578,12.2949219 C40.1700961,12.2949219 40.8740234,11.5931807 40.8740234,10.7275391 C40.8740234,9.86189744 40.1700961,9.16015625 39.3017578,9.16015625 C38.4334195,9.16015625 37.7294922,9.86189744 37.7294922,10.7275391 Z" id="路径" stroke="#979797" stroke-width="0.5" fill="#4D4D4D" fill-rule="nonzero"></path>
                    </g>
                </g>
            </g>
        </g>
    </g>
</svg>