<?xml version="1.0" encoding="UTF-8"?>
<svg width="50px" height="50px" viewBox="0 0 50 50" version="1.1" xmlns="http://www.w3.org/2000/svg" xmlns:xlink="http://www.w3.org/1999/xlink">
    <title>中控室</title>
    <defs>
        <filter id="filter-1">
            <feColorMatrix in="SourceGraphic" type="matrix" values="0 0 0 0 0.862745 0 0 0 0 0.862745 0 0 0 0 0.862745 0 0 0 1.000000 0"></feColorMatrix>
        </filter>
    </defs>
    <g id="页面-1" stroke="none" stroke-width="1" fill="none" fill-rule="evenodd">
        <g id="三体官网-算法商场" transform="translate(-692.000000, -3158.000000)">
            <g id="编组-8备份-4" transform="translate(360.000000, 2828.000000)">
                <g id="中控室" transform="translate(305.000000, 297.000000)" filter="url(#filter-1)">
                    <g transform="translate(27.000000, 33.000000)">
                        <rect id="矩形" fill="#000000" fill-rule="nonzero" opacity="0" x="0" y="0" width="50" height="50"></rect>
                        <path d="M42.03125,35.759375 L10.9375,35.759375 C8.36613513,35.7490395 6.28855888,33.6588804 6.29374029,31.0875 L6.29374029,10.921875 C6.28855888,8.3504946 8.36613513,6.26033545 10.9375,6.25 L42.03125,6.25 C44.6038367,6.25861609 46.6833122,8.34927912 46.6781347,10.921875 L46.6781347,31.0875 C46.6833161,33.6588804 44.6057399,35.7490395 42.034375,35.759375 L42.03125,35.759375 Z M10.9375,9.109375 C9.93943063,9.11282108 9.13264526,9.92380118 9.13437222,10.921875 L9.13437222,31.0875 C9.13437222,32.0875 9.940625,32.9 10.9375,32.9 L42.03125,32.9 C43.0293194,32.8965539 43.8361047,32.0855738 43.8343778,31.0875 L43.8343778,10.921875 C43.8361101,9.92501567 43.0312225,9.11453857 42.034375,9.109375 L10.9375,9.109375 Z M45.25625,41.34375 L7.71875,41.34375 L7.71875,38.484375 L45.259375,38.484375 L45.259375,41.34375 L45.25625,41.34375 Z" id="形状" fill="#000000" fill-rule="nonzero"></path>
                        <path d="M18.328125,28.625 C17.605168,28.6269209 16.9577117,28.1778183 16.70625,27.5 L15.28125,23.7375 L10.728125,23.7375 L10.728125,20.875 L16.040625,20.875 C16.759375,20.88125 17.403125,21.325 17.659375,22 L18.328125,23.7625 L21.734375,14.815625 C21.9958242,14.1287936 22.6624151,13.6818746 23.3970801,13.7008564 C24.1317452,13.7198381 24.7743677,14.2005837 25,14.9 L27.5125,22.653125 L30.034375,15.39375 C30.2585418,14.741904 30.8480489,14.2851493 31.5352235,14.2308808 C32.2223981,14.1766123 32.8762932,14.5351714 33.2,15.14375 L36.125,20.60625 L42.240625,20.60625 L42.240625,23.46875 L35.46875,23.46875 C34.8287053,23.4685197 34.241007,23.1151796 33.940625,22.55 L31.890625,18.721875 L29.11875,26.709375 C28.8765355,27.4085616 28.2180773,27.8776346 27.478125,27.878125 L27.459375,27.878125 C26.7137963,27.8686496 26.057389,27.3845177 25.828125,26.675 L23.26875,18.775 L19.95,27.503125 C19.6981439,28.1820209 19.0491,28.631359 18.325,28.6281423 L18.328125,28.625 Z" id="路径" fill="#000000" fill-rule="nonzero"></path>
                    </g>
                </g>
            </g>
        </g>
    </g>
</svg>