<?xml version="1.0" encoding="UTF-8"?>
<svg width="50px" height="50px" viewBox="0 0 50 50" version="1.1" xmlns="http://www.w3.org/2000/svg" xmlns:xlink="http://www.w3.org/1999/xlink">
    <title>吸烟</title>
    <defs>
        <filter id="filter-1">
            <feColorMatrix in="SourceGraphic" type="matrix" values="0 0 0 0 0.862745 0 0 0 0 0.862745 0 0 0 0 0.862745 0 0 0 1.000000 0"></feColorMatrix>
        </filter>
    </defs>
    <g id="页面-1" stroke="none" stroke-width="1" fill="none" fill-rule="evenodd">
        <g id="三体官网-算法商场" transform="translate(-692.000000, -2396.000000)">
            <g id="编组-8备份-3" transform="translate(360.000000, 2271.000000)">
                <g id="吸烟" transform="translate(305.000000, 92.000000)" filter="url(#filter-1)">
                    <g transform="translate(27.000000, 33.000000)">
                        <rect id="矩形" fill="#000000" fill-rule="nonzero" opacity="0" x="0" y="0" width="50" height="50"></rect>
                        <path d="M41.0058594,33.2666016 L41.0058594,40.9326172 L6.99707031,40.9326172 L6.99707031,33.2666016 L41.0058594,33.2666016 M41.2255859,31.0205078 L5.76660156,31.0205078 C5.20507812,31.0205078 4.75097656,31.4746094 4.75097656,32.03125 L4.75097656,42.1630859 C4.75097656,42.7246094 5.20507812,43.1738281 5.76660156,43.1738281 L41.2255859,43.1738281 C42.34375,43.1738281 43.2519531,42.265625 43.2519531,41.1474609 L43.2519531,33.0419922 C43.2519531,31.9287109 42.34375,31.0205078 41.2255859,31.0205078 L41.2255859,31.0205078 Z M36.1621094,31.0205078 L34.1357422,31.0205078 L34.1357422,43.1787109 L36.1621094,43.1787109 L36.1621094,31.0205078 Z M33.1201172,21.8994141 C33.1201172,18.828125 38.1787109,14.8535156 38.1835982,11.7675781 C38.1884766,8.828125 34.1308594,6.70410156 34.1308594,6.70410156 L32.1044922,6.70410156 C32.1044922,6.70410156 36.1572266,8.81347656 36.1572266,11.7675781 C36.1572266,14.8583984 31.09375,18.8330078 31.09375,21.8994141 C31.09375,24.7900391 35.1464844,26.9677734 35.1464844,26.9677734 L37.1728516,26.9677734 C37.1728516,26.9677734 33.125,24.8095703 33.1201172,21.8994141 Z M40.2148438,21.8994141 C40.2148438,18.828125 45.2734375,14.8535156 45.2783247,11.7675781 C45.2832031,8.828125 41.2255859,6.70410156 41.2255859,6.70410156 L39.1992188,6.70410156 C39.1992188,6.70410156 43.2519531,8.81347656 43.2519531,11.7675781 C43.2519531,14.8583984 38.1884766,18.8330078 38.1884766,21.8994141 C38.1884766,24.7900391 42.2412109,26.9677734 42.2412109,26.9677734 L44.2675781,26.9677734 C44.2675781,26.9677734 40.2148438,24.8095703 40.2148438,21.8994141 Z" id="形状" stroke="#979797" stroke-width="0.5" fill="#000000" fill-rule="nonzero"></path>
                    </g>
                </g>
            </g>
        </g>
    </g>
</svg>