<?xml version="1.0" encoding="UTF-8"?>
<svg width="50px" height="50px" viewBox="0 0 50 50" version="1.1" xmlns="http://www.w3.org/2000/svg" xmlns:xlink="http://www.w3.org/1999/xlink">
    <title>安全帽</title>
    <defs>
        <filter id="filter-1">
            <feColorMatrix in="SourceGraphic" type="matrix" values="0 0 0 0 0.862745 0 0 0 0 0.862745 0 0 0 0 0.862745 0 0 0 1.000000 0"></feColorMatrix>
        </filter>
    </defs>
    <g id="页面-1" stroke="none" stroke-width="1" fill="none" fill-rule="evenodd">
        <g id="三体官网-算法商场" transform="translate(-387.000000, -1487.000000)">
            <g id="编组-8备份" transform="translate(360.000000, 1362.000000)">
                <g id="安全帽" transform="translate(0.000000, 92.000000)" filter="url(#filter-1)">
                    <g transform="translate(27.000000, 33.000000)">
                        <rect id="矩形" fill="#000000" fill-rule="nonzero" opacity="0" x="0" y="0" width="49.9512195" height="49.9512195"></rect>
                        <path d="M25.7535122,42.082439 C11.7298537,42.082439 1.06292683,38.7789756 0.945756098,34.4027805 C0.881804878,32.1010244 3.05926829,30.9110732 5.52795122,30.4813171 C6.32004878,20.7840976 11.3817561,10.625122 20.0523902,8.842 C20.8302927,8.50809756 23.4659512,7.43892683 25.7037561,7.38204878 C25.7073171,7.38204878 25.7073171,7.38204878 25.710878,7.38204878 C28.0765854,7.38204878 30.3605366,8.45478049 31.138439,8.86326829 C43.0273171,11.4847317 45.4995122,24.94 46.0145854,30.6091707 C47.978878,31.0602927 50.2273659,32.0158049 49.9467317,34.4702927 C49.9502927,36.0296585 45.8440488,42.082439 25.7534634,42.082439 L25.7535122,42.082439 Z M4.7322439,34.3957561 C6.22409756,35.7526829 12.720878,38.5303415 25.7499512,38.5303415 C39.6670244,38.5303415 44.5866829,35.5288293 46.0252683,34.2891707 C45.6380976,34.1541951 45.0200488,33.9872195 44.0574146,33.8309756 C43.236878,33.699561 42.6010732,32.8150732 42.554878,31.9803415 C42.3346341,28.2009268 40.952878,16.3333659 32.307122,12.9162927 L32.3532683,23.5228293 C32.3532683,23.5228293 32.3532683,23.5263902 32.3532683,23.5263902 C32.3532683,24.5032195 31.5611707,25.302439 30.5843415,25.302439 C30.5807805,25.302439 30.5807805,25.302439 30.5772195,25.302439 C29.6003902,25.302439 28.8047317,24.5103415 28.8011707,23.5335122 L28.7514146,11.6589268 C27.9450732,11.3108293 26.8226341,10.9307317 25.8777561,10.9307317 C24.7730732,10.959122 23.3770732,11.3747317 22.3789268,11.7406341 L22.4819512,23.4057073 C22.4819512,23.4092683 22.4819512,23.4163902 22.4819512,23.4234634 C22.4819512,24.3967317 21.6969268,25.188878 20.7201463,25.1995122 C20.7165854,25.1995122 20.7094634,25.1995122 20.7059512,25.1995122 C19.7326829,25.1995122 18.9370244,24.4144878 18.9299024,23.4377073 L18.834,12.9412683 C12.7670732,15.616 9.26112195,24.4038537 8.99117073,32.1438537 C8.95921951,33.0638537 8.2275122,33.8062439 7.3075122,33.8523902 C6.384,33.9021463 5.29702439,34.1401463 4.7322439,34.3958537 L4.7322439,34.3957561 Z" id="形状" fill="#000000" fill-rule="nonzero"></path>
                    </g>
                </g>
            </g>
        </g>
    </g>
</svg>