<?xml version="1.0" encoding="UTF-8"?>
<svg width="50px" height="50px" viewBox="0 0 50 50" version="1.1" xmlns="http://www.w3.org/2000/svg" xmlns:xlink="http://www.w3.org/1999/xlink">
    <title>违规</title>
    <defs>
        <filter id="filter-1">
            <feColorMatrix in="SourceGraphic" type="matrix" values="0 0 0 0 0.862745 0 0 0 0 0.862745 0 0 0 0 0.862745 0 0 0 1.000000 0"></feColorMatrix>
        </filter>
    </defs>
    <g id="页面-1" stroke="none" stroke-width="1" fill="none" fill-rule="evenodd">
        <g id="三体官网-算法商场" transform="translate(-996.000000, -1487.000000)">
            <g id="编组-8备份" transform="translate(360.000000, 1362.000000)">
                <g id="违规" transform="translate(609.000000, 92.000000)" filter="url(#filter-1)">
                    <g transform="translate(27.000000, 33.000000)">
                        <rect id="矩形" fill="#000000" fill-rule="nonzero" opacity="0" x="0" y="0" width="50" height="50"></rect>
                        <path d="M25,47 C22.0305738,47 19.1493431,46.4182284 16.4360027,45.270624 C13.8161708,44.1623358 11.4635819,42.5764104 9.44358578,40.5564142 C7.42358964,38.5364181 5.83766422,36.1838292 4.72937597,33.5639973 C3.58177164,30.8506569 3,27.9694262 3,25 C3,22.0305738 3.58177164,19.1493431 4.72937597,16.4360027 C5.83766422,13.8161708 7.42358964,11.4635819 9.44358578,9.44358578 C11.4635819,7.42358964 13.8161708,5.83766422 16.4360027,4.72937597 C19.1493431,3.58177164 22.0305738,3 25,3 C27.9694262,3 30.8506569,3.58177164 33.5639973,4.72937597 C36.1838292,5.83766422 38.5364181,7.42358964 40.5564142,9.44358578 C42.5764104,11.4635819 44.1623358,13.8161708 45.270624,16.4360027 C46.4182284,19.1493431 47,22.0305738 47,25 C47,27.9694262 46.4182284,30.8506569 45.270624,33.5639973 C44.1623358,36.1838292 42.5764104,38.5364181 40.5564142,40.5564142 C38.5364181,42.5764104 36.1838292,44.1623358 33.5639973,45.270624 C30.8506569,46.4182284 27.9694262,47 25,47 Z M25,6 C14.5230887,6 6,14.5235049 6,24.9997317 C6,35.4759585 14.5230887,44 25,44 C35.4769113,44 44,35.4764951 44,24.9997317 C44,14.5229683 35.4769113,6 25,6 Z" id="形状" fill="#231815" fill-rule="nonzero"></path>
                        <path d="M33.9673705,33.2320902 L33.6039132,34.4650802 C33.5098084,34.7842561 33.226475,35.0015271 32.9063588,35 L25.8103365,34.9704213 C23.654397,34.956164 22.1874065,34.8811813 21.409365,34.7460013 C20.6313235,34.6108212 19.9236448,34.3864012 19.2858229,34.0732692 C18.8595958,33.8641626 18.4763964,33.6180926 18.1372371,33.3355874 C17.8497111,33.0963821 17.4371516,33.1153918 17.1744297,33.3841677 C16.7902179,33.7770348 16.3786709,34.205281 15.9402949,34.6689064 C15.5738004,35.056493 14.9461026,34.9255373 14.7496939,34.4212523 L14.1275644,32.8212695 C14.0126552,32.5260912 14.087574,32.187613 14.3138489,31.9737539 C14.7750043,31.5386431 15.3065226,31.0581202 15.9084038,30.5316572 C16.0734275,30.3875004 16.1691008,30.1746974 16.1691008,29.9502774 L16.1691008,25.4687415 C16.1691008,25.0500001 15.8436092,24.7109939 15.4426925,24.7109939 L14.7264083,24.7109939 C14.3249855,24.7109939 14,24.3714596 14,23.9532463 L14,22.7577476 C14,22.3390062 14.3254917,22 14.7264083,22 L18.1240757,22 C18.5254986,22 18.8504841,22.3395343 18.8504841,22.7577476 L18.8504841,30.214829 C18.8504841,30.4260478 18.9345146,30.6277618 19.0828335,30.7708626 C20.1473887,31.7989703 21.7075214,32.3122321 23.7632317,32.3122321 L25.6564493,32.344443 C27.3238981,32.3639807 29.8569624,32.333354 33.255136,32.2520347 C33.7517259,32.2393616 34.1131584,32.7378381 33.9673705,33.2320902 L33.9673705,33.2320902 Z M17.1004293,16.2969883 C17.7383614,17.2447297 18.3302955,18.1516743 18.8766962,19.017299 C19.0936767,19.3609337 19.0165487,19.8384657 18.7061783,20.0743549 L17.6575164,20.871462 C17.3401766,21.1125816 16.9090032,21.0037901 16.7120016,20.6345266 C16.187903,19.6527879 15.6549765,18.7071386 15.1136867,17.7970558 C14.9027463,17.4424373 14.9938131,16.9622902 15.3167285,16.7384307 L16.2194976,16.1118335 C16.511283,15.9088955 16.8932059,15.98892 17.1004293,16.2969883 Z M29.1839338,30.4324828 C29.1264843,30.1305263 29.0555466,29.7830974 28.9716203,29.3891744 C28.8727072,28.9252547 29.2248979,28.4894359 29.6889903,28.5001653 C29.9487621,28.5057855 30.253994,28.508851 30.6031873,28.508851 C30.8125035,28.508851 30.9728626,28.4061551 31.0837652,28.2012743 C31.3450358,27.7174285 30.9898477,27.1247558 30.449822,27.1247558 L28.5330055,27.1247558 C28.1368535,27.1247558 27.8161352,27.4532804 27.8161352,27.8579329 L27.8161352,31.2668229 C27.8161352,31.6719863 27.4949173,32 27.0992648,32 L25.8268823,32 C25.4307302,32 25.1100119,31.6714754 25.1100119,31.2668229 L25.1100119,27.8579329 C25.1100119,27.4527695 24.7887941,27.1247558 24.3931415,27.1247558 L20.7168704,27.1247558 C20.3207183,27.1247558 20,26.7962312 20,26.3915788 L20,25.4616957 C20,25.0565323 20.3212179,24.7285186 20.7168704,24.7285186 L24.3931415,24.7285186 C24.7892936,24.7285186 25.1100119,24.399994 25.1100119,23.9953416 L25.1100119,23.9749046 C25.1100119,23.5697412 24.7887941,23.2417275 24.3931415,23.2417275 L21.7469657,23.2417275 C21.3508136,23.2417275 21.0300953,22.9132029 21.0300953,22.5085505 L21.0300953,21.6200523 C21.0300953,21.2148889 21.3513132,20.8868752 21.7469657,20.8868752 L24.3931415,20.8868752 C24.7892936,20.8868752 25.1100119,20.5583506 25.1100119,20.1536982 C25.1100119,19.7485348 24.7887941,19.4205211 24.3931415,19.4205211 L21.0196045,19.4205211 C20.6234524,19.4205211 20.3027341,19.0919965 20.3027341,18.6873441 L20.3027341,17.757461 C20.3027341,17.3522977 20.623952,17.024284 21.0196045,17.024284 L24.3931415,17.024284 C24.7892936,17.024284 25.1100119,16.6957593 25.1100119,16.2911069 L25.1100119,15.7331771 C25.1100119,15.3280137 25.4312298,15 25.8268823,15 L27.0992648,15 C27.4954169,15 27.8161352,15.3285246 27.8161352,15.7331771 L27.8161352,16.2911069 C27.8161352,16.6962702 28.137353,17.024284 28.5330055,17.024284 L33.1589426,17.024284 C33.5550947,17.024284 33.875813,17.3528086 33.875813,17.757461 L33.875813,18.6873441 C33.875813,19.0925074 33.5545951,19.4205211 33.1589426,19.4205211 L28.5330055,19.4205211 C28.1368535,19.4205211 27.8161352,19.7490458 27.8161352,20.1536982 C27.8161352,20.5588615 28.137353,20.8868752 28.5330055,20.8868752 L31.9470071,20.8868752 C32.3431591,20.8868752 32.6638774,21.2153999 32.6638774,21.6200523 L32.6638774,22.5085505 C32.6638774,22.9137138 32.3426596,23.2417275 31.9470071,23.2417275 L28.5330055,23.2417275 C28.1368535,23.2417275 27.8161352,23.5702522 27.8161352,23.9749046 L27.8161352,23.9953416 C27.8161352,24.4005049 28.137353,24.7285186 28.5330055,24.7285186 L33.2828338,24.7285186 C33.6864793,24.7285186 34.0111941,25.0693054 33.9997042,25.4821327 C33.9382582,27.7087428 33.8178639,29.0534968 33.639021,29.5163947 C33.4401956,30.0293631 33.1204764,30.4100021 32.6793638,30.6578006 C32.2897061,30.8764764 31.3640191,30.9990984 29.9013038,31.0246446 C29.5531096,31.0307757 29.2503755,30.7819553 29.1839338,30.4324828 L29.1839338,30.4324828 Z" id="形状" fill="#231815" fill-rule="nonzero"></path>
                        <polygon id="路径" fill="#231815" fill-rule="nonzero" points="11.3205987 9.08984375 41.0048828 38.7740266 38.6891124 41.0898438 9.00488281 11.4056063"></polygon>
                    </g>
                </g>
            </g>
        </g>
    </g>
</svg>