<?xml version="1.0" encoding="UTF-8"?>
<svg width="50px" height="50px" viewBox="0 0 50 50" version="1.1" xmlns="http://www.w3.org/2000/svg" xmlns:xlink="http://www.w3.org/1999/xlink">
    <title>在岗人数</title>
    <defs>
        <filter id="filter-1">
            <feColorMatrix in="SourceGraphic" type="matrix" values="0 0 0 0 0.862745 0 0 0 0 0.862745 0 0 0 0 0.862745 0 0 0 1.000000 0"></feColorMatrix>
        </filter>
    </defs>
    <g id="页面-1" stroke="none" stroke-width="1" fill="none" fill-rule="evenodd">
        <g id="三体官网-算法商场" transform="translate(-692.000000, -2601.000000)">
            <g id="编组-8备份-3" transform="translate(360.000000, 2271.000000)">
                <g id="在岗人数" transform="translate(305.000000, 297.000000)" filter="url(#filter-1)">
                    <g transform="translate(27.000000, 33.000000)">
                        <rect id="矩形" fill="#000000" fill-rule="nonzero" opacity="0" x="0" y="0" width="50" height="50"></rect>
                        <path d="M44.9514906,34.6243094 C44.5649875,30.6758747 42.2316541,27.2283609 38.7960713,25.4898711 C39.9698955,24.5395948 40.8502636,23.2799263 41.351286,21.8213628 C41.9167257,20.1712707 41.952513,18.4180479 41.458648,16.7384899 C40.9576255,15.0662983 39.977053,13.6298342 38.6099773,12.5911602 C37.2429016,11.5524862 35.6253147,11 33.9218382,11 C33.3134537,11 32.7050693,11.0810313 32.0465826,11.2430939 L31.4954578,11.3756906 L31.8748034,11.8029466 C32.4116133,12.3996317 32.8840059,13.0626151 33.2848239,13.7697974 L33.3850284,13.946593 L33.5854374,13.9392265 C33.6498546,13.9392265 33.7142717,13.9244936 33.7715315,13.9171271 C33.8287912,13.9097606 33.8788934,13.9023941 33.9218382,13.9023941 C35.2745989,13.9023941 36.5486275,14.4475138 37.5005703,15.427256 C38.4596705,16.4143647 38.9821654,17.7182321 38.9821654,19.1104972 C38.9821654,20.5027624 38.4596705,21.8139963 37.5005703,22.801105 C36.5414701,23.7882136 35.2745989,24.3259668 33.9218382,24.3259668 C33.8717359,24.3259668 33.8144762,24.3186003 33.7429016,24.3112339 C33.6927993,24.3038674 33.6426971,24.2965009 33.5925948,24.2965009 L33.3850284,24.2817679 L33.2848239,24.46593 C32.8482185,25.2467771 32.3185662,25.9760589 31.7030243,26.6243094 L30.9514906,27.4198895 L32.0036378,27.1915286 C32.5690775,27.0662983 33.1416746,27.0073665 33.6999568,27.0073665 C37.9801204,27.0073665 41.5302227,30.3149171 41.9596705,34.6979742 L41.9883004,35 L44.9443331,35 L44.9443331,34.6611418 L44.9514906,34.6243094 L44.9514906,34.6243094 Z" id="路径" fill="#894949" fill-rule="nonzero"></path>
                        <path d="M37.1289888,38.3692611 C36.5635955,36.7069951 35.7307866,35.142069 34.6611236,33.7343842 C33.5914607,32.3192118 32.3155056,31.0912315 30.8561798,30.0729064 C29.5649438,29.1743842 28.1591011,28.4555665 26.6692135,27.9389163 C28.6862921,26.6061084 30.2296629,24.7416749 31.1617978,22.5178325 C32.185618,20.0543842 32.3460674,17.4037438 31.6355056,14.8429557 C30.9249438,12.2821675 29.4044944,10.0733005 27.2575281,8.46344827 C25.1029214,6.85359604 22.5357304,6 19.8233708,6 C17.0575281,6.00748771 14.3375281,6.94344829 12.1829214,8.6431527 C10.0206742,10.3428572 8.50022475,12.7314286 7.89662924,15.382069 C7.29303373,18.0327094 7.62921349,20.8331034 8.83640452,23.266601 C9.93662925,25.4829557 11.7321348,27.3249261 13.9249438,28.515468 C11.0826966,29.795862 8.66831463,31.8025616 6.91101127,34.3558621 C5.00089891,37.1113301 4,40.3235468 4,43.6555665 L4,44 L6.8575281,44 L6.8575281,43.6555665 C6.8575281,43.6031527 6.8575281,43.5582266 6.84988767,43.5133005 C6.84988767,43.475862 6.8422472,43.4459113 6.8422472,43.4234483 C6.8422472,35.8983251 13.0844944,29.773399 20.7555056,29.7659113 C28.4265169,29.7659113 34.668764,35.8908375 34.668764,43.4159606 C34.668764,43.4459113 34.668764,43.4758621 34.6611236,43.5133005 C34.6611236,43.5582266 34.6534831,43.6031527 34.6534831,43.6480788 L34.6534831,43.9925123 L38,43.9925123 L38,43.6480788 C38,41.8510345 37.7096629,40.0689655 37.1289888,38.3692611 Z M29,18 C29,22.965 24.965,27 20,27 C15.035,27 11,22.965 11,18 C11,13.0350001 15.035,9 20,9 C24.9649999,9 29,13.035 29,18 Z" id="形状" fill="#894949" fill-rule="nonzero"></path>
                    </g>
                </g>
            </g>
        </g>
    </g>
</svg>