<?xml version="1.0" encoding="UTF-8"?>
<svg width="30px" height="30px" viewBox="0 0 30 30" version="1.1" xmlns="http://www.w3.org/2000/svg" xmlns:xlink="http://www.w3.org/1999/xlink">
    <title>返回顶部</title>
    <g id="页面-1" stroke="none" stroke-width="1" fill="none" fill-rule="evenodd">
        <g id="移动端首页SDSF-底部展开" transform="translate(-326.000000, -2745.000000)" fill-rule="nonzero">
            <g id="返回顶部" transform="translate(326.000000, 2745.000000)">
                <rect id="矩形" fill="#000000" opacity="0" x="0" y="0" width="30" height="30"></rect>
                <path d="M15,0 C23.2845652,0 30,6.71543479 30,15 C30,23.2845652 23.2845652,30 15,30 C6.71543479,30 0,23.2845652 0,15 C0,6.71543479 6.71543479,0 15,0 Z M15.299964,9.6 C15.2756494,9.6 15.2513348,9.60131795 15.2276773,9.60328939 L15.2184772,9.60460369 L15.1935054,9.60788939 L15.1757623,9.61051795 L15.1593335,9.61314653 C15.1520823,9.61457178 15.1448528,9.61610528 15.1376475,9.61774653 L15.1264759,9.62037508 C15.1181091,9.62239947 15.1097836,9.62459038 15.1015041,9.62694652 L15.0929611,9.62957511 C15.0843671,9.63203484 15.0758225,9.63466392 15.0673322,9.63746081 C15.0647036,9.63746081 15.0627322,9.6387751 15.0607607,9.63943224 L15.0344746,9.64928938 L15.0279031,9.65126079 C15.0190516,9.65500168 15.0102872,9.65894558 15.001617,9.66308937 L14.9963598,9.66506081 L14.9681023,9.67820365 L14.9648165,9.68017509 C14.8971177,9.71539867 14.835092,9.7605882 14.780814,9.81423219 L8.6101572,15.7745163 C8.47595803,15.9022736 8.4,16.079459 8.4,16.2647448 C8.4,16.4500306 8.47595803,16.6272159 8.6101572,16.7549732 C8.89076107,17.025716 9.34616738,17.025716 9.62677125,16.7549732 L14.5823541,11.969003 L14.5823541,22.7054002 C14.5823541,23.0628858 14.8623008,23.3579429 15.2217629,23.3954 L15.2986497,23.4 L15.3755365,23.3960572 C15.7349986,23.3579429 16.0129739,23.0628858 16.0129739,22.7054002 L16.0129739,11.9676888 L20.9718424,16.7516875 C21.2572477,17.0228093 21.7054658,17.0213616 21.9891137,16.7484018 C22.1236038,16.6213892 22.2,16.4446137 22.2,16.2596291 C22.2,16.0746446 22.1240902,15.8977667 21.9897708,15.7705735 L15.8079425,9.8037179 C15.671475,9.67245661 15.4893129,9.59940426 15.299964,9.6 Z M22.1097,7.2 L7.89030001,7.2 C7.50875003,7.2 7.2,7.46880001 7.2,7.80000001 C7.2,8.13120001 7.50875,8.4 7.89030001,8.4 L22.1097,8.4 C22.49125,8.4 22.8,8.13119999 22.8,7.80000001 C22.8,7.46880004 22.49125,7.2 22.1097,7.2 Z" id="形状" fill="#B2B2B2"></path>
            </g>
        </g>
    </g>
</svg>