<?xml version="1.0" encoding="UTF-8"?>
<svg width="45px" height="45px" viewBox="0 0 45 45" version="1.1" xmlns="http://www.w3.org/2000/svg" xmlns:xlink="http://www.w3.org/1999/xlink">
    <title>统一管理</title>
    <g id="页面-1" stroke="none" stroke-width="1" fill="none" fill-rule="evenodd">
        <g id="三体官网-核心产品-AI边缘计算盒" transform="translate(-420.000000, -1714.000000)" fill-rule="nonzero">
            <g id="编组-8备份-3" transform="translate(360.000000, 1575.000000)">
                <g id="编组-6" transform="translate(0.000000, 92.000000)">
                    <g id="统一管理" transform="translate(60.000000, 47.000000)">
                        <rect id="矩形" fill="#000000" opacity="0" x="0" y="0" width="45" height="45"></rect>
                        <g id="编组-14" transform="translate(2.824058, 1.888750)" fill="#3C3C3C">
                            <path d="M21.1944808,40.2069767 L3.71773663,40.2069767 C2.61105058,40.2069767 1.5593064,39.7386628 0.831980814,38.9276163 C0.231695141,38.2769817 -0.0640705604,37.4020477 0.018318023,36.5206395 L0.0104691858,34.0613372 C0.0104691858,33.3388717 0.596143205,32.7531977 1.31860872,32.7531977 C2.04107424,32.7531977 2.62674826,33.3388717 2.62674826,34.0613372 L2.62674826,36.6723837 C2.61105058,36.8947674 2.65029477,37.0334302 2.78895756,37.1877907 C3.02811078,37.446735 3.36525804,37.5929904 3.71773663,37.5906977 L21.1944808,37.5906977 C21.9169463,37.5906977 22.5026203,38.1763717 22.5026203,38.8988372 C22.5026203,39.6213027 21.9169463,40.2069767 21.1944808,40.2069767 L21.1944808,40.2069767 Z" id="路径"></path>
                            <path d="M1.3081436,37.3604651 C0.585678089,37.3604651 1.40456122e-14,36.7747911 1.40456122e-14,36.0523256 L1.40456122e-14,33.5982558 C-0.00492441992,26.1012763 4.4671478,19.3257214 11.3625041,16.3831395 C12.0272151,16.1025028 12.7939468,16.4094289 13.0813994,17.0712209 C13.3650028,17.7373455 13.0560654,18.5073486 12.3907017,18.7927326 C6.45807045,21.3223477 2.61045038,27.151451 2.61628314,33.6008721 L2.61628314,36.0549419 C2.61484025,36.7763854 2.02958863,37.3604651 1.3081436,37.3604651 L1.3081436,37.3604651 Z" id="路径"></path>
                            <path d="M18.0680273,20.2055233 C12.4915397,20.199755 7.97234212,15.6805574 7.96657384,10.1040698 C7.97233939,4.52715724 12.4911165,0.00720979196 18.0680273,1.32193997e-14 C23.6459599,0.00576829066 28.1663288,4.52613718 28.1720971,10.1040698 C28.1663264,15.6815778 23.6455367,20.201197 18.0680273,20.2055233 Z M18.0680273,2.61627907 C13.9354497,2.62204656 10.5871762,5.97149041 10.5828529,10.1040698 C10.587179,14.2362242 13.9358729,17.5849181 18.0680273,17.5892442 C22.2006067,17.5849209 25.5500505,14.2366474 25.555818,10.1040698 C25.5514919,5.97047042 22.2016267,2.62060518 18.0680273,2.61627907 L18.0680273,2.61627907 Z M31.0604692,33.0776163 C29.3049459,33.0776163 27.8764576,31.6491279 27.8764576,29.8936047 C27.8764576,28.1380814 29.3049459,26.709593 31.0604692,26.709593 C32.8159924,26.709593 34.2444808,28.1380814 34.2444808,29.8936047 C34.2444808,31.6491279 32.8159924,33.0776163 31.0604692,33.0776163 Z M31.0604692,28.5409884 C30.5615945,28.5195616 30.0912116,28.7736724 29.8356586,29.2026568 C29.5801055,29.6316413 29.5806211,30.166274 29.837001,30.5947647 C30.0933809,31.0232555 30.5642531,31.2764586 31.0630855,31.2540698 C31.7891055,31.2214842 32.3607521,30.6230277 32.360052,29.8962771 C32.3593505,29.1695265 31.7865507,28.5721737 31.0604692,28.5409884 L31.0604692,28.5409884 Z" id="形状"></path>
                            <path d="M33.3497134,38.4331472 C32.8949279,38.4326065 32.5094499,38.098377 32.4444808,37.6482558 C32.3436028,36.9439604 31.7431501,36.4191203 31.0316901,36.4133721 C30.3305273,36.4133721 29.7235506,36.9392442 29.6162831,37.640407 C29.5773076,37.9042017 29.4246459,38.1376496 29.1986049,38.2791141 C28.9725638,38.4205786 28.6958684,38.4558374 28.4415738,38.3755814 C27.1540474,37.9734198 25.9748777,37.2836324 24.993318,36.3584302 C24.8008179,36.1771054 24.6961092,35.9214112 24.7061381,35.6571491 C24.716167,35.3928871 24.8399542,35.1458645 25.0456436,34.9796512 C25.5945442,34.535103 25.7387604,33.7574447 25.3857599,33.1456395 C25.0226505,32.5491366 24.2890113,32.2918154 23.6328529,32.530814 C23.3854599,32.6244381 23.1096668,32.6065078 22.8764788,32.4816394 C22.6432907,32.356771 22.4754918,32.1371649 22.4162831,31.8793605 C22.264539,31.2069767 22.1860506,30.5398256 22.1860506,29.8909884 C22.1860506,29.2421512 22.264539,28.575 22.4162831,27.9026163 C22.47381,27.6448485 22.6410413,27.4250587 22.874132,27.3008721 C23.1073594,27.1765803 23.3827442,27.1584754 23.6302366,27.2511628 C24.070387,27.5940557 24.6698926,27.6493005 25.165294,27.3926192 C25.6606955,27.1359379 25.9613102,26.6143157 25.9350297,26.0569853 C25.9087492,25.4996548 25.5603841,25.0086348 25.0430273,24.7997093 C24.8380849,24.6322191 24.7159048,24.3840408 24.7081436,24.1194767 C24.693445,23.8571349 24.7982889,23.6022392 24.993318,23.4261628 C25.9750829,22.5018306 27.1542504,21.8129391 28.4415738,21.4116279 C28.6958682,21.3341511 28.97128,21.3710074 29.1962551,21.5126212 C29.4212302,21.654235 29.5735596,21.8866266 29.6136669,22.1494186 C29.7214168,22.8494047 30.3208676,23.3679684 31.0290738,23.3738372 C31.7405339,23.368089 32.3409865,22.8432489 32.4418645,22.1389535 C32.4794108,21.8748658 32.6302447,21.6402772 32.8549333,21.4965167 C33.0796218,21.3527562 33.3558275,21.314116 33.6113413,21.3906977 C34.9109168,21.7848112 36.1030031,22.4712453 37.096225,23.3973837 C37.2932529,23.5795522 37.4001749,23.8391666 37.3885846,24.1072543 C37.3769943,24.375342 37.2480653,24.6247599 37.0360506,24.7892442 C36.4707169,25.2255153 36.3152915,26.012706 36.6723878,26.6311047 C37.0421058,27.2415002 37.7978305,27.496723 38.4619227,27.2354651 C38.709392,27.1378889 38.9869178,27.1517576 39.2234263,27.2735194 C39.4599348,27.3952811 39.6324555,27.6131101 39.6968064,27.8712209 C40.0114364,29.1993532 40.0114364,30.5826235 39.6968064,31.9107558 C39.6327047,32.1702005 39.4593606,32.3891576 39.2215446,32.5110759 C38.9837285,32.6329943 38.7047602,32.6459189 38.4566901,32.5465116 C37.7948785,32.2808153 37.0381245,32.5360256 36.6723878,33.1482558 C36.3151676,33.7688798 36.4716506,34.5580012 37.0386669,34.9953488 C37.2495356,35.1607533 37.3773592,35.4102335 37.3884325,35.6780052 C37.3995057,35.9457768 37.292717,36.204959 37.096225,36.3872093 C36.1013256,37.3118498 34.9085491,37.9972712 33.608725,38.3912791 C33.5252773,38.4193814 33.4377651,38.4335248 33.3497134,38.4331472 L33.3497134,38.4331472 Z M31.0290738,34.584593 C32.2613413,34.584593 33.3601785,35.2883721 33.9148297,36.3322674 C34.349132,36.1386628 34.7677366,35.8979651 35.1627948,35.615407 C34.5085122,34.5925761 34.4812431,33.2897186 35.0921552,32.240407 C35.7109861,31.1932317 36.8540003,30.5694955 38.0694808,30.6156977 C38.1212423,30.1365683 38.1212423,29.6532572 38.0694808,29.1741279 C36.8560071,29.2175933 35.7154608,28.5956596 35.0947715,27.5520349 C34.4940149,26.500768 34.5221871,25.2038391 35.1680273,24.1796512 C34.7771546,23.8950843 34.3570461,23.6530176 33.9148297,23.4575581 C33.3627948,24.5040698 32.2613413,25.2078488 31.0290738,25.2078488 C29.8098878,25.2078488 28.7136669,24.5119186 28.1537831,23.4784884 C27.7175477,23.6796528 27.302173,23.9232693 26.9136669,24.205814 C27.5311087,25.2026163 27.5782017,26.4819767 26.9659924,27.5494186 C26.3720971,28.5802326 25.2078529,29.2840116 24.0514576,29.1793605 C23.9947534,29.6547103 23.9947534,30.1351153 24.0514576,30.6104651 C25.238812,30.6106209 26.3414984,31.2253142 26.9659924,32.2351744 C27.580818,33.3078488 27.533725,34.5872093 26.9162831,35.5840116 C27.3034924,35.869186 27.7194808,36.1125 28.1563994,36.3113372 C28.7162831,35.2805233 29.8125041,34.584593 31.0290738,34.584593 L31.0290738,34.584593 Z" id="形状"></path>
                        </g>
                    </g>
                </g>
            </g>
        </g>
    </g>
</svg>