<?xml version="1.0" encoding="UTF-8"?>
<svg width="45px" height="45px" viewBox="0 0 45 45" version="1.1" xmlns="http://www.w3.org/2000/svg" xmlns:xlink="http://www.w3.org/1999/xlink">
    <title>实时报警</title>
    <g id="页面-1" stroke="none" stroke-width="1" fill="none" fill-rule="evenodd">
        <g id="三体官网-核心产品-AI边缘计算盒" transform="translate(-420.000000, -1914.000000)" fill-rule="nonzero">
            <g id="编组-8备份-3" transform="translate(360.000000, 1575.000000)">
                <g id="编组-6备份-2" transform="translate(0.000000, 292.000000)">
                    <g id="实时报警" transform="translate(60.000000, 47.000000)">
                        <rect id="矩形" fill="#000000" opacity="0" x="0" y="0" width="45" height="45"></rect>
                        <g id="编组-15" transform="translate(1.018902, 2.000000)" fill="#3C3C3C">
                            <path d="M34.6528661,40.1419922 C34.2960302,39.7851562 33.8366552,39.5308594 33.3239598,39.4283203 C33.0163427,39.3667969 32.7948583,39.1042969 32.7948583,38.7925781 L32.7948583,23.7152344 C32.7948583,17.19375 27.4587255,11.7878906 20.9372411,11.8124163 C14.4362645,11.8371094 9.16985828,17.1158203 9.16985828,23.625 L9.16985828,38.7925781 C9.16985828,39.1042969 8.94837391,39.3667969 8.64075672,39.4283203 C7.44310047,39.6744141 6.54485828,40.7326172 6.54485828,42 L35.4198583,42 C35.4198583,41.2740234 35.1245458,40.6177734 34.6528661,40.1419922 Z M29.5136083,39.375 L12.4511083,39.375 C12.0901708,39.375 11.7948583,39.0796875 11.7948583,38.71875 L11.7948583,23.6988281 C11.7948583,21.2666016 12.725913,18.9123047 14.4362645,17.1773437 C16.1671239,15.421875 18.4763036,14.4457031 20.9372411,14.4373811 C23.3653661,14.4251953 25.6868505,15.3685547 27.4177098,17.0666016 C29.1936864,18.8097656 30.1698583,21.1435547 30.1698583,23.625 L30.1698583,38.71875 C30.1698583,39.0796875 29.8745458,39.375 29.5136083,39.375 Z M20.9823583,8.53125 C20.2563817,8.53125 19.6698583,7.94472656 19.6698583,7.21875 L19.6698583,1.3125 C19.6698583,0.586523438 20.2563817,0 20.9823583,0 C21.7083348,0 22.2948583,0.586523438 22.2948583,1.3125 L22.2948583,7.21875 C22.2948583,7.94472656 21.7083348,8.53125 20.9823583,8.53125 Z M11.4667333,12.1447266 C10.8391942,12.5056641 10.035288,12.2923828 9.67435047,11.6648438 L6.72122547,6.55019531 C6.36028797,5.92265625 6.57356922,5.11875 7.20110828,4.7578125 C7.82864734,4.396875 8.63255359,4.61015625 8.99349109,5.23769531 L11.9466161,10.3523438 C12.3075536,10.9798828 12.0942723,11.7796875 11.4667333,12.1447266 Z M30.4979833,12.1447266 C31.1255223,12.5056641 31.9294286,12.2923828 32.2903661,11.6648438 L35.2434911,6.55019531 C35.6044286,5.92265625 35.3911473,5.11875 34.7636083,4.7578125 C34.1360692,4.396875 33.332163,4.61015625 32.9712255,5.23769531 L30.0181005,10.3523438 C29.657163,10.9798828 29.8704442,11.7796875 30.4979833,12.1447266 Z M8.28802234,18.2478516 C8.09935047,18.9492188 7.38157703,19.3634766 6.68020984,19.1748047 L0.974936407,17.6490234 C0.27356922,17.4603516 -0.140688593,16.7425781 0.04388172,16.0412109 C0.232553595,15.3398437 0.950327032,14.9255859 1.65169422,15.1142578 L7.35696766,16.6441406 C8.05833484,16.8287109 8.47259266,17.5464844 8.28802234,18.2478516 L8.28802234,18.2478516 Z M33.6766942,18.2478516 C33.8653661,18.9492188 34.5831395,19.3634766 35.2845067,19.1748047 L40.9897802,17.6449219 C41.6911473,17.45625 42.1054052,16.7384766 41.9167333,16.0371094 C41.7280614,15.3357422 41.010288,14.9214844 40.3089208,15.1101562 L34.6036473,16.6400391 C33.9063817,16.8287109 33.4921239,17.5464844 33.6766942,18.2478516 Z" id="形状"></path>
                            <polygon id="路径" points="18.7141942 36.09375 19.5098973 28.9857422 16.3886083 28.9857422 23.2505223 19.03125 22.4548192 26.1392578 25.5761083 26.1392578"></polygon>
                        </g>
                    </g>
                </g>
            </g>
        </g>
    </g>
</svg>