<?xml version="1.0" encoding="UTF-8"?>
<svg width="45px" height="45px" viewBox="0 0 45 45" version="1.1" xmlns="http://www.w3.org/2000/svg" xmlns:xlink="http://www.w3.org/1999/xlink">
    <title>智能应用</title>
    <g id="页面-1" stroke="none" stroke-width="1" fill="none" fill-rule="evenodd">
        <g id="三体官网-核心产品-AI边缘计算盒" transform="translate(-1030.000000, -1914.000000)" fill-rule="nonzero">
            <g id="编组-8备份-3" transform="translate(360.000000, 1575.000000)">
                <g id="编组-6备份-3" transform="translate(610.000000, 292.000000)">
                    <g id="智能应用" transform="translate(60.000000, 47.000000)">
                        <rect id="矩形" fill="#000000" opacity="0" x="0" y="0" width="45" height="45"></rect>
                        <path d="M5.625,12.65625 L5.625,32.34375 L22.5,42.1875 L39.375,32.34375 L39.375,12.65625 L22.5,2.8125 L5.625,12.65625 Z M36.5625,30.9375 L22.5,39.375 L8.4375,30.9375 L8.4375,14.0625 L22.5,5.625 L36.5625,14.0625 L36.5625,30.9375 Z M24.0820312,24.0496875 L24.0820312,33.5742188 C24.0820312,34.2537879 23.5311316,34.8046875 22.8515625,34.8046875 C22.5232512,34.8112596 22.2064437,34.6837328 21.9742461,34.4515352 C21.7420484,34.2193376 21.6145217,33.90253 21.6210938,33.5742188 L21.6210938,24.0496875 L13.0078125,19.0814063 C12.5797016,18.8311325 12.3436664,18.3483283 12.4091057,17.8567659 C12.4745449,17.3652035 12.8286678,16.960964 13.3073437,16.8314063 C13.6229524,16.7481872 13.958812,16.7963845 14.2382812,16.965 L22.8515625,21.886875 L31.3917188,16.965 C31.6710472,16.796877 32.006523,16.7489479 32.3217548,16.8321267 C32.6369865,16.9153055 32.9051408,17.1225117 33.0651563,17.4065625 C33.4009348,17.9918602 33.202696,18.7383923 32.6207813,19.08 L24.0820312,24.001875 L24.0820312,24.0525 L24.0820312,24.0496875 Z" id="形状" fill="#3C3C3C"></path>
                    </g>
                </g>
            </g>
        </g>
    </g>
</svg>