<?xml version="1.0" encoding="UTF-8"?>
<svg width="45px" height="45px" viewBox="0 0 45 45" version="1.1" xmlns="http://www.w3.org/2000/svg" xmlns:xlink="http://www.w3.org/1999/xlink">
    <title>接口丰富</title>
    <defs>
        <linearGradient x1="25.6077881%" y1="11.6933594%" x2="73.7611084%" y2="82.6867676%" id="linearGradient-1">
            <stop stop-color="#C6CFFF" offset="0%"></stop>
            <stop stop-color="#EED8FF" offset="99.993427%"></stop>
        </linearGradient>
        <rect id="path-2" x="0" y="0" width="45" height="45" rx="22.5"></rect>
        <filter id="filter-4">
            <feColorMatrix in="SourceGraphic" type="matrix" values="0 0 0 0 1.000000 0 0 0 0 1.000000 0 0 0 0 1.000000 0 0 0 1.000000 0"></feColorMatrix>
        </filter>
    </defs>
    <g id="页面-1" stroke="none" stroke-width="1" fill="none" fill-rule="evenodd">
        <g id="三体官网-核心产品-AI边缘计算盒" transform="translate(-1030.000000, -2461.000000)">
            <g id="编组-8备份-5" transform="translate(360.000000, 2122.000000)">
                <g id="编组-6备份-3" transform="translate(610.000000, 292.000000)">
                    <g id="接口丰富" transform="translate(60.000000, 47.000000)">
                        <mask id="mask-3" fill="white">
                            <use xlink:href="#path-2"></use>
                        </mask>
                        <use id="蒙版" fill="url(#linearGradient-1)" xlink:href="#path-2"></use>
                        <g filter="url(#filter-4)" id="接口配置">
                            <g mask="url(#mask-3)">
                                <g transform="translate(10.000000, 10.000000)" fill-rule="nonzero">
                                    <rect id="矩形" fill="#000000" opacity="0" x="0" y="0" width="25" height="25"></rect>
                                    <path d="M8.33333333,16.1458333 C9.61468644,16.1458333 10.7403055,16.996484 11.0901042,18.2291667 L21.3645833,18.2291667 L21.3645833,19.7916667 L11.0901042,19.7916667 C10.7402958,21.024339 9.61467911,21.8749738 8.33333334,21.8749738 C7.05198756,21.8749738 5.92637088,21.024339 5.5765625,19.7916667 L3.65625,19.7916667 L3.65625,18.2291667 L5.5765625,18.2291667 C5.92636118,16.996484 7.05198022,16.1458333 8.33333333,16.1458333 Z M8.33333333,17.7083333 C7.61421255,17.7083333 7.03124999,18.2912959 7.03124999,19.0104167 C7.03124999,19.7295374 7.61421255,20.3125 8.33333333,20.3125 C9.0524541,20.3125 9.63541666,19.7295374 9.63541666,19.0104167 C9.63541666,18.2912959 9.0524541,17.7083333 8.33333333,17.7083333 L8.33333333,17.7083333 Z M16.6666667,9.89583333 C17.9480198,9.89583333 19.0736388,10.746484 19.4234375,11.9791667 L21.3645833,11.9791667 L21.3645833,13.5416667 L19.4234375,13.5416667 C19.0736291,14.774339 17.9480124,15.6249738 16.6666667,15.6249738 C15.3853209,15.6249738 14.2597042,14.774339 13.9098958,13.5416667 L3.65625,13.5416667 L3.65625,11.9791667 L13.9098958,11.9791667 C14.2596945,10.746484 15.3853136,9.89583333 16.6666667,9.89583333 Z M16.6666667,11.4583333 C15.9475459,11.4583333 15.3645833,12.0412959 15.3645833,12.7604167 C15.3645833,13.4795374 15.9475459,14.0625 16.6666667,14.0625 C17.3857874,14.0625 17.96875,13.4795374 17.96875,12.7604167 C17.96875,12.0412959 17.3857874,11.4583333 16.6666667,11.4583333 Z M8.33333333,3.64583333 C9.61468644,3.64583333 10.7403055,4.49648395 11.0901042,5.72916667 L21.3645833,5.72916667 L21.3645833,7.29166667 L11.0901042,7.29166667 C10.7402958,8.52433901 9.61467911,9.37497384 8.33333334,9.37497384 C7.05198756,9.37497384 5.92637088,8.52433901 5.5765625,7.29166667 L3.65625,7.29166667 L3.65625,5.72916667 L5.5765625,5.72916667 C5.92636118,4.49648396 7.05198022,3.64583333 8.33333333,3.64583333 Z M8.33333333,5.20833333 C7.86814375,5.20833333 7.43829085,5.456509 7.20569605,5.85937499 C6.97310126,6.26224098 6.97310126,6.75859235 7.20569605,7.16145834 C7.43829085,7.56432433 7.86814375,7.8125 8.33333333,7.8125 C9.0524541,7.8125 9.63541666,7.22953743 9.63541666,6.51041666 C9.63541666,5.79129589 9.0524541,5.20833333 8.33333333,5.20833333 Z" id="形状" fill="#1677FF"></path>
                                </g>
                            </g>
                        </g>
                    </g>
                </g>
            </g>
        </g>
    </g>
</svg>