<svg id="图层_1" data-name="图层 1" xmlns="http://www.w3.org/2000/svg" viewBox="0 0 476.98 597.12"><defs><style>.cls-1{fill:#fff;}.cls-2{fill:#bca7f9;}</style></defs><title>三体-单独</title><path class="cls-1" d="M638.28,471.74c0,125.09-103.8,226.84-231.42,226.84S175.44,596.83,175.44,471.74c0-36.48,30.22-66.1,67.43-66.1s67.44,29.62,67.44,66.1c0,52.17,43.32,94.64,96.55,94.64s96.56-42.47,96.56-94.64c0-43.71-30.39-80.56-71.57-91.39l88.89-106C590.87,313.34,638.28,387.21,638.28,471.74Z" transform="translate(-161.3 -101.46)"/><polygon class="cls-2" points="231.72 0 231.72 0.13 224.51 0.13 224.51 44.09 179.66 44.09 179.66 0.13 134.68 0.13 134.68 44.23 179.66 44.23 179.66 132.28 231.72 132.28 231.72 275.1 429.19 39.7 462.48 0.13 462.48 0 231.72 0"/><polygon class="cls-2" points="89.83 0.13 0 0.13 0 88.32 44.85 88.32 44.85 44.36 89.7 44.36 89.7 88.32 44.85 88.32 44.85 132.28 134.68 132.28 134.68 44.23 89.83 44.23 89.83 0.13"/><polygon class="cls-2" points="454.99 132.01 434.31 132.01 434.31 111.74 413.63 111.74 413.63 132.01 392.95 132.01 392.95 152.28 413.63 152.28 413.63 172.55 434.31 172.55 434.31 152.28 454.99 152.28 454.99 132.01"/></svg>