<?xml version="1.0" encoding="UTF-8"?>
<svg width="45px" height="45px" viewBox="0 0 45 45" version="1.1" xmlns="http://www.w3.org/2000/svg" xmlns:xlink="http://www.w3.org/1999/xlink">
    <title>强劲算力</title>
    <defs>
        <linearGradient x1="25.6077881%" y1="11.6933594%" x2="73.7611084%" y2="82.6867676%" id="linearGradient-1">
            <stop stop-color="#C6CFFF" offset="0%"></stop>
            <stop stop-color="#EED8FF" offset="99.993427%"></stop>
        </linearGradient>
        <rect id="path-2" x="0" y="0" width="45" height="45" rx="22.5"></rect>
    </defs>
    <g id="页面-1" stroke="none" stroke-width="1" fill="none" fill-rule="evenodd">
        <g id="三体官网-核心产品-AI边缘计算服务器" transform="translate(-421.000000, -1714.000000)">
            <g id="编组-8备份-3" transform="translate(361.000000, 1575.000000)">
                <g id="编组-6" transform="translate(0.000000, 92.000000)">
                    <g id="强劲算力" transform="translate(60.000000, 47.000000)">
                        <mask id="mask-3" fill="white">
                            <use xlink:href="#path-2"></use>
                        </mask>
                        <use id="蒙版" fill="url(#linearGradient-1)" xlink:href="#path-2"></use>
                        <g id="高算力" mask="url(#mask-3)" fill-rule="nonzero">
                            <g transform="translate(10.000000, 10.000000)">
                                <rect id="矩形" fill="#000000" opacity="0" x="0" y="0" width="25" height="25"></rect>
                                <path d="M21.6954023,2.72988506 C22.5682661,2.72988506 23.2758621,3.437481 23.2758621,4.31034483 L23.2758621,21.6954023 C23.2758621,22.5682661 22.5682661,23.2758621 21.6954023,23.2758621 L4.31034483,23.2758621 C3.437481,23.2758621 2.72988506,22.5682661 2.72988506,21.6954023 L2.72988506,4.31034483 C2.72988506,3.437481 3.437481,2.72988506 4.31034483,2.72988506 L21.6954023,2.72988506 Z M21.6954023,4.31034483 L4.31034483,4.31034483 L4.31034483,21.6954023 L21.6954023,21.6954023 L21.6954023,4.31034483 Z M13.3908764,7.47126437 L14.5584411,7.67672414 L12.6369971,18.5344828 L11.4698276,18.329023 L13.3908764,7.47126437 Z M9.92097701,10.237069 L11.0272989,11.3433908 L9.36781609,13.0028736 L11.0272989,14.6623563 L9.92097701,15.7686782 L8.26149425,14.1091954 L6.60201149,15.7686782 L5.49568966,14.6623563 L7.15517241,13.0028736 L5.49568966,11.3433908 L6.60201149,10.237069 L8.26149425,11.8965517 L9.92097701,10.237069 Z" id="形状" fill="#FFFFFF"></path>
                                <path d="M19.683908,13.7452107 L19.683908,15.2298851 L14.3678161,15.2298851 L14.3678161,13.7452107 L19.683908,13.7452107 Z M19.683908,10.7758621 L19.683908,12.2605364 L14.3678161,12.2605364 L14.3678161,10.7758621 L19.683908,10.7758621 Z" id="形状" fill="#FFFFFF"></path>
                            </g>
                        </g>
                    </g>
                </g>
            </g>
        </g>
    </g>
</svg>