<?xml version="1.0" encoding="UTF-8"?>
<svg width="20px" height="20px" viewBox="0 0 20 20" version="1.1" xmlns="http://www.w3.org/2000/svg" xmlns:xlink="http://www.w3.org/1999/xlink">
    <title>联系人</title>
    <defs>
        <filter id="filter-1">
            <feColorMatrix in="SourceGraphic" type="matrix" values="0 0 0 0 0.400000 0 0 0 0 0.400000 0 0 0 0 0.400000 0 0 0 1.000000 0"></feColorMatrix>
        </filter>
        <linearGradient x1="32.2848066%" y1="11.6933594%" x2="67.2568455%" y2="82.6867676%" id="linearGradient-2">
            <stop stop-color="#C6CFFF" offset="0%"></stop>
            <stop stop-color="#EED8FF" offset="99.993427%"></stop>
        </linearGradient>
    </defs>
    <g id="页面-1" stroke="none" stroke-width="1" fill="none" fill-rule="evenodd">
        <g id="三体官网-关于我们" transform="translate(-380.000000, -2614.000000)">
            <g id="编组-8备份-4" transform="translate(359.000000, 2460.000000)">
                <g id="联系人" transform="translate(0.000000, 92.000000)" filter="url(#filter-1)">
                    <g transform="translate(21.000000, 62.000000)">
                        <rect id="矩形" fill="#000000" fill-rule="nonzero" opacity="0" x="0" y="0" width="20" height="20"></rect>
                        <path d="M6.96824219,11.3021094 C5.46507812,10.3142188 4.47265625,8.61285156 4.47265625,6.6796875 C4.47265625,3.62701172 6.94732422,1.15234375 10,1.15234375 C13.0526758,1.15234375 15.5273438,3.62701172 15.5273438,6.6796875 C15.5273438,8.61285156 14.5349219,10.3142188 13.0317578,11.3021094 C15.7854102,12.4800781 17.7148438,15.2139258 17.7148438,18.3984375 C17.7148438,18.8730469 17.3300781,19.2578125 16.8554688,19.2578125 C16.3808594,19.2578125 15.9960938,18.8730469 15.9960938,18.3984375 C15.9960938,15.0868945 13.311543,12.4023437 10,12.4023437 C6.68845703,12.4023437 4.00390625,15.0868945 4.00390625,18.3984375 C4.00390625,18.8730469 3.61914062,19.2578125 3.14453125,19.2578125 C2.66992188,19.2578125 2.28515625,18.8730469 2.28515625,18.3984375 C2.28515625,15.2139258 4.21458984,12.4800781 6.96824219,11.3021094 Z M10,10.4882812 C12.1034375,10.4882812 13.8085938,8.783125 13.8085938,6.6796875 C13.8085938,4.57625 12.1034375,2.87109375 10,2.87109375 C7.8965625,2.87109375 6.19140625,4.57625 6.19140625,6.6796875 C6.19140625,8.783125 7.8965625,10.4882812 10,10.4882812 Z" id="形状" fill="url(#linearGradient-2)" fill-rule="nonzero"></path>
                    </g>
                </g>
            </g>
        </g>
    </g>
</svg>