<?xml version="1.0" encoding="UTF-8"?>
<svg width="25px" height="25px" viewBox="0 0 25 25" version="1.1" xmlns="http://www.w3.org/2000/svg" xmlns:xlink="http://www.w3.org/1999/xlink">
    <title>火</title>
    <g id="页面-1" stroke="none" stroke-width="1" fill="none" fill-rule="evenodd">
        <g id="三体官网-核心产品-AI边缘计算盒" transform="translate(-605.000000, -948.000000)" fill-rule="nonzero">
            <g id="编组-8" transform="translate(360.000000, 805.000000)">
                <g id="服务器租用备份" transform="translate(0.000000, 92.000000)">
                    <g id="火" transform="translate(245.000000, 51.000000)">
                        <rect id="矩形" fill="#000000" opacity="0" x="0" y="0" width="25" height="25"></rect>
                        <path d="M11.2074789,23.7345855 L10.2610975,23.5686233 C8.12215195,23.1928289 4.07682776,21.3714424 4.07682776,17.1704241 C4.07682776,13.7107267 5.79605869,11.7343457 7.7861804,9.44592676 C9.30514751,7.69928948 11.0271266,5.72085981 12.5532638,2.59308669 L13.2006735,1.26541453 L13.8212765,2.60540332 C13.8980743,2.77066594 15.5048317,6.29139685 15.857292,11.0643263 C16.8283567,9.73872769 17.354349,8.5078147 17.3611944,8.49135088 L17.9811228,7.02447336 L18.6462705,8.47076487 C18.8108586,8.82872146 22.6361074,17.2636607 19.9979514,21.3789623 C19.0625375,22.8389695 17.4770906,23.5795909 15.2853809,23.5795909 L14.9438632,23.5795909 L14.7333313,23.3100991 C13.1622247,21.3111084 12.0461336,18.9835911 11.4598573,16.505901 C10.6108846,19.2050905 11.0723708,22.738163 11.0785166,22.7827327 L11.2074789,23.7345855 Z M12.2477465,12.5805952 L12.5450444,14.6893113 C12.9263351,17.4104359 13.9893123,19.9875585 15.6261992,22.1682506 C17.1458408,22.1038194 18.1916547,21.5949654 18.8156803,20.6211776 C20.3669255,18.2011482 19.0227645,13.2800196 17.9420244,10.4348043 C17.4489597,11.2892983 16.7049156,12.4029909 15.7201103,13.3876964 L14.5213755,14.5864312 L14.5213755,12.891234 C14.5213755,9.36155913 13.6724777,6.29139685 13.0874505,4.59619958 C11.6648679,7.12667886 10.1225667,8.90074749 8.84568494,10.3676 C6.89258804,12.6127733 5.48129773,14.2366691 5.48129773,17.1704241 C5.48129773,20.1898459 8.13656714,21.4701503 9.58900447,21.9433535 C9.46421433,20.0849173 9.44914956,16.1623346 11.2300885,13.8835592 L12.2477465,12.5805952 Z" id="形状" fill="#BE1719"></path>
                    </g>
                </g>
            </g>
        </g>
    </g>
</svg>