<?xml version="1.0" encoding="UTF-8"?>
<svg width="45px" height="45px" viewBox="0 0 45 45" version="1.1" xmlns="http://www.w3.org/2000/svg" xmlns:xlink="http://www.w3.org/1999/xlink">
    <title>超高性能</title>
    <defs>
        <linearGradient x1="25.6077881%" y1="11.6933594%" x2="73.7611084%" y2="82.6867676%" id="linearGradient-1">
            <stop stop-color="#C6CFFF" offset="0%"></stop>
            <stop stop-color="#EED8FF" offset="99.993427%"></stop>
        </linearGradient>
        <rect id="path-2" x="0" y="0" width="45" height="45" rx="22.5"></rect>
    </defs>
    <g id="页面-1" stroke="none" stroke-width="1" fill="none" fill-rule="evenodd">
        <g id="三体官网-核心产品-AI边缘计算盒" transform="translate(-1030.000000, -2261.000000)">
            <g id="编组-8备份-5" transform="translate(360.000000, 2122.000000)">
                <g id="编组-6备份" transform="translate(610.000000, 92.000000)">
                    <g id="超高性能" transform="translate(60.000000, 47.000000)">
                        <mask id="mask-3" fill="white">
                            <use xlink:href="#path-2"></use>
                        </mask>
                        <use id="蒙版" fill="url(#linearGradient-1)" xlink:href="#path-2"></use>
                        <g id="性能" mask="url(#mask-3)" fill-rule="nonzero">
                            <g transform="translate(10.000000, 10.000000)">
                                <rect id="矩形" fill="#000000" opacity="0" x="0" y="0" width="25" height="25"></rect>
                                <path d="M11.3725586,21.6098389 C11.3443604,21.6098389 11.315918,21.6080078 11.2873535,21.6043457 C10.971582,21.5638184 10.72854,21.305542 10.707373,20.9878662 L9.80568848,7.46237793 L7.42380371,15.4019531 C7.33762207,15.6892334 7.07021484,15.8842041 6.77019043,15.8765625 C6.47033691,15.8695801 6.21208496,15.6631104 6.13935547,15.3721191 L5.278125,11.9272217 L3.81691895,13.3884277 C3.69199219,13.5133545 3.52253418,13.5835693 3.3458252,13.5835693 L2.19921875,13.5835693 C1.83127441,13.5835693 1.5329834,13.2852783 1.5329834,12.917334 C1.5329834,12.5493896 1.83127441,12.2510986 2.19921875,12.2510986 L3.06987305,12.2510986 L5.16794434,10.1530273 C5.33764648,9.98327637 5.58554688,9.91794434 5.81687012,9.98205566 C6.04816895,10.0461182 6.22714844,10.2296875 6.28535156,10.4625 L6.84404297,12.6972656 L9.5873291,3.55297852 C9.67993164,3.24438477 9.97993164,3.04633789 10.3001953,3.08237305 C10.6203613,3.11855469 10.8687256,3.37858887 10.8901855,3.70004883 L11.8114258,17.5186279 L14.179834,10.4133789 C14.2650391,10.1577637 14.4958252,9.9786377 14.7645996,9.95952148 C15.0337646,9.94030762 15.287207,10.0851318 15.4076904,10.3260986 L17.1050293,13.7207764 L17.6557617,12.6193359 C17.7686035,12.3936279 17.9992676,12.2510498 18.2516113,12.2510498 L22.8380371,12.2510498 C23.2060059,12.2510498 23.5042725,12.5493408 23.5042725,12.9172852 C23.5042725,13.2852295 23.2060059,13.5835205 22.8380371,13.5835205 L18.6634033,13.5835205 L17.7009277,15.5084717 C17.5880859,15.7341553 17.3574219,15.8767334 17.1050781,15.8767334 C16.8527344,15.8767334 16.6220459,15.7341553 16.5092285,15.5084717 L14.9352783,12.3606445 L12.0040283,21.154248 C11.9124756,21.4289551 11.6557129,21.6098389 11.3724365,21.6098389 L11.3725586,21.6098389 Z" id="路径" fill="#FFFFFF"></path>
                            </g>
                        </g>
                    </g>
                </g>
            </g>
        </g>
    </g>
</svg>